<svg width="1229" height="521" viewBox="0 0 1229 521" fill="none" xmlns="http://www.w3.org/2000/svg">
    <circle cx="358" cy="462" r="308" stroke="#FFF8DD" stroke-width="100"/>
    <g clip-path="url(#clip0_0_1)">
    <rect width="734" height="521" transform="translate(544)" fill="white"/>
    <path d="M963.5 148.66C972.782 143.301 984.218 143.301 993.5 148.66L1092.1 205.59C1101.39 210.949 1107.1 220.853 1107.1 231.571V345.429C1107.1 356.147 1101.39 366.051 1092.1 371.41L993.5 428.34C984.218 433.699 972.782 433.699 963.5 428.34L864.895 371.41C855.613 366.051 849.895 356.147 849.895 345.429V231.571C849.895 220.853 855.613 210.949 864.895 205.59L963.5 148.66Z" fill="#FFF8DD"/>
    <path opacity="0.3" d="M575.583 519.647H1444.92C1446.62 519.647 1447.99 518.276 1447.99 516.578C1447.99 514.88 1446.62 513.509 1444.92 513.509H575.583C573.884 513.509 572.513 514.88 572.513 516.578C572.523 518.276 573.895 519.647 575.583 519.647Z" fill="#3F4254"/>
    <path d="M926.628 464.756V471.127H905.54V471.18H902.133V483.816H905.54V483.869H1098.98V471.116H1075.65V464.746H1098.98V451.993H1075.65V437.901H1068.94V439.146H1066.92V451.993H935.352V437.901H928.643V438.977H926.628V451.993H905.54V452.109H902.133V464.746H905.54H926.628V464.756ZM1066.91 464.756V471.127H935.352V464.756H1066.91Z" fill="#0D2633"/>
    <path d="M742.879 439.186L1398.03 439.186V292.855L742.879 292.855V439.186Z" fill="#3F4254"/>
    <path d="M1262.93 424.904V347.925H1220.54V424.904H1262.93Z" fill="#E6B664"/>
    <path d="M1209.04 424.908V347.929H1166.65V424.908H1209.04Z" fill="#C29750"/>
    <path d="M1162.3 341.05V431.783H1216.18V341.05H1162.3ZM1168.05 347.927H1210.43V424.906H1168.05V347.927Z" fill="#B38840"/>
    <path d="M1206.99 349.604H1210.43V355.849L1171.48 426.583H1168.04V420.338L1206.99 349.604Z" fill="#B38840"/>
    <path d="M1205.59 347.927H1209.04V354.182L1170.08 424.917H1166.64V418.662L1205.59 347.927Z" fill="#E6B664"/>
    <path d="M1213.25 341.05V431.783H1267.13V341.05H1213.25ZM1219 347.927H1261.38V424.906H1219V347.927Z" fill="#C29955"/>
    <path d="M1257.39 347.927H1260.83V354.182L1221.88 424.917H1218.44V418.662L1257.39 347.927Z" fill="#C29955"/>
    <path d="M1259.49 347.927H1262.92V354.182L1223.98 424.917H1220.53V418.662L1259.49 347.927Z" fill="#F7CE83"/>
    <path d="M1214.78 341.05V431.783H1268.66V341.05H1214.78ZM1220.53 347.927H1262.91V424.906H1220.53V347.927Z" fill="#F7CE83"/>
    <path d="M1160.89 341.05V431.783H1214.78V341.05H1160.89ZM1166.64 347.927H1209.03V424.906H1166.64V347.927Z" fill="#E6B35C"/>
    <path d="M1189.27 424.907V347.928H1146.88V424.907H1189.27Z" fill="#E6B664"/>
    <path d="M1135.38 424.91V347.931H1092.99V424.91H1135.38Z" fill="#C29750"/>
    <path d="M1088.63 341.05V431.783H1142.52V341.05H1088.63ZM1094.38 347.927H1136.77V424.906H1094.38V347.927Z" fill="#B38840"/>
    <path d="M1133.33 349.604H1136.78V355.849L1097.83 426.583H1094.38V420.339L1133.33 349.604Z" fill="#B38840"/>
    <path d="M1131.93 347.927H1135.37V354.182L1096.43 424.916H1092.99V418.661L1131.93 347.927Z" fill="#E6B664"/>
    <path d="M1139.59 341.05V431.783H1193.48V341.05H1139.59ZM1145.34 347.927H1187.73V424.906H1145.34V347.927Z" fill="#C29955"/>
    <path d="M1183.73 347.927H1187.17V354.182L1148.22 424.916H1144.78V418.661L1183.73 347.927Z" fill="#C29955"/>
    <path d="M1185.82 347.927H1189.27V354.182L1150.31 424.916H1146.87V418.661L1185.82 347.927Z" fill="#F7CE83"/>
    <path d="M1141.12 341.05V431.783H1195.01V341.05H1141.12ZM1146.87 347.927H1189.26V424.906H1146.87V347.927Z" fill="#F7CE83"/>
    <path d="M1087.24 341.05V431.783H1141.12V341.05H1087.24ZM1092.99 347.927H1135.37V424.906H1092.99V347.927Z" fill="#E6B35C"/>
    <path opacity="0.8" d="M1023.17 431.517H1129.78V424.555H1023.17V431.517Z" fill="#6E562C"/>
    <path d="M1129.82 431.517H1139.21V420.284H1129.82V431.517Z" fill="#C29750"/>
    <path d="M1100.8 431.517H1110.19V420.284H1100.8V431.517Z" fill="#C29750"/>
    <path d="M1134.51 431.517H1143.9V420.284H1134.51V431.517Z" fill="#F7CE83"/>
    <path d="M1105.5 431.517H1114.88V420.284H1105.5V431.517Z" fill="#F7CE83"/>
    <path d="M1076.47 431.517H1085.86V420.284H1076.47V431.517Z" fill="#F7CE83"/>
    <path d="M1067.18 431.517H1076.56V420.284H1067.18V431.517Z" fill="#E6B664"/>
    <path d="M1042.85 431.517H1052.24V420.284H1042.85V431.517Z" fill="#B38840"/>
    <path d="M1013.83 431.517H1023.22V420.284H1013.83V431.517Z" fill="#B38840"/>
    <path d="M1076.56 424.557H1143.9V420.285H1076.56V424.557Z" fill="#F7CE83"/>
    <path d="M1009.18 424.557H1076.52V420.285H1009.18V424.557Z" fill="#E6B35C"/>
    <path d="M1038.16 431.517H1047.55V420.284H1038.16V431.517Z" fill="#E6B35C"/>
    <path d="M1009.13 431.517H1018.52V420.284H1009.13V431.517Z" fill="#E6B35C"/>
    <path d="M1064.69 420.285H1117.12V343.939H1064.69V420.285Z" fill="#CBD860"/>
    <path d="M1063.71 348.402H1118.07C1119.31 348.402 1120.31 347.4 1120.31 346.166C1120.31 344.932 1119.31 343.93 1118.07 343.93H1063.71C1062.48 343.93 1061.48 344.932 1061.48 346.166C1061.49 347.411 1062.48 348.402 1063.71 348.402Z" fill="#ADBD5F"/>
    <path d="M1063.71 369.73H1118.07C1119.31 369.73 1120.31 368.728 1120.31 367.494C1120.31 366.26 1119.31 365.258 1118.07 365.258H1063.71C1062.48 365.258 1061.48 366.26 1061.48 367.494C1061.49 368.728 1062.48 369.73 1063.71 369.73Z" fill="#ADBD5F"/>
    <path d="M1063.71 398.969H1118.07C1119.31 398.969 1120.31 397.967 1120.31 396.733C1120.31 395.499 1119.31 394.497 1118.07 394.497H1063.71C1062.48 394.497 1061.48 395.499 1061.48 396.733C1061.49 397.967 1062.48 398.969 1063.71 398.969Z" fill="#ADBD5F"/>
    <path d="M1063.71 420.286H1118.07C1119.31 420.286 1120.31 419.284 1120.31 418.05C1120.31 416.816 1119.31 415.814 1118.07 415.814H1063.71C1062.48 415.814 1061.48 416.816 1061.48 418.05C1061.49 419.284 1062.48 420.286 1063.71 420.286Z" fill="#ADBD5F"/>
    <path opacity="0.9" d="M1061.49 418.05C1061.49 416.816 1062.49 415.814 1063.72 415.814H1064.7V398.958H1063.72C1062.49 398.958 1061.49 397.956 1061.49 396.722C1061.49 395.488 1062.49 394.486 1063.72 394.486H1064.68V369.709H1063.71C1062.48 369.709 1061.48 368.707 1061.48 367.473C1061.48 366.239 1062.48 365.237 1063.71 365.237H1064.68V348.381H1063.71C1062.48 348.381 1061.48 347.379 1061.48 346.145C1061.48 344.911 1062.48 343.909 1063.71 343.909H1064.68H1087.77V420.255H1064.68H1063.71C1062.48 420.286 1061.49 419.284 1061.49 418.05Z" fill="#ADBD5F"/>
    <path opacity="0.5" d="M1108.36 343.94H1117.11H1118.08C1119.32 343.94 1120.32 344.942 1120.32 346.177C1120.32 347.411 1119.32 348.413 1118.08 348.413H1117.11V365.268H1118.08C1119.32 365.268 1120.32 366.27 1120.32 367.504C1120.32 368.739 1119.32 369.741 1118.08 369.741H1117.11V394.518H1118.08C1119.32 394.518 1120.32 395.52 1120.32 396.754C1120.32 397.988 1119.32 398.99 1118.08 398.99H1117.11V415.846H1118.08C1119.32 415.846 1120.32 416.848 1120.32 418.082C1120.32 419.316 1119.32 420.318 1118.08 420.318H1117.11H1108.36V343.94Z" fill="#ADBD5F"/>
    <path opacity="0.5" d="M1097.4 420.285H1101.59V343.939H1097.4V420.285Z" fill="#ADBD5F"/>
    <path d="M1021.46 420.286H1078.81V336.789H1021.46V420.286Z" fill="#CBD860"/>
    <path d="M1020.41 341.672H1079.86C1081.21 341.672 1082.31 340.575 1082.31 339.225C1082.31 337.875 1081.21 336.778 1079.86 336.778H1020.41C1019.06 336.778 1017.96 337.875 1017.96 339.225C1017.97 340.575 1019.06 341.672 1020.41 341.672Z" fill="#ADBD5F"/>
    <path d="M1020.41 364.994H1079.86C1081.21 364.994 1082.31 363.897 1082.31 362.547C1082.31 361.197 1081.21 360.1 1079.86 360.1H1020.41C1019.06 360.1 1017.96 361.197 1017.96 362.547C1017.97 363.897 1019.06 364.994 1020.41 364.994Z" fill="#ADBD5F"/>
    <path d="M1020.41 396.964H1079.86C1081.21 396.964 1082.31 395.867 1082.31 394.517C1082.31 393.167 1081.21 392.07 1079.86 392.07H1020.41C1019.06 392.07 1017.96 393.167 1017.96 394.517C1017.97 395.878 1019.06 396.964 1020.41 396.964Z" fill="#ADBD5F"/>
    <path d="M1020.41 420.286H1079.86C1081.21 420.286 1082.31 419.189 1082.31 417.839C1082.31 416.489 1081.21 415.392 1079.86 415.392H1020.41C1019.06 415.392 1017.96 416.489 1017.96 417.839C1017.97 419.189 1019.06 420.286 1020.41 420.286Z" fill="#ADBD5F"/>
    <path opacity="0.9" d="M1017.97 417.839C1017.97 416.489 1019.07 415.392 1020.42 415.392H1021.47V396.965H1020.42C1019.07 396.965 1017.97 395.868 1017.97 394.518C1017.97 393.167 1019.07 392.07 1020.42 392.07H1021.47V364.983H1020.42C1019.07 364.983 1017.97 363.886 1017.97 362.536C1017.97 361.186 1019.07 360.089 1020.42 360.089H1021.47V341.662H1020.42C1019.07 341.662 1017.97 340.565 1017.97 339.215C1017.97 337.865 1019.07 336.768 1020.42 336.768H1021.47H1046.72V420.265H1021.47H1020.42C1019.06 420.286 1017.97 419.189 1017.97 417.839Z" fill="#ADBD5F"/>
    <path opacity="0.5" d="M1069.24 336.789H1078.81H1079.86C1081.21 336.789 1082.31 337.886 1082.31 339.236C1082.31 340.586 1081.21 341.683 1079.86 341.683H1078.81V360.11H1079.86C1081.21 360.11 1082.31 361.207 1082.31 362.557C1082.31 363.907 1081.21 365.004 1079.86 365.004H1078.81V392.091H1079.86C1081.21 392.091 1082.31 393.188 1082.31 394.539C1082.31 395.889 1081.21 396.986 1079.86 396.986H1078.81V415.413H1079.86C1081.21 415.413 1082.31 416.51 1082.31 417.86C1082.31 419.21 1081.21 420.307 1079.86 420.307H1078.81H1069.24V336.789Z" fill="#ADBD5F"/>
    <path opacity="0.5" d="M1057.25 420.286H1061.83V336.789H1057.25V420.286Z" fill="#ADBD5F"/>
    <path opacity="0.8" d="M941.401 431.517H1048.01V424.555H941.401V431.517Z" fill="#6E562C"/>
    <path d="M1048.05 431.517H1057.44V420.284H1048.05V431.517Z" fill="#C29750"/>
    <path d="M1019.04 431.517H1028.43V420.284H1019.04V431.517Z" fill="#C29750"/>
    <path d="M1052.75 431.517H1062.14V420.284H1052.75V431.517Z" fill="#F7CE83"/>
    <path d="M1023.73 431.517H1033.12V420.284H1023.73V431.517Z" fill="#F7CE83"/>
    <path d="M994.705 431.517H1004.09V420.284H994.705V431.517Z" fill="#F7CE83"/>
    <path d="M985.411 431.517H994.8V420.284H985.411V431.517Z" fill="#E6B664"/>
    <path d="M961.089 431.517H970.478V420.284H961.089V431.517Z" fill="#B38840"/>
    <path d="M932.063 431.517H941.452V420.284H932.063V431.517Z" fill="#B38840"/>
    <path d="M994.799 424.557H1062.13V420.285H994.799V424.557Z" fill="#F7CE83"/>
    <path d="M927.417 424.557H994.752V420.285H927.417V424.557Z" fill="#E6B35C"/>
    <path d="M956.395 431.517H965.784V420.284H956.395V431.517Z" fill="#E6B35C"/>
    <path d="M927.369 431.517H936.758V420.284H927.369V431.517Z" fill="#E6B35C"/>
    <path d="M982.92 420.285H1035.35V343.939H982.92V420.285Z" fill="#CBD860"/>
    <path d="M981.947 348.402H1036.31C1037.54 348.402 1038.54 347.4 1038.54 346.166C1038.54 344.932 1037.54 343.93 1036.31 343.93H981.947C980.713 343.93 979.711 344.932 979.711 346.166C979.721 347.411 980.713 348.402 981.947 348.402Z" fill="#ADBD5F"/>
    <path d="M981.947 369.73H1036.31C1037.54 369.73 1038.54 368.728 1038.54 367.494C1038.54 366.26 1037.54 365.258 1036.31 365.258H981.947C980.713 365.258 979.711 366.26 979.711 367.494C979.721 368.728 980.713 369.73 981.947 369.73Z" fill="#ADBD5F"/>
    <path d="M981.947 398.969H1036.31C1037.54 398.969 1038.54 397.967 1038.54 396.733C1038.54 395.499 1037.54 394.497 1036.31 394.497H981.947C980.713 394.497 979.711 395.499 979.711 396.733C979.721 397.967 980.713 398.969 981.947 398.969Z" fill="#ADBD5F"/>
    <path d="M981.947 420.286H1036.31C1037.54 420.286 1038.54 419.284 1038.54 418.05C1038.54 416.816 1037.54 415.814 1036.31 415.814H981.947C980.713 415.814 979.711 416.816 979.711 418.05C979.721 419.284 980.713 420.286 981.947 420.286Z" fill="#ADBD5F"/>
    <path opacity="0.9" d="M979.721 418.05C979.721 416.816 980.724 415.814 981.958 415.814H982.928V398.959H981.958C980.724 398.959 979.721 397.956 979.721 396.722C979.721 395.488 980.724 394.486 981.958 394.486H982.918V369.709H981.947C980.713 369.709 979.711 368.707 979.711 367.473C979.711 366.239 980.713 365.237 981.947 365.237H982.918V348.381H981.947C980.713 348.381 979.711 347.379 979.711 346.145C979.711 344.911 980.713 343.909 981.947 343.909H982.918H1006V420.255H982.918H981.947C980.724 420.286 979.721 419.284 979.721 418.05Z" fill="#ADBD5F"/>
    <path opacity="0.5" d="M1026.59 343.941H1035.35H1036.32C1037.55 343.941 1038.55 344.943 1038.55 346.177C1038.55 347.411 1037.55 348.413 1036.32 348.413H1035.36V365.268H1036.33C1037.56 365.268 1038.57 366.27 1038.57 367.505C1038.57 368.739 1037.56 369.741 1036.33 369.741H1035.36V394.518H1036.33C1037.56 394.518 1038.57 395.52 1038.57 396.754C1038.57 397.988 1037.56 398.99 1036.33 398.99H1035.36V415.846H1036.33C1037.56 415.846 1038.57 416.848 1038.57 418.082C1038.57 419.316 1037.56 420.318 1036.33 420.318H1035.36H1026.6V343.941H1026.59Z" fill="#ADBD5F"/>
    <path opacity="0.5" d="M1015.63 420.285H1019.82V343.939H1015.63V420.285Z" fill="#ADBD5F"/>
    <path d="M939.696 420.286H997.041V336.789H939.696V420.286Z" fill="#CBD860"/>
    <path d="M938.644 341.673H998.099C999.449 341.673 1000.55 340.576 1000.55 339.226C1000.55 337.875 999.449 336.778 998.099 336.778H938.644C937.293 336.778 936.196 337.875 936.196 339.226C936.207 340.576 937.293 341.673 938.644 341.673Z" fill="#ADBD5F"/>
    <path d="M938.644 364.994H998.099C999.449 364.994 1000.55 363.897 1000.55 362.547C1000.55 361.197 999.449 360.1 998.099 360.1H938.644C937.293 360.1 936.196 361.197 936.196 362.547C936.207 363.897 937.293 364.994 938.644 364.994Z" fill="#ADBD5F"/>
    <path d="M938.644 396.965H998.099C999.449 396.965 1000.55 395.868 1000.55 394.518C1000.55 393.168 999.449 392.071 998.099 392.071H938.644C937.293 392.071 936.196 393.168 936.196 394.518C936.207 395.878 937.293 396.965 938.644 396.965Z" fill="#ADBD5F"/>
    <path d="M938.644 420.286H998.099C999.449 420.286 1000.55 419.189 1000.55 417.839C1000.55 416.489 999.449 415.392 998.099 415.392H938.644C937.293 415.392 936.196 416.489 936.196 417.839C936.207 419.189 937.293 420.286 938.644 420.286Z" fill="#ADBD5F"/>
    <path opacity="0.9" d="M936.207 417.839C936.207 416.489 937.304 415.392 938.654 415.392H939.709V396.965H938.654C937.304 396.965 936.207 395.868 936.207 394.518C936.207 393.167 937.304 392.071 938.654 392.071H939.709V364.983H938.654C937.304 364.983 936.207 363.887 936.207 362.536C936.207 361.186 937.304 360.089 938.654 360.089H939.709V341.662H938.654C937.304 341.662 936.207 340.565 936.207 339.215C936.207 337.865 937.304 336.768 938.654 336.768H939.709H964.954V420.265H939.709H938.654C937.294 420.286 936.207 419.189 936.207 417.839Z" fill="#ADBD5F"/>
    <path opacity="0.5" d="M987.476 336.789H997.044H998.099C999.449 336.789 1000.55 337.886 1000.55 339.236C1000.55 340.586 999.449 341.683 998.099 341.683H997.044V360.11H998.099C999.449 360.11 1000.55 361.207 1000.55 362.558C1000.55 363.908 999.449 365.005 998.099 365.005H997.044V392.092H998.099C999.449 392.092 1000.55 393.189 1000.55 394.539C1000.55 395.889 999.449 396.986 998.099 396.986H997.044V415.413H998.099C999.449 415.413 1000.55 416.51 1000.55 417.86C1000.55 419.21 999.449 420.307 998.099 420.307H997.044H987.476V336.789Z" fill="#ADBD5F"/>
    <path opacity="0.5" d="M975.484 420.286H980.062V336.789H975.484V420.286Z" fill="#ADBD5F"/>
    <path d="M797.221 439.262H827.255C832.213 439.262 836.222 443.281 836.222 448.228V448.291H788.244V448.228C788.255 443.27 792.274 439.262 797.221 439.262Z" fill="#113040"/>
    <path opacity="0.8" d="M733.422 431.517H840.032V424.555H733.422V431.517Z" fill="#6E562C"/>
    <path d="M840.027 431.517H849.416V420.284H840.027V431.517Z" fill="#C29750"/>
    <path d="M811.001 431.517H820.39V420.284H811.001V431.517Z" fill="#C29750"/>
    <path d="M844.721 431.517H854.109V420.284H844.721V431.517Z" fill="#F7CE83"/>
    <path d="M815.694 431.517H825.083V420.284H815.694V431.517Z" fill="#F7CE83"/>
    <path d="M786.68 431.517H796.068V420.284H786.68V431.517Z" fill="#F7CE83"/>
    <path d="M777.386 431.517H786.774V420.284H777.386V431.517Z" fill="#E6B664"/>
    <path d="M753.053 431.517H762.441V420.284H753.053V431.517Z" fill="#B38840"/>
    <path d="M724.038 431.517H733.427V420.284H724.038V431.517Z" fill="#B38840"/>
    <path d="M786.773 424.557H854.108V420.285H786.773V424.557Z" fill="#F7CE83"/>
    <path d="M719.391 424.557H786.727V420.285H719.391V424.557Z" fill="#E6B35C"/>
    <path d="M748.359 431.517H757.748V420.284H748.359V431.517Z" fill="#E6B35C"/>
    <path d="M719.344 431.517H728.732V420.284H719.344V431.517Z" fill="#E6B35C"/>
    <path d="M812.932 365.274H849.422V347.553H812.932V365.274Z" fill="#F7CE83"/>
    <path d="M776.433 365.274H812.923V347.553H776.433V365.274Z" fill="#E6B35C"/>
    <path d="M826.079 360.844H849.414V351.984H826.079V360.844Z" fill="#F7F1E5"/>
    <path d="M832.668 360.844H837.753V351.984H832.668V360.844Z" fill="#C29750"/>
    <path d="M826.083 360.844H831.379V351.984H826.083V360.844Z" fill="#C29750"/>
    <path d="M849.408 364.804H812.918V365.754H849.408V364.804Z" fill="#C29750"/>
    <path d="M812.918 364.804H776.429V365.753H812.918V364.804Z" fill="#B38840"/>
    <path d="M812.931 383.474H849.421V365.754H812.931V383.474Z" fill="#F7CE83"/>
    <path d="M776.433 383.474H812.923V365.754H776.433V383.474Z" fill="#E6B35C"/>
    <path d="M826.079 379.044H849.414V370.184H826.079V379.044Z" fill="#F7F1E5"/>
    <path d="M832.668 379.044H837.753V370.184H832.668V379.044Z" fill="#C29750"/>
    <path d="M826.083 379.044H831.379V370.184H826.083V379.044Z" fill="#C29750"/>
    <path d="M849.409 383H812.919V383.949H849.409V383Z" fill="#C29750"/>
    <path d="M812.918 383H776.429V383.949H812.918V383Z" fill="#B38840"/>
    <path d="M812.932 401.674H849.422V383.954H812.932V401.674Z" fill="#F7CE83"/>
    <path d="M776.433 401.674H812.923V383.954H776.433V401.674Z" fill="#E6B35C"/>
    <path d="M826.079 397.244H849.414V388.384H826.079V397.244Z" fill="#F7F1E5"/>
    <path d="M832.668 397.244H837.753V388.384H832.668V397.244Z" fill="#C29750"/>
    <path d="M826.083 397.244H831.379V388.384H826.083V397.244Z" fill="#C29750"/>
    <path d="M849.408 401.195H812.918V402.144H849.408V401.195Z" fill="#C29750"/>
    <path d="M812.918 401.195H776.429V402.144H812.918V401.195Z" fill="#B38840"/>
    <path d="M812.932 419.874H849.422V402.154H812.932V419.874Z" fill="#F7CE83"/>
    <path d="M776.433 419.874H812.923V402.154H776.433V419.874Z" fill="#E6B35C"/>
    <path d="M826.079 415.444H849.414V406.584H826.079V415.444Z" fill="#F7F1E5"/>
    <path d="M832.668 415.444H837.753V406.584H832.668V415.444Z" fill="#C29750"/>
    <path d="M826.083 415.444H831.379V406.584H826.083V415.444Z" fill="#C29750"/>
    <path d="M849.408 419.4H812.918V420.35H849.408V419.4Z" fill="#C29750"/>
    <path d="M812.918 419.4H776.429V420.35H812.918V419.4Z" fill="#B38840"/>
    <path d="M763.875 365.274H800.364V347.553H763.875V365.274Z" fill="#F7CE83"/>
    <path d="M727.376 365.274H763.865V347.553H727.376V365.274Z" fill="#E6B35C"/>
    <path d="M777.023 360.844H800.357V351.984H777.023V360.844Z" fill="#F7F1E5"/>
    <path d="M783.612 360.844H788.696V351.984H783.612V360.844Z" fill="#C29750"/>
    <path d="M777.025 360.844H782.32V351.984H777.025V360.844Z" fill="#C29750"/>
    <path d="M800.354 364.804H763.864V365.753H800.354V364.804Z" fill="#C29750"/>
    <path d="M763.865 364.804H727.375V365.753H763.865V364.804Z" fill="#B38840"/>
    <path d="M812.931 347.084H849.421V329.364H812.931V347.084Z" fill="#F7CE83"/>
    <path d="M776.433 347.084H812.923V329.364H776.433V347.084Z" fill="#E6B35C"/>
    <path d="M826.079 342.654H849.414V333.794H826.079V342.654Z" fill="#F7F1E5"/>
    <path d="M832.668 342.654H837.753V333.794H832.668V342.654Z" fill="#C29750"/>
    <path d="M826.083 342.654H831.379V333.794H826.083V342.654Z" fill="#C29750"/>
    <path d="M849.409 346.609H812.919V347.558H849.409V346.609Z" fill="#C29750"/>
    <path d="M812.918 346.609H776.429V347.558H812.918V346.609Z" fill="#B38840"/>
    <path d="M763.875 347.084H800.364V329.364H763.875V347.084Z" fill="#F7CE83"/>
    <path d="M727.376 347.084H763.865V329.364H727.376V347.084Z" fill="#E6B35C"/>
    <path d="M777.023 342.654H800.357V333.794H777.023V342.654Z" fill="#F7F1E5"/>
    <path d="M783.612 342.654H788.696V333.794H783.612V342.654Z" fill="#C29750"/>
    <path d="M777.025 342.654H782.32V333.794H777.025V342.654Z" fill="#C29750"/>
    <path d="M800.354 346.609H763.864V347.558H800.354V346.609Z" fill="#C29750"/>
    <path d="M763.865 346.609H727.375V347.558H763.865V346.609Z" fill="#B38840"/>
    <path d="M812.931 328.884H849.421V311.164H812.931V328.884Z" fill="#F7CE83"/>
    <path d="M776.433 328.884H812.923V311.164H776.433V328.884Z" fill="#E6B35C"/>
    <path d="M826.079 324.454H849.414V315.594H826.079V324.454Z" fill="#F7F1E5"/>
    <path d="M832.668 324.454H837.753V315.594H832.668V324.454Z" fill="#C29750"/>
    <path d="M826.083 324.454H831.379V315.594H826.083V324.454Z" fill="#C29750"/>
    <path d="M849.409 328.403H812.919V329.353H849.409V328.403Z" fill="#C29750"/>
    <path d="M812.918 328.403H776.429V329.353H812.918V328.403Z" fill="#B38840"/>
    <path d="M763.875 328.884H800.364V311.164H763.875V328.884Z" fill="#F7CE83"/>
    <path d="M727.376 328.884H763.865V311.164H727.376V328.884Z" fill="#E6B35C"/>
    <path d="M777.023 324.454H800.357V315.594H777.023V324.454Z" fill="#F7F1E5"/>
    <path d="M783.612 324.454H788.696V315.594H783.612V324.454Z" fill="#C29750"/>
    <path d="M777.025 324.454H782.32V315.594H777.025V324.454Z" fill="#C29750"/>
    <path d="M800.354 328.403H763.864V329.353H800.354V328.403Z" fill="#C29750"/>
    <path d="M763.865 328.403H727.375V329.353H763.865V328.403Z" fill="#B38840"/>
    <path d="M763.875 383.474H800.364V365.754H763.875V383.474Z" fill="#F7CE83"/>
    <path d="M727.376 383.474H763.865V365.754H727.376V383.474Z" fill="#E6B35C"/>
    <path d="M777.023 379.044H800.357V370.184H777.023V379.044Z" fill="#F7F1E5"/>
    <path d="M783.612 379.044H788.696V370.184H783.612V379.044Z" fill="#C29750"/>
    <path d="M777.025 379.044H782.32V370.184H777.025V379.044Z" fill="#C29750"/>
    <path d="M800.354 382.999H763.864V383.949H800.354V382.999Z" fill="#C29750"/>
    <path d="M763.865 383H727.375V383.949H763.865V383Z" fill="#B38840"/>
    <path d="M763.875 401.674H800.364V383.954H763.875V401.674Z" fill="#F7CE83"/>
    <path d="M727.376 401.674H763.865V383.954H727.376V401.674Z" fill="#E6B35C"/>
    <path d="M777.023 397.244H800.357V388.384H777.023V397.244Z" fill="#F7F1E5"/>
    <path d="M783.612 397.244H788.696V388.384H783.612V397.244Z" fill="#C29750"/>
    <path d="M777.025 397.244H782.32V388.384H777.025V397.244Z" fill="#C29750"/>
    <path d="M800.354 401.195H763.864V402.144H800.354V401.195Z" fill="#C29750"/>
    <path d="M763.865 401.195H727.375V402.144H763.865V401.195Z" fill="#B38840"/>
    <path d="M763.875 419.874H800.364V402.154H763.875V419.874Z" fill="#F7CE83"/>
    <path d="M727.376 419.874H763.865V402.154H727.376V419.874Z" fill="#E6B35C"/>
    <path d="M777.023 415.444H800.357V406.584H777.023V415.444Z" fill="#F7F1E5"/>
    <path d="M783.612 415.444H788.696V406.584H783.612V415.444Z" fill="#C29750"/>
    <path d="M777.025 415.444H782.32V406.584H777.025V415.444Z" fill="#C29750"/>
    <path d="M800.354 419.401H763.864V420.35H800.354V419.401Z" fill="#C29750"/>
    <path d="M763.865 419.4H727.375V420.35H763.865V419.4Z" fill="#B38840"/>
    <path d="M746.669 292.857H696.697V439.188H746.669V292.857Z" fill="#3F4254"/>
    <path opacity="0.3" d="M736.963 331.536V439.568H696.697V322.75H728.165C733.029 322.75 736.963 326.684 736.963 331.536Z" fill="#181C32"/>
    <path d="M672.002 435.601C677.319 435.601 685.874 435.485 691.107 433.355L702.31 424.695L697.489 386.796V341.546C697.489 339.109 695.516 337.137 693.079 337.137H609.973C591.807 338.983 586.596 374.044 581.775 404.506C579.633 406.215 578.283 408.831 578.283 411.732V483.415H622.221L631.979 461.781C634.732 455.685 638.625 450.094 643.773 445.812C651.421 439.441 661.253 435.601 672.002 435.601Z" fill="#FFC700"/>
    <path d="M690.256 481.681C690.296 464.094 676.06 449.805 658.459 449.765C640.859 449.725 626.558 463.95 626.518 481.537C626.479 499.124 640.715 513.413 658.315 513.453C675.916 513.493 690.217 499.268 690.256 481.681Z" fill="#0D2633"/>
    <path d="M696.701 481.679C696.741 464.092 682.505 449.803 664.904 449.763C647.303 449.723 633.002 463.948 632.963 481.535C632.923 499.122 647.159 513.412 664.76 513.451C682.36 513.491 696.661 499.266 696.701 481.679Z" fill="#113040"/>
    <path d="M859.957 482.761C859.984 465.174 845.737 450.895 828.136 450.869C810.535 450.842 796.245 465.078 796.219 482.665C796.192 500.252 810.439 514.531 828.04 514.557C845.641 514.584 859.931 500.348 859.957 482.761Z" fill="#0D2633"/>
    <path d="M866.402 482.765C866.431 465.178 852.187 450.897 834.586 450.867C816.986 450.837 802.693 465.07 802.663 482.657C802.634 500.244 816.878 514.525 834.478 514.555C852.079 514.585 866.372 500.352 866.402 482.765Z" fill="#113040"/>
    <path d="M715.191 435.601L726.995 448.291H736.859H756.575H936.808C944.773 448.291 951.239 454.746 951.239 462.71C951.239 470.673 944.783 477.129 936.808 477.129H744.233H732.354H726.995H725.339H653.51L673.522 435.601H715.191V435.601Z" fill="#113040"/>
    <path d="M874.894 452.299C892.501 452.299 906.764 466.56 906.764 484.143C906.764 501.727 892.49 515.987 874.894 515.987C857.288 515.987 843.025 501.727 843.025 484.143C843.025 466.56 857.288 452.299 874.894 452.299Z" fill="#181C32"/>
    <path d="M913.21 484.207C913.25 466.62 899.014 452.331 881.413 452.291C863.812 452.251 849.511 466.476 849.472 484.063C849.432 501.65 863.668 515.939 881.269 515.979C898.869 516.019 913.17 501.794 913.21 484.207Z" fill="#3F4254"/>
    <path d="M881.34 505.197C892.975 505.197 902.407 495.771 902.407 484.143C902.407 472.516 892.975 463.09 881.34 463.09C869.705 463.09 860.273 472.516 860.273 484.143C860.273 495.771 869.705 505.197 881.34 505.197Z" fill="#CFE8F6"/>
    <path d="M881.34 498.721C889.397 498.721 895.929 492.194 895.929 484.143C895.929 476.093 889.397 469.566 881.34 469.566C873.282 469.566 866.75 476.093 866.75 484.143C866.75 492.194 873.282 498.721 881.34 498.721Z" fill="#ACD5EC"/>
    <path d="M880.423 477.182C885.012 476.602 888.883 480.473 888.303 485.051C887.902 488.173 885.381 490.694 882.258 491.095C877.669 491.675 873.787 487.804 874.378 483.226C874.768 480.104 877.29 477.583 880.423 477.182Z" fill="#CFE8F6"/>
    <path d="M699.314 435.602C704.63 435.602 713.186 435.486 718.418 433.355L724.537 428.63C727.691 426.193 729.316 422.28 728.809 418.324L724.8 386.807V341.556C724.8 339.12 722.828 337.147 720.391 337.147H637.284C619.119 338.993 613.907 374.055 609.087 404.517C606.945 406.226 605.595 408.842 605.595 411.742V483.426H649.532L659.29 461.792C661.896 456.001 665.514 450.664 670.303 446.487C678.046 439.715 688.195 435.602 699.314 435.602Z" fill="#FFDC5E"/>
    <path d="M615.68 407.818V443.797C615.68 447.795 618.918 451.033 622.927 451.033C631.999 451.033 640.47 451.033 647.633 451.033C649.965 451.033 652.022 449.609 652.939 447.468C659.912 433.903 671.211 429.61 687.414 429.948C688.131 429.948 688.849 429.969 689.587 430.001C689.64 430.001 689.682 430.001 689.735 430.001C691.539 430.001 693.016 428.535 693.016 426.71V341.282C693.016 339.595 691.644 338.223 689.956 338.223H643.361C624.836 341.578 620.659 372.915 616.102 402.407C615.817 404.201 615.68 406.004 615.68 407.818ZM617.304 407.818C617.304 406.099 617.441 404.369 617.705 402.65L618.18 399.591C622.452 371.776 626.883 343.012 643.519 339.837H689.967C690.758 339.837 691.412 340.481 691.412 341.272V426.699C691.412 427.617 690.663 428.366 689.745 428.366C688.912 428.334 688.163 428.313 687.435 428.313C670.704 427.617 657.94 432.69 651.473 446.814C650.798 448.386 649.3 449.409 647.654 449.409H622.948C619.847 449.409 617.325 446.888 617.325 443.787V407.818H617.304Z" fill="#FFC700"/>
    <path d="M600.89 482.793L602.546 482.751C603.327 482.73 603.939 482.097 603.939 481.327V477.487C603.939 476.802 603.39 476.243 602.705 476.232L601.259 476.211C601.059 476.211 600.869 476.169 600.7 476.095V482.856C600.763 482.835 600.827 482.803 600.89 482.793Z" fill="#DC701D"/>
    <path d="M687.795 383.432V345.965C687.795 344.278 686.423 342.906 684.736 342.906H647.37C631.831 342.917 624.785 366.217 622.263 401.985C622.094 404.38 624.014 406.416 626.409 406.416H638.361C640.007 406.416 641.494 405.445 642.159 403.937C646.748 393.526 657.065 386.807 668.448 386.807H684.419C686.276 386.807 687.795 385.288 687.795 383.432Z" fill="#4FD8FF"/>
    <path d="M887.395 448.164C889.98 448.597 892.543 449.314 895.033 450.327C897.122 451.097 899.274 452.289 901.046 453.407C901.046 453.407 901.046 453.407 901.056 453.407C907.122 457.12 912.038 462.531 915.087 468.996C916.205 471.37 917.07 473.88 917.661 476.496C918.22 478.648 918.463 481.095 918.547 483.183C918.568 483.669 918.674 484.122 918.821 484.565C918.853 484.66 918.874 484.744 918.916 484.829C919.085 485.261 919.296 485.673 919.57 486.031C919.581 486.042 919.581 486.042 919.591 486.052C919.676 486.168 920.393 487.508 923.684 488.12C923.674 488.32 919.264 488.12 918.61 488.12C917.471 488.12 916.437 487.74 915.583 487.107C915.562 487.097 915.54 487.076 915.519 487.055C915.14 486.77 914.802 486.432 914.507 486.052C914.496 486.042 914.496 486.042 914.486 486.031C914.211 485.662 914 485.261 913.832 484.829C913.8 484.744 913.768 484.65 913.737 484.565C913.589 484.122 913.483 483.669 913.462 483.183C913.367 481.095 913.125 478.648 912.576 476.496C911.985 473.88 911.12 471.37 910.002 468.996C906.953 462.531 902.038 457.12 895.972 453.407C895.972 453.407 895.972 453.407 895.961 453.407C894.189 452.289 892.047 451.097 889.948 450.327C887.459 449.314 884.906 448.597 882.311 448.164C881.108 447.964 879.895 447.848 878.682 447.764C881.583 447.553 884.505 447.679 887.395 448.164Z" fill="#181C32"/>
    <path d="M859.186 444.61C859.302 444.557 859.418 444.557 859.545 444.557C865.6 442.036 872.172 440.971 878.723 441.35C873.881 441.646 869.113 442.69 864.619 444.557C864.503 444.567 864.377 444.557 864.261 444.61C848.985 451.255 838.257 466.454 838.257 484.143C838.257 484.776 838.014 487.234 839.597 487.761C839.597 487.761 836.052 487.761 834.522 487.761C833.868 487.761 833.32 487.255 833.278 486.611C833.225 485.799 833.183 484.977 833.183 484.154C833.172 466.454 843.901 451.255 859.186 444.61Z" fill="#181C32"/>
    <path d="M864.25 444.61C864.366 444.557 864.482 444.557 864.608 444.557C875.4 440.063 887.817 440.021 898.862 444.958C898.904 444.968 898.957 444.958 898.999 444.979C899.389 445.147 899.758 445.348 900.138 445.527C900.159 445.538 900.191 445.548 900.212 445.559C914.833 452.468 925.003 467.298 925.003 484.512C925.003 485.346 924.96 486.158 924.908 486.97C924.865 487.624 924.317 488.12 923.663 488.12C922.523 488.12 921.49 487.74 920.635 487.107C920.614 487.097 920.593 487.075 920.572 487.054C920.192 486.77 919.855 486.432 919.559 486.052C919.549 486.042 919.549 486.042 919.538 486.031C919.264 485.662 919.053 485.261 918.884 484.829C918.852 484.744 918.821 484.649 918.789 484.565C918.641 484.122 918.536 483.668 918.515 483.183C918.42 481.095 918.177 478.648 917.629 476.496C917.038 473.88 916.173 471.37 915.055 468.996C912.006 462.53 907.09 457.119 901.024 453.406C899.252 452.288 897.1 451.097 895.011 450.327C892.522 449.314 889.969 448.597 887.374 448.164C879.62 446.867 871.624 448.122 864.63 451.687C864.482 451.761 864.07 451.93 864.007 451.961C857.097 455.664 851.506 461.518 848.162 468.627C847.044 471 846.179 473.511 845.588 476.127C845.029 478.278 844.787 480.726 844.702 482.814C844.681 483.352 844.555 483.848 844.386 484.322C844.365 484.396 844.344 484.47 844.312 484.544C844.122 485.008 843.869 485.43 843.573 485.81C843.542 485.852 843.5 485.894 843.468 485.936C842.529 487.044 841.147 487.761 839.586 487.761C838.932 487.761 838.383 487.255 838.341 486.611C838.288 485.799 838.246 484.976 838.246 484.154C838.246 466.454 848.975 451.255 864.25 444.61Z" fill="#3F4254"/>
    <path d="M721.665 484.218C721.707 466.631 707.472 452.34 689.871 452.299C672.27 452.258 657.968 466.481 657.927 484.068C657.886 501.655 672.121 515.946 689.722 515.987C707.322 516.028 721.624 501.805 721.665 484.218Z" fill="#181C32"/>
    <path d="M728.109 484.214C728.149 466.627 713.913 452.337 696.312 452.297C678.712 452.257 664.411 466.482 664.371 484.069C664.331 501.656 678.567 515.946 696.168 515.986C713.769 516.026 728.069 501.801 728.109 484.214Z" fill="#3F4254"/>
    <path d="M696.234 505.197C707.869 505.197 717.3 495.771 717.3 484.143C717.3 472.516 707.869 463.089 696.234 463.089C684.599 463.089 675.167 472.516 675.167 484.143C675.167 495.771 684.599 505.197 696.234 505.197Z" fill="#CFE8F6"/>
    <path d="M696.252 498.721C704.309 498.711 710.833 492.176 710.823 484.125C710.813 476.075 704.273 469.556 696.216 469.566C688.158 469.576 681.634 476.111 681.644 484.162C681.654 492.213 688.194 498.731 696.252 498.721Z" fill="#ACD5EC"/>
    <path d="M696.234 477.129C700.105 477.129 703.26 480.272 703.26 484.143C703.26 488.014 700.105 491.157 696.234 491.157C692.362 491.157 689.208 488.014 689.208 484.143C689.208 480.272 692.362 477.129 696.234 477.129Z" fill="#CFE8F6"/>
    <path d="M820.471 448.291C822.592 448.291 824.311 457.13 824.311 468.026C824.311 478.922 822.592 487.761 820.471 487.761H746.68V448.291H820.471V448.291Z" fill="#CFE8F6"/>
    <path d="M742.84 468.026C742.84 478.922 744.559 487.761 746.68 487.761C748.8 487.761 750.52 478.922 750.52 468.026C750.52 457.13 748.8 448.291 746.68 448.291C744.559 448.291 742.84 457.119 742.84 468.026Z" fill="#9D7F6A"/>
    <path d="M598.475 344.362C598.475 344.362 599.213 343.434 598.475 344.362C601.924 335.344 606.703 328.92 614.309 327.559H641.621H684.83C686.181 327.559 687.394 328.35 687.953 329.574L691.371 337.147H632.591L625.786 344.373H598.475V344.362Z" fill="#FFC700"/>
    <path d="M637.285 337.147H718.682L715.264 329.574C714.716 328.35 713.492 327.559 712.142 327.559H641.62C634.015 328.92 629.236 335.344 625.786 344.362C626.461 345.459 632.569 337.991 637.285 337.147Z" fill="#FFDC5E"/>
    <path d="M628.677 362.547C628.002 364.603 627.39 366.797 626.82 369.139L653.077 342.906H648.341L628.677 362.547Z" fill="white"/>
    <path d="M631.947 406.416L687.784 350.364V345.965C687.784 344.278 686.413 342.906 684.725 342.906H663.743L624.32 382.303C623.434 388.326 622.759 394.908 622.263 401.985C622.094 404.38 624.014 406.416 626.409 406.416H631.947V406.416Z" fill="white"/>
    <path d="M668.447 386.807H674.429L687.795 373.453V361.682L661.886 387.577C664.006 387.071 666.2 386.807 668.447 386.807Z" fill="white"/>
    <path d="M622.262 401.985C622.094 404.38 624.013 406.416 626.408 406.416H638.36C640.006 406.416 641.493 405.445 642.158 403.937C646.747 393.526 657.064 386.807 668.447 386.807H684.418C686.285 386.807 687.794 385.299 687.794 383.432V345.965C687.794 344.278 686.422 342.906 684.735 342.906H647.369C631.83 342.906 624.773 366.207 622.262 401.985ZM623.95 402.101C626.672 363.412 634.341 344.594 647.369 344.594H684.735C685.494 344.594 686.106 345.206 686.106 345.965V383.432C686.106 384.36 685.346 385.119 684.418 385.119H668.447C656.389 385.119 645.47 392.239 640.607 403.262C640.217 404.158 639.331 404.728 638.36 404.728H626.408C625.722 404.728 625.079 404.443 624.604 403.937C624.129 403.431 623.897 402.777 623.95 402.101Z" fill="#ACD5EC"/>
    <path d="M671.57 399.981H685.832C686.908 399.981 687.784 399.106 687.784 398.03C687.784 396.954 686.908 396.079 685.832 396.079H671.57C670.494 396.079 669.618 396.954 669.618 398.03C669.618 399.106 670.494 399.981 671.57 399.981Z" fill="#FFC700"/>
    <path d="M572.523 474.745V464.851C572.523 461.402 575.013 458.554 578.283 457.963V457.837H579.539H588.062H607.842V477.878H617.99C620.596 477.878 626.757 482.54 625.428 484.924C625.227 485.282 624.995 485.599 624.742 485.915C624.679 485.989 624.626 486.063 624.552 486.126C624.52 486.168 624.478 486.189 624.446 486.232C624.33 486.358 624.204 486.464 624.077 486.58C623.961 486.696 623.856 486.812 623.729 486.917C623.719 486.928 623.719 486.928 623.708 486.938C623.539 487.075 623.349 487.17 623.17 487.286C623.022 487.381 622.885 487.487 622.738 487.571C622.706 487.582 622.685 487.613 622.653 487.624C622.621 487.645 622.59 487.656 622.558 487.666C622.358 487.772 622.136 487.824 621.925 487.909C621.651 488.014 621.387 488.151 621.092 488.225C620.543 488.373 619.974 488.457 619.383 488.457H617.22H607.842H598.854H595.478H578.325H578.283V488.447C577.598 488.447 576.933 488.331 576.321 488.12C576.1 488.046 575.931 487.898 575.73 487.803C575.34 487.613 574.939 487.455 574.612 487.191C574.412 487.033 574.275 486.812 574.095 486.632C573.821 486.358 573.536 486.105 573.325 485.778C573.177 485.546 573.125 485.282 573.009 485.029C572.861 484.702 572.671 484.407 572.597 484.048C572.597 484.027 572.597 484.006 572.597 483.985C572.587 483.953 572.576 483.932 572.566 483.911C572.576 483.89 572.587 483.89 572.597 483.869C572.566 483.31 572.523 475.536 572.523 474.745Z" fill="#3F4254"/>
    <path d="M651.2 473.859C650.229 476.274 647.898 477.867 645.292 477.867H639.796C642.402 477.867 644.733 476.274 645.703 473.859C654.902 450.991 658.426 433.576 683.775 433.618H689.272C663.932 433.576 660.398 450.991 651.2 473.859Z" fill="#181C32"/>
    <path d="M688.048 446.74L706.794 446.845C711.288 446.74 713.935 447.911 714.284 448.027C715.085 448.29 715.855 448.638 716.583 449.05C718.345 450.062 720.043 451.339 721.668 452.91C726.552 457.604 730.814 464.893 734.306 475.388C734.517 476.032 734.823 476.622 735.182 477.16C735.35 477.413 735.572 477.614 735.762 477.835C735.983 478.088 736.184 478.373 736.437 478.595C736.595 478.732 740.72 480.251 740.889 480.356C740.889 480.356 735.614 480.588 734.496 480.367C734.38 480.346 734.274 480.282 734.158 480.251C734.158 480.261 734.169 480.272 734.169 480.282C733.979 480.24 733.81 480.135 733.631 480.082C733.24 479.955 732.861 479.839 732.491 479.649C732.27 479.533 732.091 479.386 731.88 479.249C731.553 479.038 731.226 478.848 730.941 478.595C730.688 478.373 730.487 478.099 730.266 477.835C730.076 477.614 729.854 477.413 729.685 477.16C729.327 476.622 729.031 476.032 728.81 475.388C725.318 464.893 721.056 457.615 716.172 452.91C714.547 451.349 712.849 450.073 711.087 449.05C710.37 448.638 709.6 448.29 708.787 448.027C708.439 447.911 705.791 446.74 701.298 446.845L687.404 446.772C687.626 446.761 687.816 446.74 688.048 446.74Z" fill="#181C32"/>
    <path d="M599.825 474.745V464.851C599.825 460.98 602.969 457.837 606.851 457.837H615.375C617.885 457.837 620.059 459.598 620.575 462.045L623.339 475.114C623.677 476.728 625.101 477.878 626.757 477.878H645.303C647.908 477.878 650.24 476.285 651.21 473.87C660.409 451.002 663.933 433.587 689.282 433.629H712.933C717.649 433.787 720.803 436.351 720.803 436.351C730.16 443.059 735.952 454.103 742.524 477.635C742.956 479.196 741.585 480.683 739.992 480.367C739.876 480.346 739.771 480.283 739.655 480.251C739.655 480.262 739.665 480.272 739.665 480.283C739.475 480.24 739.306 480.135 739.127 480.082C738.737 479.956 738.357 479.84 737.988 479.65C737.766 479.534 737.587 479.386 737.376 479.249C737.049 479.038 736.722 478.848 736.437 478.595C736.184 478.373 735.983 478.099 735.762 477.836C735.572 477.614 735.35 477.414 735.182 477.16C734.823 476.623 734.528 476.032 734.306 475.388C730.814 464.893 726.552 457.615 721.668 452.911C720.044 451.35 718.345 450.073 716.584 449.05C715.866 448.639 715.096 448.291 714.284 448.027C713.936 447.911 711.288 446.74 706.794 446.846L688.048 446.74C681.339 446.751 677.805 448.945 673.933 450.928C664.26 455.906 661.548 466.254 656.274 477.846C655.219 480.167 654.059 482.529 652.729 484.913C652.529 485.272 652.297 485.588 652.044 485.905C651.98 485.979 651.917 486.052 651.864 486.116C651.833 486.158 651.79 486.179 651.759 486.221C651.643 486.348 651.516 486.453 651.39 486.569C651.274 486.685 651.168 486.801 651.041 486.907C651.031 486.917 651.031 486.917 651.02 486.928C650.852 487.065 650.662 487.16 650.482 487.276C650.335 487.371 650.198 487.476 650.05 487.561C650.018 487.571 649.997 487.603 649.965 487.613C649.934 487.635 649.902 487.645 649.871 487.656C649.67 487.761 649.449 487.814 649.238 487.898C648.963 488.004 648.7 488.141 648.404 488.215C647.856 488.362 647.286 488.447 646.695 488.447H644.533H626.166H622.791H605.638C604.931 488.447 604.256 488.331 603.633 488.109C603.422 488.035 603.243 487.888 603.043 487.793C602.652 487.603 602.252 487.445 601.924 487.181C601.724 487.023 601.587 486.801 601.408 486.622C601.133 486.348 600.848 486.095 600.637 485.768C600.49 485.536 600.437 485.272 600.321 485.019C600.173 484.692 599.983 484.396 599.91 484.038C599.91 484.017 599.91 483.995 599.91 483.974C599.899 483.943 599.888 483.922 599.878 483.901C599.888 483.88 599.899 483.879 599.91 483.858C599.867 483.31 599.825 475.536 599.825 474.745Z" fill="#3F4254"/>
    <path d="M593.949 462.467C593.959 462.425 594.529 462.351 594.529 462.351H604.624C607.842 462.351 610.448 464.957 610.448 468.174C610.448 471.391 607.842 473.996 604.624 473.996H594.529L593.506 473.722C592.778 473.342 592.261 472.604 592.261 471.728V464.619C592.261 463.575 592.989 462.731 593.949 462.467Z" fill="#4FD8FF"/>
    <path d="M595.657 473.986H598.59L608.622 463.933C608.095 463.438 607.493 463.047 606.808 462.773L595.657 473.986Z" fill="white"/>
    <path d="M603.211 473.986L610.31 466.887C610.236 466.57 610.141 466.264 610.025 465.98L602.019 473.986H603.211Z" fill="white"/>
    <path d="M609.952 470.515L606.967 473.49C608.307 472.91 609.372 471.844 609.952 470.515Z" fill="white"/>
    <path d="M596.428 462.351L592.261 466.539V471.718C592.261 472.498 592.672 473.173 593.273 473.574L604.466 462.341H596.428V462.351Z" fill="white"/>
    <path d="M572.523 464.84C572.523 463.965 572.682 463.131 572.977 462.361C573.431 462.361 577.608 462.182 578.674 462.467C579.634 462.731 580.361 463.575 580.361 464.619V471.728C580.361 472.604 579.845 473.342 579.117 473.722L578.093 473.996H572.523V464.84Z" fill="#4FD8FF"/>
    <path d="M578.484 462.425C577.745 462.298 576.195 462.288 574.918 462.309L572.534 464.608C572.534 464.682 572.523 464.756 572.523 464.83V468.479L578.484 462.425Z" fill="white"/>
    <path d="M580.351 464.619C580.351 464.239 580.256 463.891 580.087 463.585L572.513 471.138V473.986H572.66L580.351 466.254V464.619V464.619Z" fill="white"/>
    <path d="M577.292 473.986L580.351 470.937V469.735L576.1 473.986H577.292Z" fill="white"/>
    <path opacity="0.5" d="M579.117 473.711C579.845 473.331 580.361 472.593 580.361 471.718V464.608C580.361 463.564 579.634 462.72 578.674 462.457C577.608 462.172 573.431 462.351 572.977 462.351C572.682 463.121 572.523 463.954 572.523 464.83V473.975H578.093L579.117 473.711Z" fill="#4C82A4"/>
    <path d="M626.156 349.963C620.005 362.051 617.337 380.352 614.562 398.22C614.362 399.517 613.233 400.477 611.914 400.477H609.709H582.408C585.763 379.276 589.582 356.714 597.926 345.058H625.196C625.196 345.058 627.822 346.683 626.156 349.963Z" fill="#4FD8FF"/>
    <path d="M626.156 349.963C627.822 346.683 625.196 345.058 625.196 345.058H617.632L586.807 375.668C585.109 383.653 583.716 392.165 582.408 400.477H594.635L618.107 376.818C620.058 366.597 622.495 357.167 626.156 349.963Z" fill="white"/>
    <path d="M605.174 400.477H609.71H611.915C613.233 400.477 614.352 399.517 614.563 398.22C614.995 395.435 615.428 392.64 615.871 389.855L605.174 400.477Z" fill="white"/>
    <path d="M592.841 354.699C591.871 357.115 590.974 359.709 590.141 362.452L607.167 345.069H602.441L592.841 354.699Z" fill="white"/>
    <path opacity="0.3" d="M625.196 345.058H597.926C591.417 354.14 587.662 369.867 584.74 386.406C584.729 386.448 584.729 386.491 584.718 386.533C584.613 387.123 584.507 387.714 584.413 388.294C584.391 388.4 584.381 388.505 584.36 388.611C584.265 389.159 584.17 389.718 584.075 390.277C584.054 390.414 584.033 390.551 584.001 390.689C583.906 391.226 583.822 391.775 583.727 392.313C583.706 392.45 583.685 392.587 583.653 392.735C583.558 393.283 583.474 393.832 583.379 394.38C583.358 394.496 583.337 394.612 583.326 394.728C583.01 396.648 582.704 398.568 582.408 400.477H609.709H609.72C613.075 379.286 616.883 356.735 625.227 345.079C625.206 345.069 625.196 345.058 625.196 345.058Z" fill="#8FC1DD"/>
    <path d="M605.584 411.816H606.302C609.087 411.816 611.344 414.073 611.344 416.858V449.061C611.344 450.748 609.973 452.12 608.285 452.12H605.584H578.272V411.816H605.584V411.816Z" fill="#3F4254"/>
    <path d="M578.283 414.738H605.595C606.84 414.738 607.842 415.74 607.842 416.985V420.539C607.842 420.761 607.663 420.94 607.441 420.94H605.595H603.749H580.129H578.283H576.437C576.216 420.94 576.036 420.761 576.036 420.539V416.985C576.026 415.74 577.038 414.738 578.283 414.738Z" fill="#181C32"/>
    <path d="M578.283 424.051H605.595C606.84 424.051 607.842 425.053 607.842 426.298V429.853C607.842 430.074 607.663 430.254 607.441 430.254H605.595H603.749H580.129H578.283H576.437C576.216 430.254 576.036 430.074 576.036 429.853V426.298C576.026 425.053 577.038 424.051 578.283 424.051Z" fill="#181C32"/>
    <path d="M578.283 433.355H605.595C606.84 433.355 607.842 434.357 607.842 435.602V439.156C607.842 439.378 607.663 439.557 607.441 439.557H605.595H603.749H580.129H578.283H576.437C576.216 439.557 576.036 439.378 576.036 439.156V435.602C576.026 434.367 577.038 433.355 578.283 433.355Z" fill="#181C32"/>
    <path d="M578.283 442.669H605.595C606.84 442.669 607.842 443.671 607.842 444.916V448.47C607.842 448.692 607.663 448.871 607.441 448.871H605.595H603.749H580.129H578.283H576.437C576.216 448.871 576.036 448.692 576.036 448.47V444.916C576.026 443.671 577.038 442.669 578.283 442.669Z" fill="#181C32"/>
    <path d="M606.313 411.816C609.098 411.816 611.356 414.073 611.356 416.858V449.061C611.356 450.748 609.984 452.12 608.296 452.12H605.596V411.816H606.313V411.816Z" fill="#5E6278"/>
    <path d="M603.443 420.539V416.984C603.443 415.761 604.424 414.78 605.638 414.748C606.851 414.78 607.832 415.761 607.832 416.984V420.539C607.832 420.761 607.652 420.94 607.431 420.94H605.69H605.585H603.844C603.623 420.94 603.443 420.761 603.443 420.539Z" fill="#3F4254"/>
    <path d="M603.443 429.853V426.298C603.443 425.075 604.424 424.094 605.638 424.062C606.851 424.094 607.832 425.075 607.832 426.298V429.853C607.832 430.074 607.652 430.254 607.431 430.254H605.69H605.585H603.844C603.623 430.254 603.443 430.074 603.443 429.853Z" fill="#3F4254"/>
    <path d="M603.443 439.156V435.601C603.443 434.378 604.424 433.397 605.638 433.365C606.851 433.397 607.832 434.378 607.832 435.601V439.156C607.832 439.378 607.652 439.557 607.431 439.557H605.69H605.585H603.844C603.623 439.567 603.443 439.388 603.443 439.156Z" fill="#3F4254"/>
    <path d="M603.443 448.47V444.915C603.443 443.692 604.424 442.711 605.638 442.679C606.851 442.711 607.832 443.692 607.832 444.915V448.47C607.832 448.691 607.652 448.871 607.431 448.871H605.69H605.585H603.844C603.623 448.871 603.443 448.691 603.443 448.47Z" fill="#3F4254"/>
    <path d="M742.84 468.026C742.84 478.922 744.559 487.761 746.68 487.761C748.8 487.761 750.52 478.922 750.52 468.026C750.52 457.13 748.8 448.291 746.68 448.291C744.559 448.291 742.84 457.119 742.84 468.026Z" fill="#3D7EA0"/>
    <g opacity="0.5">
    <path opacity="0.5" d="M746.68 479.217H749.834H823.625C822.929 484.375 821.779 487.761 820.471 487.761H746.68C745.371 487.761 744.211 484.375 743.525 479.217H746.68Z" fill="#8FC1DD"/>
    </g>
    <g opacity="0.5">
    <path opacity="0.5" d="M746.68 448.291H820.471C821.811 448.291 822.982 451.803 823.668 457.119H749.876H746.68H743.483C744.169 451.803 745.34 448.291 746.68 448.291Z" fill="#8FC1DD"/>
    </g>
    <path opacity="0.5" d="M599.824 464.84C599.824 463.965 599.993 463.121 600.289 462.351H594.529C594.529 462.351 593.959 462.436 593.949 462.467C592.989 462.731 592.261 463.575 592.261 464.619V471.728C592.261 472.604 592.778 473.342 593.506 473.722L594.529 473.996H599.824V464.84Z" fill="#4C82A4"/>
    <path d="M1228.11 340.726H1253.25V328.523H1228.11V340.726Z" fill="#F7CE83"/>
    <path d="M1202.98 340.726H1228.12V328.523H1202.98V340.726Z" fill="#E6B35C"/>
    <path d="M1253.26 340.396H1228.12V341.05H1253.26V340.396Z" fill="#C29750"/>
    <path d="M1228.12 340.396H1202.99V341.05H1228.12V340.396Z" fill="#B38840"/>
    <path d="M1199.56 340.726H1224.7V328.523H1199.56V340.726Z" fill="#F7CE83"/>
    <path d="M1174.42 340.726H1199.56V328.523H1174.42V340.726Z" fill="#E6B35C"/>
    <path d="M1208.62 337.678H1224.7V331.571H1208.62V337.678Z" fill="#F7F1E5"/>
    <path d="M1213.17 337.678H1216.67V331.571H1213.17V337.678Z" fill="#C29750"/>
    <path d="M1208.63 337.678H1212.28V331.571H1208.63V337.678Z" fill="#C29750"/>
    <path d="M1224.71 340.396H1199.57V341.05H1224.71V340.396Z" fill="#C29750"/>
    <path d="M1199.57 340.396H1174.43V341.05H1199.57V340.396Z" fill="#B38840"/>
    <path d="M1251.75 484.199C1251.78 466.612 1237.54 452.33 1219.94 452.3C1202.34 452.271 1188.04 466.503 1188.01 484.09C1187.98 501.677 1202.23 515.959 1219.83 515.989C1237.43 516.019 1251.72 501.786 1251.75 484.199Z" fill="#0D2633"/>
    <path d="M1258.2 484.197C1258.23 466.61 1243.98 452.329 1226.38 452.299C1208.78 452.269 1194.49 466.502 1194.46 484.089C1194.43 501.676 1208.67 515.957 1226.27 515.987C1243.87 516.017 1258.17 501.784 1258.2 484.197Z" fill="#113040"/>
    <path d="M1151.75 452.299C1169.35 452.299 1183.62 466.56 1183.62 484.143C1183.62 501.726 1169.34 515.987 1151.75 515.987C1134.15 515.987 1119.88 501.726 1119.88 484.143C1119.88 466.56 1134.14 452.299 1151.75 452.299Z" fill="#0D2633"/>
    <path d="M1158.19 452.299C1175.8 452.299 1190.06 466.56 1190.06 484.143C1190.06 501.726 1175.79 515.987 1158.19 515.987C1140.59 515.987 1126.32 501.726 1126.32 484.143C1126.32 466.56 1140.59 452.299 1158.19 452.299Z" fill="#113040"/>
    <path d="M1125.28 448.502H1134.15C1125.47 456.392 1116.19 467.72 1116.19 480.346C1116.19 480.979 1115.94 483.437 1117.53 483.964C1117.53 483.964 1113.98 483.964 1112.45 483.964C1111.8 483.964 1111.25 483.458 1111.21 482.814C1111.15 482.002 1111.11 481.179 1111.11 480.357C1111.11 467.72 1116.6 456.381 1125.28 448.502Z" fill="#0D2633"/>
    <path d="M1128.61 450.168C1129.7 449.061 1131.22 448.502 1132.77 448.502H1141.45C1134.78 452.215 1129.38 457.911 1126.12 464.841C1125 467.214 1124.14 469.724 1123.55 472.34C1122.99 474.492 1122.75 476.939 1122.65 479.027C1122.63 479.565 1122.5 480.061 1122.34 480.536C1122.3 480.61 1122.29 480.683 1122.26 480.757C1122.07 481.221 1121.82 481.643 1121.52 482.023C1121.49 482.065 1121.45 482.107 1121.42 482.15C1120.48 483.257 1119.1 483.974 1117.54 483.974C1116.88 483.974 1116.33 483.468 1116.29 482.825C1116.24 482.012 1116.2 481.19 1116.2 480.367C1116.19 468.585 1120.94 457.942 1128.61 450.168Z" fill="#113040"/>
    <path d="M1228.11 328.187H1253.25V315.983H1228.11V328.187Z" fill="#F7CE83"/>
    <path d="M1202.98 328.187H1228.12V315.983H1202.98V328.187Z" fill="#E6B35C"/>
    <path d="M1253.26 327.865H1228.12V328.519H1253.26V327.865Z" fill="#C29750"/>
    <path d="M1228.12 327.865H1202.99V328.519H1228.12V327.865Z" fill="#B38840"/>
    <path d="M1199.56 328.187H1224.7V315.983H1199.56V328.187Z" fill="#F7CE83"/>
    <path d="M1174.42 328.187H1199.56V315.983H1174.42V328.187Z" fill="#E6B35C"/>
    <path d="M1208.62 325.139H1224.7V319.031H1208.62V325.139Z" fill="#F7F1E5"/>
    <path d="M1213.17 325.139H1216.67V319.031H1213.17V325.139Z" fill="#C29750"/>
    <path d="M1208.63 325.139H1212.28V319.031H1208.63V325.139Z" fill="#C29750"/>
    <path d="M1224.71 327.865H1199.57V328.519H1224.71V327.865Z" fill="#C29750"/>
    <path d="M1199.57 327.865H1174.43V328.519H1199.57V327.865Z" fill="#B38840"/>
    <path d="M1154.67 340.726H1179.81V328.523H1154.67V340.726Z" fill="#F7CE83"/>
    <path d="M1129.54 340.726H1154.67V328.523H1129.54V340.726Z" fill="#E6B35C"/>
    <path d="M1163.74 337.678H1179.81V331.571H1163.74V337.678Z" fill="#F7F1E5"/>
    <path d="M1168.27 337.678H1171.77V331.571H1168.27V337.678Z" fill="#C29750"/>
    <path d="M1163.74 337.678H1167.39V331.571H1163.74V337.678Z" fill="#C29750"/>
    <path d="M1179.82 340.396H1154.68V341.05H1179.82V340.396Z" fill="#C29750"/>
    <path d="M1154.68 340.396H1129.54V341.05H1154.68V340.396Z" fill="#B38840"/>
    <path d="M1126.12 340.726H1151.26V328.523H1126.12V340.726Z" fill="#F7CE83"/>
    <path d="M1100.98 340.726H1126.12V328.523H1100.98V340.726Z" fill="#E6B35C"/>
    <path d="M1135.18 337.678H1151.26V331.571H1135.18V337.678Z" fill="#F7F1E5"/>
    <path d="M1139.72 337.678H1143.22V331.571H1139.72V337.678Z" fill="#C29750"/>
    <path d="M1135.18 337.678H1138.83V331.571H1135.18V337.678Z" fill="#C29750"/>
    <path d="M1151.26 340.396H1126.12V341.05H1151.26V340.396Z" fill="#C29750"/>
    <path d="M1126.12 340.396H1100.98V341.05H1126.12V340.396Z" fill="#B38840"/>
    <path d="M1154.67 328.187H1179.81V315.983H1154.67V328.187Z" fill="#F7CE83"/>
    <path d="M1129.54 328.187H1154.67V315.983H1129.54V328.187Z" fill="#E6B35C"/>
    <path d="M1163.74 325.139H1179.81V319.032H1163.74V325.139Z" fill="#F7F1E5"/>
    <path d="M1168.27 325.139H1171.77V319.032H1168.27V325.139Z" fill="#C29750"/>
    <path d="M1163.74 325.139H1167.39V319.032H1163.74V325.139Z" fill="#C29750"/>
    <path d="M1179.82 327.865H1154.68V328.519H1179.82V327.865Z" fill="#C29750"/>
    <path d="M1154.68 327.865H1129.54V328.519H1154.68V327.865Z" fill="#B38840"/>
    <path d="M1126.12 328.187H1151.26V315.983H1126.12V328.187Z" fill="#F7CE83"/>
    <path d="M1100.98 328.187H1126.12V315.983H1100.98V328.187Z" fill="#E6B35C"/>
    <path d="M1135.18 325.139H1151.26V319.031H1135.18V325.139Z" fill="#F7F1E5"/>
    <path d="M1139.72 325.139H1143.22V319.031H1139.72V325.139Z" fill="#C29750"/>
    <path d="M1135.18 325.139H1138.83V319.031H1135.18V325.139Z" fill="#C29750"/>
    <path d="M1151.26 327.865H1126.12V328.519H1151.26V327.865Z" fill="#C29750"/>
    <path d="M1126.12 327.865H1100.98V328.519H1126.12V327.865Z" fill="#B38840"/>
    <path d="M1197.62 476.717H1332.16C1354.47 476.717 1373.69 461.012 1378.11 439.156H1151.66C1156.08 461.012 1175.3 476.717 1197.62 476.717Z" fill="#113040"/>
    <path d="M1031.79 464.292H1223.91V439.188H975.069C989.585 455.179 1010.19 464.292 1031.79 464.292Z" fill="#0D2633"/>
    <path d="M1072.35 464.672H1264.48V439.568H1015.63C1030.15 455.558 1050.75 464.672 1072.35 464.672Z" fill="#113040"/>
    <path d="M1129.82 458.895H1154.67V451.743H1129.82V458.895Z" fill="#C8A997"/>
    <path d="M1242.06 484.215C1242.1 466.628 1227.86 452.338 1210.26 452.298C1192.66 452.259 1178.36 466.483 1178.32 484.07C1178.28 501.657 1192.51 515.947 1210.11 515.987C1227.72 516.027 1242.02 501.802 1242.06 484.215Z" fill="#181C32"/>
    <path d="M1248.5 484.213C1248.54 466.626 1234.3 452.337 1216.7 452.297C1199.1 452.257 1184.8 466.482 1184.76 484.069C1184.72 501.656 1198.96 515.945 1216.56 515.985C1234.16 516.025 1248.46 501.8 1248.5 484.213Z" fill="#3F4254"/>
    <path d="M1216.62 505.197C1228.26 505.197 1237.69 495.771 1237.69 484.143C1237.69 472.516 1228.26 463.09 1216.62 463.09C1204.99 463.09 1195.56 472.516 1195.56 484.143C1195.56 495.771 1204.99 505.197 1216.62 505.197Z" fill="#CFE8F6"/>
    <path d="M1216.62 498.721C1224.68 498.721 1231.21 492.194 1231.21 484.143C1231.21 476.093 1224.68 469.566 1216.62 469.566C1208.57 469.566 1202.03 476.093 1202.03 484.143C1202.03 492.194 1208.57 498.721 1216.62 498.721Z" fill="#ACD5EC"/>
    <path d="M1216.62 477.129C1220.49 477.129 1223.65 480.272 1223.65 484.144C1223.65 488.015 1220.49 491.158 1216.62 491.158C1212.75 491.158 1209.6 488.015 1209.6 484.144C1209.6 480.272 1212.75 477.129 1216.62 477.129Z" fill="#CFE8F6"/>
    <path d="M1183.72 448.502H1192.59C1183.91 456.392 1174.63 467.72 1174.63 480.346C1174.63 480.979 1174.39 483.437 1175.97 483.964C1175.97 483.964 1172.42 483.964 1170.89 483.964C1170.24 483.964 1169.69 483.458 1169.65 482.814C1169.6 482.002 1169.55 481.179 1169.55 480.357C1169.55 467.72 1175.04 456.381 1183.72 448.502Z" fill="#181C32"/>
    <path d="M1187.04 450.168C1188.13 449.061 1189.65 448.502 1191.2 448.502H1199.88C1193.22 452.215 1187.81 457.911 1184.55 464.841C1183.44 467.214 1182.57 469.724 1181.98 472.34C1181.42 474.492 1181.18 476.939 1181.08 479.027C1181.06 479.565 1180.94 480.061 1180.77 480.536C1180.74 480.61 1180.73 480.683 1180.69 480.757C1180.5 481.221 1180.25 481.643 1179.96 482.023C1179.92 482.065 1179.88 482.107 1179.85 482.15C1178.91 483.257 1177.53 483.974 1175.97 483.974C1175.31 483.974 1174.77 483.468 1174.72 482.825C1174.67 482.012 1174.63 481.19 1174.63 480.367C1174.63 468.585 1179.38 457.942 1187.04 450.168Z" fill="#3F4254"/>
    <path d="M1122.62 439.162V477.504H1129.32V439.162H1122.62Z" fill="#3D7EA0"/>
    <path d="M957.829 464.755H961.236V452.118H957.829V464.755Z" fill="#183442"/>
    <path d="M957.829 483.822H961.236V471.185H957.829V483.822Z" fill="#183442"/>
    <path d="M1124.63 437.92V477.506H1131.34V437.92H1124.63Z" fill="#8FC1DD"/>
    <path d="M982.328 438.985V477.506H989.037V438.985H982.328Z" fill="#3D7EA0"/>
    <path d="M984.344 437.924V477.51H991.053V437.924H984.344Z" fill="#8FC1DD"/>
    <path d="M961.232 464.759H1154.67V452.007H961.232V464.759Z" fill="#ACD5EC"/>
    <path d="M961.232 483.885H1154.67V471.133H961.232V483.885Z" fill="#ACD5EC"/>
    <path d="M746.68 292.857V439.188H1448V292.857H746.68ZM754.275 300.451H1440.39V431.593H754.275V300.451Z" fill="#FFC700"/>
    <path d="M1013.43 436.351C1013.43 436.351 1021.27 440.148 1017.6 449.072C1013.94 457.995 1009.5 446.53 1009.5 446.53L1013.43 436.351Z" fill="#F4F4F4"/>
    <path d="M986.421 480.937C985.873 481.58 985.071 481.95 984.227 481.95H945.406C944.414 481.95 943.475 481.507 942.853 480.747L938.032 474.925H936.102L937.969 470.99H983.478C985.113 470.99 986.643 471.824 987.539 473.195L989.892 476.823L986.421 480.937Z" fill="#524533"/>
    <path d="M985.535 479.07L1000.11 422.396C1001.68 416.331 1007.14 412.091 1013.41 412.091H1026C1030.82 412.091 1034.86 415.73 1035.36 420.529L1041.44 479.555C1041.64 481.517 1040.1 483.226 1038.12 483.226H988.763C986.59 483.226 984.997 481.18 985.535 479.07ZM1038.28 476.728L1032.52 420.708C1032.18 417.428 1029.42 414.939 1026.12 414.939H1013.6C1008.51 414.939 1004.08 418.377 1002.81 423.293L989.195 476.243C988.657 478.353 990.24 480.399 992.424 480.399H1034.97C1036.94 480.389 1038.48 478.69 1038.28 476.728Z" fill="#4F4533"/>
    <path opacity="0.8" d="M872.014 429.542H978.16V422.612H872.014V429.542Z" fill="#6E562C"/>
    <path d="M978.151 429.54H987.498V418.359H978.151V429.54Z" fill="#C29750"/>
    <path d="M949.26 429.54H958.606V418.359H949.26V429.54Z" fill="#C29750"/>
    <path d="M982.825 429.54H992.172V418.359H982.825V429.54Z" fill="#F7CE83"/>
    <path d="M953.934 429.54H963.28V418.359H953.934V429.54Z" fill="#F7CE83"/>
    <path d="M925.032 429.54H934.379V418.359H925.032V429.54Z" fill="#F7CE83"/>
    <path d="M915.786 429.54H925.133V418.359H915.786V429.54Z" fill="#E6B664"/>
    <path d="M891.558 429.54H900.904V418.359H891.558V429.54Z" fill="#B38840"/>
    <path d="M862.666 429.54H872.013V418.359H862.666V429.54Z" fill="#B38840"/>
    <path d="M925.139 422.61H992.179V418.359H925.139V422.61Z" fill="#F7CE83"/>
    <path d="M858.042 422.61H925.082V418.359H858.042V422.61Z" fill="#E6B35C"/>
    <path d="M886.884 429.54H896.23V418.359H886.884V429.54Z" fill="#E6B35C"/>
    <path d="M857.992 429.54H867.339V418.359H857.992V429.54Z" fill="#E6B35C"/>
    <path d="M951.161 363.591H987.503V345.944H951.161V363.591Z" fill="#F7CE83"/>
    <path d="M914.83 363.591H951.161V345.944H914.83V363.591Z" fill="#E6B35C"/>
    <path d="M964.263 359.171H987.503V350.343H964.263V359.171Z" fill="#F7F1E5"/>
    <path d="M970.821 359.171H975.885V350.343H970.821V359.171Z" fill="#C29750"/>
    <path d="M964.269 359.171H969.544V350.343H964.269V359.171Z" fill="#C29750"/>
    <path d="M987.506 363.117H951.164V364.066H987.506V363.117Z" fill="#C29750"/>
    <path d="M951.164 363.117H914.833V364.066H951.164V363.117Z" fill="#B38840"/>
    <path d="M902.317 363.591H938.659V345.944H902.317V363.591Z" fill="#F7CE83"/>
    <path d="M865.996 363.591H902.327V345.944H865.996V363.591Z" fill="#E6B35C"/>
    <path d="M915.418 359.171H938.658V350.343H915.418V359.171Z" fill="#F7F1E5"/>
    <path d="M921.977 359.171H927.041V350.343H921.977V359.171Z" fill="#C29750"/>
    <path d="M915.426 359.171H920.7V350.343H915.426V359.171Z" fill="#C29750"/>
    <path d="M938.664 363.117H902.322V364.066H938.664V363.117Z" fill="#C29750"/>
    <path d="M902.312 363.117H865.98V364.066H902.312V363.117Z" fill="#B38840"/>
    <path d="M951.161 381.708H987.503V364.061H951.161V381.708Z" fill="#F7CE83"/>
    <path d="M914.83 381.708H951.161V364.061H914.83V381.708Z" fill="#E6B35C"/>
    <path d="M964.263 377.299H987.503V368.47H964.263V377.299Z" fill="#F7F1E5"/>
    <path d="M970.821 377.299H975.885V368.47H970.821V377.299Z" fill="#C29750"/>
    <path d="M964.269 377.299H969.544V368.47H964.269V377.299Z" fill="#C29750"/>
    <path d="M987.506 381.228H951.164V382.177H987.506V381.228Z" fill="#C29750"/>
    <path d="M951.164 381.228H914.833V382.177H951.164V381.228Z" fill="#B38840"/>
    <path d="M951.162 399.824H987.504V382.178H951.162V399.824Z" fill="#F7CE83"/>
    <path d="M914.83 399.824H951.161V382.178H914.83V399.824Z" fill="#E6B35C"/>
    <path d="M964.263 395.415H987.503V386.587H964.263V395.415Z" fill="#F7F1E5"/>
    <path d="M970.821 395.415H975.885V386.587H970.821V395.415Z" fill="#C29750"/>
    <path d="M964.269 395.415H969.544V386.587H964.269V395.415Z" fill="#C29750"/>
    <path d="M987.506 399.349H951.164V400.298H987.506V399.349Z" fill="#C29750"/>
    <path d="M951.164 399.349H914.833V400.298H951.164V399.349Z" fill="#B38840"/>
    <path d="M951.161 417.942H987.503V400.295H951.161V417.942Z" fill="#F7CE83"/>
    <path d="M914.83 417.942H951.161V400.295H914.83V417.942Z" fill="#E6B35C"/>
    <path d="M964.263 413.532H987.503V404.704H964.263V413.532Z" fill="#F7F1E5"/>
    <path d="M970.821 413.532H975.885V404.704H970.821V413.532Z" fill="#C29750"/>
    <path d="M964.269 413.532H969.544V404.704H964.269V413.532Z" fill="#C29750"/>
    <path d="M987.506 417.47H951.164V418.42H987.506V417.47Z" fill="#C29750"/>
    <path d="M951.164 417.47H914.833V418.42H951.164V417.47Z" fill="#B38840"/>
    <path d="M902.317 381.708H938.659V364.061H902.317V381.708Z" fill="#F7CE83"/>
    <path d="M865.996 381.708H902.327V364.061H865.996V381.708Z" fill="#E6B35C"/>
    <path d="M915.418 377.299H938.658V368.47H915.418V377.299Z" fill="#F7F1E5"/>
    <path d="M921.977 377.299H927.041V368.47H921.977V377.299Z" fill="#C29750"/>
    <path d="M915.426 377.299H920.7V368.47H915.426V377.299Z" fill="#C29750"/>
    <path d="M938.664 381.228H902.322V382.177H938.664V381.228Z" fill="#C29750"/>
    <path d="M902.312 381.228H865.98V382.177H902.312V381.228Z" fill="#B38840"/>
    <path d="M902.317 399.824H938.659V382.178H902.317V399.824Z" fill="#F7CE83"/>
    <path d="M865.996 399.824H902.327V382.178H865.996V399.824Z" fill="#E6B35C"/>
    <path d="M915.418 395.415H938.658V386.587H915.418V395.415Z" fill="#F7F1E5"/>
    <path d="M921.977 395.415H927.041V386.587H921.977V395.415Z" fill="#C29750"/>
    <path d="M915.426 395.415H920.7V386.587H915.426V395.415Z" fill="#C29750"/>
    <path d="M938.664 399.349H902.322V400.298H938.664V399.349Z" fill="#C29750"/>
    <path d="M902.312 399.349H865.98V400.298H902.312V399.349Z" fill="#B38840"/>
    <path d="M902.317 417.942H938.659V400.295H902.317V417.942Z" fill="#F7CE83"/>
    <path d="M865.996 417.942H902.327V400.295H865.996V417.942Z" fill="#E6B35C"/>
    <path d="M915.418 413.532H938.658V404.704H915.418V413.532Z" fill="#F7F1E5"/>
    <path d="M921.977 413.532H927.041V404.704H921.977V413.532Z" fill="#C29750"/>
    <path d="M915.426 413.532H920.7V404.704H915.426V413.532Z" fill="#C29750"/>
    <path d="M938.664 417.47H902.322V418.42H938.664V417.47Z" fill="#C29750"/>
    <path d="M902.312 417.47H865.98V418.42H902.312V417.47Z" fill="#B38840"/>
    <path d="M928.795 434.419H986.826V427.563H928.795V434.419Z" fill="#DA7300"/>
    <path d="M928.795 391.674H986.826V389.649H928.795V391.674Z" fill="#C3B126"/>
    <path d="M928.795 410.64H986.826V408.615H928.795V410.64Z" fill="#C3B126"/>
    <path d="M981.546 389.646V427.566H986.821V389.646H981.546Z" fill="#DA7300"/>
    <path d="M968.358 389.655V427.575H973.633V389.655H968.358Z" fill="#DA7300"/>
    <path d="M955.17 389.654V427.573H960.445V389.654H955.17Z" fill="#DA7300"/>
    <path d="M941.982 389.652V427.572H947.257V389.652H941.982Z" fill="#DA7300"/>
    <path d="M928.794 389.651V427.57H934.069V389.651H928.794Z" fill="#DA7300"/>
    <path d="M930.275 434.419H988.306V427.563H930.275V434.419Z" fill="#FF8F00"/>
    <path d="M930.275 391.674H988.306V389.649H930.275V391.674Z" fill="#FF8F00"/>
    <path d="M930.275 410.64H988.306V408.615H930.275V410.64Z" fill="#FF8F00"/>
    <path d="M983.023 389.647V427.567H988.298V389.647H983.023Z" fill="#FF8F00"/>
    <path d="M969.836 389.656V427.576H975.111V389.656H969.836Z" fill="#FF8F00"/>
    <path d="M956.647 389.655V427.574H961.922V389.655H956.647Z" fill="#FF8F00"/>
    <path d="M943.46 389.653V427.573H948.735V389.653H943.46Z" fill="#FF8F00"/>
    <path d="M930.271 389.651V427.571H935.546V389.651H930.271Z" fill="#FF8F00"/>
    <path d="M975.083 405.885V473.18H980.358V405.885H975.083Z" fill="#4F4533"/>
    <path d="M938.184 405.886V473.182H943.458V405.886H938.184Z" fill="#4F4533"/>
    <path d="M885.18 430.993L928.79 434.421V429.537H885.18V430.993Z" fill="#DA7300"/>
    <path d="M934.953 405.856H979.491V399H934.953V405.856Z" fill="#DA7300"/>
    <path d="M936.994 405.856H981.532V399H936.994V405.856Z" fill="#FF8F00"/>
    <path d="M1007.56 428.05C1007.18 432.364 1009.61 437.142 1009.61 437.142L1005.05 442.152L999.86 441.646L998.404 438.999L998.657 435.275L1000.35 435.317C1000.35 435.317 1002.91 433.609 1002.63 430.191C1002.51 428.472 1007.56 428.05 1007.56 428.05Z" fill="#F9BB91"/>
    <path d="M999.766 434.452C996.443 434.79 991.179 435.929 990.641 441.414C990.103 446.899 992.719 452.753 991.527 457.837C990.335 462.921 986.526 470.632 986.526 470.632C986.526 470.632 993.753 478.005 1007.61 473.954C1007.61 473.954 1011.95 454.177 1014.17 448.618C1016.38 443.059 1013.43 436.351 1013.43 436.351C1013.43 436.351 1010.52 435.855 1010.19 435.781C1010.19 435.781 1009.23 438.186 1007.58 438.619C1005.61 439.135 1003.88 438.798 1002.32 438.049C1000.5 437.184 999.766 434.452 999.766 434.452Z" fill="white"/>
    <path d="M1007.16 440.475C1005.28 442.543 1005.81 443.661 998.942 451.245C998.942 451.245 991.484 456.571 987.496 455.981C986.051 455.77 984.828 456.455 987.212 457.7C989.596 458.945 998.236 458.913 1003.19 454.82C1006.7 451.93 1016.21 448.65 1016.95 443.629C1017.91 436.994 1012.05 435.075 1007.16 440.475Z" fill="#F4F4F4"/>
    <path d="M985.861 455.516C985.376 455.685 984.848 455.749 984.363 455.569C983.139 455.137 982.686 453.744 982.359 452.816C981.958 451.666 980.924 453.08 982.106 454.715C982.106 454.715 980.439 453.565 978.899 454.451C977.422 455.305 977.601 458.459 982.675 457.605H982.686C983.382 457.489 984.099 457.563 984.764 457.795L987.749 458.839C989.057 458.491 989.258 454.251 988.773 454.472L985.861 455.516Z" fill="#F8B403"/>
    <path d="M978.107 455.959C978.234 456.16 978.35 456.318 978.434 456.381C978.941 456.782 980.112 457.299 982.591 456.888C983.393 456.751 984.215 456.835 984.996 457.099L987.718 458.048C988.034 458.048 988.308 458.016 988.551 457.953C988.351 458.407 988.097 458.744 987.76 458.828L984.775 457.784C984.11 457.552 983.393 457.478 982.696 457.594H982.686C979.415 458.153 978.192 457.046 978.107 455.959Z" fill="#E5A006"/>
    <g opacity="0.2">
    <path opacity="0.2" d="M997.096 453.27L997.982 451.878C998.34 451.635 998.615 451.456 998.773 451.35C998.34 451.772 997.613 452.5 997.096 453.27Z" fill="#0A5E77"/>
    <path opacity="0.2" d="M999.143 451.01L999.151 451.002L999.143 451.01Z" fill="#0A5E77"/>
    </g>
    <path d="M962.991 471.001C970.966 470.589 980.618 472.889 985.218 474.155C985.461 473.058 985.872 471.887 986.515 470.632C986.515 470.632 987.38 471.497 990.788 472.678C993.32 472.087 1000.39 465.885 1001.99 460.706C1004.6 452.331 999.438 436.193 995.546 435.359C996.368 435.054 997.223 434.843 998.035 434.695C1010.29 445.011 1004.74 465.759 1004.74 465.759C1014.86 444.758 1011.06 435.94 1011.06 435.94C1012.03 436.108 1013.42 436.351 1013.42 436.351C1013.42 436.351 1016.36 443.059 1014.15 448.618C1011.94 454.177 1007.6 473.954 1007.6 473.954C1007.55 474.123 1006.88 474.492 1005.83 474.967H1007.29C1006.13 487.994 965.269 484.776 965.269 484.776C965.269 484.776 952.104 471.549 962.991 471.001Z" fill="#0A5E77"/>
    <path d="M1007.92 472.593C1005.37 473.595 1002.47 474.408 998.278 473.712C996.453 473.406 992.666 472.309 991.263 471.707C989.3 470.864 987.834 469.925 987.106 469.418C986.769 469.186 985.798 471.243 986.083 471.507C987.286 472.604 992.972 476 998.468 476.348C1003.98 476.697 1005.58 476.116 1007.29 474.988C1007.73 474.798 1008.32 472.688 1007.92 472.593Z" fill="#1C2C27"/>
    <path d="M991.748 485.483L1023.01 486.665L1028.87 458.481C1029.92 453.481 1025.26 448.555 1019.29 448.333L1013.13 448.101C1006.27 447.838 1000.47 451.624 999.006 457.299L991.748 485.483Z" fill="#4F4537"/>
    <path d="M996.537 486.738H1023.28L1029.37 458.618C1030.44 453.629 1026.64 448.924 1021.54 448.924H1016.26C1010.4 448.924 1005.28 452.89 1003.82 458.565L996.537 486.738Z" fill="#72503D"/>
    <path d="M968.94 471.127L977.633 458.512L976.071 457.447L966.735 470.99L968.94 471.127Z" fill="#70513E"/>
    <path d="M971.166 460.674C968.571 455.211 969.035 449.747 972.221 448.228C975.417 446.72 979.943 449.81 982.538 455.274C985.133 460.738 984.669 466.202 981.483 467.721C980.935 467.974 980.354 468.1 979.742 468.1C976.799 468.111 973.318 465.21 971.166 460.674ZM972.622 449.093C969.953 450.359 969.679 455.379 972.01 460.274C974.341 465.178 978.403 468.153 981.072 466.877C983.741 465.611 984.015 460.59 981.684 455.696C979.721 451.561 976.514 448.808 973.962 448.808C973.487 448.797 973.044 448.892 972.622 449.093Z" fill="#70513E"/>
    <path d="M975.175 458.776C975.955 460.411 977.337 461.381 978.255 460.949C979.183 460.506 979.299 458.829 978.519 457.194C977.738 455.559 976.356 454.588 975.438 455.021C974.521 455.453 974.394 457.141 975.175 458.776Z" fill="#70513E"/>
    <path d="M977.781 467.446L978.709 467.309L977.401 458.449H982.865V457.51H976.304L977.781 467.446Z" fill="#70513E"/>
    <path d="M976.472 458.27L977.221 457.689L971.229 449.852L970.48 450.432L976.472 458.27Z" fill="#70513E"/>
    <path d="M953.169 415.603H1043.66C1044.81 415.603 1045.74 414.675 1045.74 413.525V413.515C1045.74 412.365 1044.81 411.437 1043.66 411.437H953.169C952.019 411.437 951.091 412.365 951.091 413.515V413.525C951.091 414.675 952.019 415.603 953.169 415.603Z" fill="#FF8F00"/>
    <path d="M991.304 439.958C988.678 444.758 991.969 446.245 987.043 454.81C987.043 454.81 979.859 457.921 976.314 457.974C975.027 457.995 974.057 458.86 976.304 459.715C978.551 460.569 987.496 462.489 991.231 457.668C993.879 454.261 999.174 445.021 998.583 442.943C997.782 440.138 993.667 435.644 991.304 439.958Z" fill="#F4F4F4"/>
    <path d="M974.711 457.985C974.31 458.227 973.857 458.365 973.414 458.28C972.285 458.048 971.705 456.751 971.293 455.875C970.787 454.799 970.08 456.36 971.335 457.784C971.335 457.784 969.721 456.909 968.508 458.027C967.337 459.103 967.928 462.193 972.232 460.548H972.243C972.833 460.326 973.466 460.284 974.078 460.411L976.821 460.97C977.918 460.421 977.496 456.192 977.106 456.498L974.711 457.985Z" fill="#F8B403"/>
    <path d="M968.034 459.641C968.171 459.82 968.298 459.957 968.372 460.01C968.868 460.326 969.965 460.653 972.053 459.852C972.729 459.599 973.456 459.535 974.174 459.683L976.674 460.189C976.948 460.137 977.18 460.063 977.391 459.968C977.286 460.443 977.107 460.822 976.832 460.959L974.089 460.4C973.478 460.274 972.845 460.316 972.254 460.537H972.243C969.479 461.603 968.256 460.706 968.034 459.641Z" fill="#E5A006"/>
    <path opacity="0.2" d="M998.299 444.853C997.888 448.576 996.347 457.837 991.21 459.061C991.21 459.061 991.484 458.196 991.685 457.046C993.889 454.019 997.297 448.123 998.299 444.853Z" fill="#0A5E77"/>
    <path d="M938.527 472.878L951.524 422.343C953.075 416.32 958.508 412.112 964.732 412.112H978.393C982.644 412.112 986.21 415.329 986.642 419.548L992.254 474.102C992.761 478.985 988.921 483.236 984.005 483.236H946.555C941.144 483.226 937.177 478.121 938.527 472.878ZM989.322 473.321L983.931 420.93C983.583 417.523 980.703 414.928 977.275 414.928H965.322C960.048 414.928 955.438 418.504 954.119 423.609L941.692 471.929C940.352 477.161 944.277 482.255 949.678 482.276L981.02 482.445C985.967 482.487 989.828 478.226 989.322 473.321Z" fill="#70513E"/>
    <path d="M951.091 413.515C951.091 412.365 952.03 411.426 953.18 411.426H1001.93C1003.08 411.426 1004.02 412.354 1004.02 413.515C1004.02 414.664 1003.08 415.603 1001.93 415.603H953.18C952.019 415.603 951.091 414.664 951.091 413.515Z" fill="#DA7300"/>
    <path d="M986.305 511.568C986.305 508.098 987.761 505.092 989.891 503.457V502.139H993.52C997.508 502.139 1000.74 506.358 1000.74 511.568C1000.74 516.779 997.508 520.998 993.52 520.998H989.891V519.68C987.75 518.045 986.305 515.039 986.305 511.568Z" fill="#72503D"/>
    <path d="M989.891 520.998C993.877 520.998 997.107 516.776 997.107 511.568C997.107 506.36 993.877 502.139 989.891 502.139C985.906 502.139 982.676 506.36 982.676 511.568C982.676 516.776 985.906 520.998 989.891 520.998Z" fill="#524533"/>
    <path d="M1031.41 511.568C1031.41 508.098 1032.87 505.092 1035 503.457V502.138H1038.63C1042.62 502.138 1045.84 506.357 1045.84 511.568C1045.84 516.779 1042.62 520.998 1038.63 520.998H1035V519.68C1032.87 518.045 1031.41 515.038 1031.41 511.568Z" fill="#72503D"/>
    <path d="M1035 520.998C1038.98 520.998 1042.22 516.776 1042.22 511.568C1042.22 506.36 1038.98 502.138 1035 502.138C1031.01 502.138 1027.78 506.36 1027.78 511.568C1027.78 516.776 1031.01 520.998 1035 520.998Z" fill="#524533"/>
    <path d="M1026.01 511.568C1026.01 508.098 1027.47 505.092 1029.6 503.457V502.139H1033.23C1037.21 502.139 1040.44 506.358 1040.44 511.568C1040.44 516.779 1037.21 520.998 1033.23 520.998H1029.6V519.68C1027.47 518.045 1026.01 515.039 1026.01 511.568Z" fill="#72503D"/>
    <path d="M1029.61 520.998C1033.59 520.998 1036.82 516.776 1036.82 511.568C1036.82 506.36 1033.59 502.139 1029.61 502.139C1025.62 502.139 1022.39 506.36 1022.39 511.568C1022.39 516.776 1025.62 520.998 1029.61 520.998Z" fill="#524533"/>
    <path d="M997.846 512.222H1048.4C1050.18 512.222 1051.63 510.777 1051.63 508.995V478.163C1051.63 476.38 1050.18 474.935 1048.4 474.935H997.846V512.222Z" fill="#FF8F00"/>
    <path d="M1047.7 493.584H1047.71C1048.8 493.584 1049.67 492.709 1049.67 491.622V485.009C1049.67 483.922 1048.8 483.047 1047.71 483.047H1047.7C1046.61 483.047 1045.74 483.922 1045.74 485.009V491.622C1045.74 492.709 1046.61 493.584 1047.7 493.584Z" fill="#C82C08"/>
    <path d="M1048.15 493.584H1048.17C1049.25 493.584 1050.13 492.709 1050.13 491.622V485.009C1050.13 483.922 1049.25 483.047 1048.17 483.047H1048.15C1047.07 483.047 1046.19 483.922 1046.19 485.009V491.622C1046.19 492.709 1047.07 493.584 1048.15 493.584Z" fill="#F83709"/>
    <path d="M1001.55 493.584H1001.56C1002.65 493.584 1003.52 492.709 1003.52 491.622V485.009C1003.52 483.922 1002.65 483.047 1001.56 483.047H1001.55C1000.46 483.047 999.586 483.922 999.586 485.009V491.622C999.596 492.709 1000.47 493.584 1001.55 493.584Z" fill="#C82C08"/>
    <path d="M1002 493.584H1002.01C1003.1 493.584 1003.97 492.709 1003.97 491.622V485.009C1003.97 483.922 1003.1 483.047 1002.01 483.047H1002C1000.91 483.047 1000.04 483.922 1000.04 485.009V491.622C1000.04 492.709 1000.91 493.584 1002 493.584Z" fill="#F83709"/>
    <path d="M1020.63 509.765H1028.86C1029.45 509.765 1029.94 509.279 1029.94 508.689V503.647C1029.94 503.056 1029.45 502.571 1028.86 502.571H1020.63C1020.04 502.571 1019.56 503.056 1019.56 503.647V508.689C1019.56 509.279 1020.04 509.765 1020.63 509.765Z" fill="#DA7300"/>
    <path d="M1029.48 508.689V503.647C1029.48 503.056 1029 502.571 1028.41 502.571H1028.85C1029.44 502.571 1029.93 503.056 1029.93 503.647V508.689C1029.93 509.279 1029.44 509.765 1028.85 509.765H1028.41C1029.01 509.765 1029.48 509.279 1029.48 508.689Z" fill="#BB6300"/>
    <path d="M935.943 512.222H997.856V474.935H993.341C992.17 474.935 991.052 475.452 990.292 476.349L986.42 480.937C985.872 481.581 985.07 481.95 984.226 481.95H945.405C944.414 481.95 943.475 481.507 942.852 480.747L938.031 474.925H935.943C933.622 481.38 932.43 488.194 932.43 495.061C932.43 498.151 932.852 501.221 933.685 504.195L935.943 512.222Z" fill="#DA7300"/>
    <path d="M937.694 507.296C937.694 502.254 939.804 497.888 942.906 495.504V493.584H948.17C953.961 493.584 958.656 499.723 958.656 507.296C958.656 514.87 953.961 521.009 948.17 521.009H942.906V519.089C939.804 516.705 937.694 512.338 937.694 507.296Z" fill="#72503D"/>
    <path d="M942.905 521.009C948.696 521.009 953.391 514.869 953.391 507.296C953.391 499.723 948.696 493.584 942.905 493.584C937.114 493.584 932.419 499.723 932.419 507.296C932.419 514.869 937.114 521.009 942.905 521.009Z" fill="#524533"/>
    <path d="M942.906 515.735C945.374 515.735 948.117 512.264 948.117 507.286C948.117 502.307 945.374 498.837 942.906 498.837C940.437 498.837 937.694 502.307 937.694 507.286C937.694 512.264 940.448 515.735 942.906 515.735Z" fill="#DA7300"/>
    <path d="M980.903 511.568C980.903 508.098 982.359 505.092 984.49 503.457V502.138H988.119C992.107 502.138 995.335 506.358 995.335 511.568C995.335 516.779 992.107 520.998 988.119 520.998H984.49V519.68C982.349 518.045 980.903 515.039 980.903 511.568Z" fill="#72503D"/>
    <path d="M984.49 520.998C988.475 520.998 991.706 516.776 991.706 511.568C991.706 506.36 988.475 502.138 984.49 502.138C980.505 502.138 977.274 506.36 977.274 511.568C977.274 516.776 980.505 520.998 984.49 520.998Z" fill="#524533"/>
    <path d="M984.49 517.38C986.188 517.38 988.077 514.996 988.077 511.568C988.077 508.14 986.188 505.756 984.49 505.756C982.792 505.756 980.903 508.14 980.903 511.568C980.903 514.996 982.792 517.38 984.49 517.38Z" fill="#DA7300"/>
    <path d="M1002.9 432.533C1002.9 432.533 1000.71 432.047 999.786 431.604C998.858 431.161 999.364 429.832 999.438 429.041C999.512 428.25 998.562 426.879 998.794 424.274C999.027 421.668 1004.66 421.384 1004.66 421.384C1004.66 421.384 1010.38 423.82 1010.16 426.236C1009.93 428.651 1008.13 431.974 1008.24 433.556C1008.34 435.138 1002.9 432.533 1002.9 432.533Z" fill="#F9BB91"/>
    <path d="M1000.42 425.265C1000.42 425.265 1001.2 427.628 1001.1 428.609C1001.02 429.59 1001.73 426.594 1002.53 426.889C1003.33 427.185 1004.4 429.421 1003.37 430.771C1002.35 432.121 1004.04 433.081 1004.93 433.398C1005.83 433.714 1007.47 434.115 1007.9 434.009C1008.33 433.904 1007.85 433.767 1008.64 431.457C1009.43 429.147 1011.03 425.845 1009.78 423.567C1008.54 421.288 1000.42 425.265 1000.42 425.265Z" fill="#131133"/>
    <path d="M1010.77 425.972C1007.28 427.828 999.333 426.056 996.675 422.512C994.016 418.968 999.818 420.16 1002.03 420.075C1004.25 419.991 1014.76 423.852 1010.77 425.972Z" fill="#E5A006"/>
    <path d="M1007.04 416.531C1011.34 417.871 1012.26 423.187 1010.84 425.223C1009.43 427.259 998.246 426.035 997.898 422.565C997.592 419.548 1000.49 414.496 1007.04 416.531Z" fill="#F8B403"/>
    </g>
    <defs>
    <clipPath id="clip0_0_1">
    <rect width="734" height="521" fill="white" transform="translate(544)"/>
    </clipPath>
    </defs>
    </svg>
    