<svg width="685" height="521" viewBox="0 0 685 521" fill="none" xmlns="http://www.w3.org/2000/svg">
<g clip-path="url(#clip0_82_6617)">
<rect width="734" height="521" fill="white"/>
<path d="M419.5 148.66C428.782 143.301 440.218 143.301 449.5 148.66L548.105 205.59C557.387 210.949 563.105 220.853 563.105 231.571V345.429C563.105 356.147 557.387 366.051 548.105 371.41L449.5 428.34C440.218 433.699 428.782 433.699 419.5 428.34L320.895 371.41C311.613 366.051 305.895 356.147 305.895 345.429V231.571C305.895 220.853 311.613 210.949 320.895 205.59L419.5 148.66Z" fill="#FFF8DD"/>
<path opacity="0.3" d="M31.5825 519.647H900.919C902.618 519.647 903.989 518.276 903.989 516.578C903.989 514.88 902.618 513.509 900.919 513.509H31.5825C29.8841 513.509 28.5127 514.88 28.5127 516.578C28.5232 518.276 29.8946 519.647 31.5825 519.647Z" fill="#3F4254"/>
<path d="M382.628 464.756V471.127H361.54V471.18H358.133V483.816H361.54V483.869H554.98V471.116H531.646V464.746H554.98V451.993H531.646V437.901H524.936V439.146H522.922V451.993H391.352V437.901H384.643V438.977H382.628V451.993H361.54V452.109H358.133V464.746H361.54H382.628V464.756ZM522.911 464.756V471.127H391.352V464.756H522.911Z" fill="#0D2633"/>
<path d="M198.879 439.186L854.025 439.186V292.855L198.879 292.855V439.186Z" fill="#3F4254"/>
<path d="M718.926 424.904V347.925H676.539V424.904H718.926Z" fill="#E6B664"/>
<path d="M665.038 424.908V347.929H622.651V424.908H665.038Z" fill="#C29750"/>
<path d="M618.296 341.05V431.783H672.181V341.05H618.296ZM624.045 347.927H666.432V424.906H624.045V347.927Z" fill="#B38840"/>
<path d="M662.993 349.604H666.432V355.849L627.484 426.583H624.045V420.338L662.993 349.604Z" fill="#B38840"/>
<path d="M661.59 347.927H665.04V354.182L626.082 424.917H622.643V418.662L661.59 347.927Z" fill="#E6B664"/>
<path d="M669.248 341.05V431.783H723.133V341.05H669.248ZM674.997 347.927H717.384V424.906H674.997V347.927Z" fill="#C29955"/>
<path d="M713.386 347.927H716.825V354.182L677.877 424.917H674.438V418.662L713.386 347.927Z" fill="#C29955"/>
<path d="M715.485 347.927H718.924V354.182L679.977 424.917H676.527V418.662L715.485 347.927Z" fill="#F7CE83"/>
<path d="M670.778 341.05V431.783H724.664V341.05H670.778ZM676.528 347.927H718.914V424.906H676.528V347.927Z" fill="#F7CE83"/>
<path d="M616.893 341.05V431.783H670.778V341.05H616.893ZM622.642 347.927H665.028V424.906H622.642V347.927Z" fill="#E6B35C"/>
<path d="M645.269 424.907V347.928H602.882V424.907H645.269Z" fill="#E6B664"/>
<path d="M591.38 424.91V347.931H548.993V424.91H591.38Z" fill="#C29750"/>
<path d="M544.631 341.05V431.783H598.516V341.05H544.631ZM550.38 347.927H592.767V424.906H550.38V347.927Z" fill="#B38840"/>
<path d="M589.327 349.604H592.777V355.849L553.829 426.583H550.38V420.339L589.327 349.604Z" fill="#B38840"/>
<path d="M587.935 347.927H591.374V354.182L552.426 424.916H548.987V418.661L587.935 347.927Z" fill="#E6B664"/>
<path d="M595.594 341.05V431.783H649.479V341.05H595.594ZM601.343 347.927H643.73V424.906H601.343V347.927Z" fill="#C29955"/>
<path d="M639.732 347.927H643.171V354.182L604.223 424.916H600.784V418.661L639.732 347.927Z" fill="#C29955"/>
<path d="M641.821 347.927H645.27V354.182L606.312 424.916H602.873V418.661L641.821 347.927Z" fill="#F7CE83"/>
<path d="M597.123 341.05V431.783H651.008V341.05H597.123ZM602.872 347.927H645.259V424.906H602.872V347.927Z" fill="#F7CE83"/>
<path d="M543.238 341.05V431.783H597.123V341.05H543.238ZM548.988 347.927H591.374V424.906H548.988V347.927Z" fill="#E6B35C"/>
<path opacity="0.8" d="M479.165 431.517H585.775V424.555H479.165V431.517Z" fill="#6E562C"/>
<path d="M585.817 431.517H595.206V420.284H585.817V431.517Z" fill="#C29750"/>
<path d="M556.802 431.517H566.19V420.284H556.802V431.517Z" fill="#C29750"/>
<path d="M590.512 431.517H599.9V420.284H590.512V431.517Z" fill="#F7CE83"/>
<path d="M561.496 431.517H570.885V420.284H561.496V431.517Z" fill="#F7CE83"/>
<path d="M532.47 431.517H541.858V420.284H532.47V431.517Z" fill="#F7CE83"/>
<path d="M523.176 431.517H532.564V420.284H523.176V431.517Z" fill="#E6B664"/>
<path d="M498.853 431.517H508.242V420.284H498.853V431.517Z" fill="#B38840"/>
<path d="M469.828 431.517H479.217V420.284H469.828V431.517Z" fill="#B38840"/>
<path d="M532.564 424.557H599.899V420.285H532.564V424.557Z" fill="#F7CE83"/>
<path d="M465.181 424.557H532.517V420.285H465.181V424.557Z" fill="#E6B35C"/>
<path d="M494.16 431.517H503.549V420.284H494.16V431.517Z" fill="#E6B35C"/>
<path d="M465.134 431.517H474.522V420.284H465.134V431.517Z" fill="#E6B35C"/>
<path d="M520.686 420.285H573.115V343.939H520.686V420.285Z" fill="#CBD860"/>
<path d="M519.714 348.402H574.074C575.308 348.402 576.31 347.4 576.31 346.166C576.31 344.932 575.308 343.93 574.074 343.93H519.714C518.48 343.93 517.478 344.932 517.478 346.166C517.488 347.411 518.48 348.402 519.714 348.402Z" fill="#ADBD5F"/>
<path d="M519.714 369.73H574.074C575.308 369.73 576.31 368.728 576.31 367.494C576.31 366.26 575.308 365.258 574.074 365.258H519.714C518.48 365.258 517.478 366.26 517.478 367.494C517.488 368.728 518.48 369.73 519.714 369.73Z" fill="#ADBD5F"/>
<path d="M519.714 398.969H574.074C575.308 398.969 576.31 397.967 576.31 396.733C576.31 395.499 575.308 394.497 574.074 394.497H519.714C518.48 394.497 517.478 395.499 517.478 396.733C517.488 397.967 518.48 398.969 519.714 398.969Z" fill="#ADBD5F"/>
<path d="M519.714 420.286H574.074C575.308 420.286 576.31 419.284 576.31 418.05C576.31 416.816 575.308 415.814 574.074 415.814H519.714C518.48 415.814 517.478 416.816 517.478 418.05C517.488 419.284 518.48 420.286 519.714 420.286Z" fill="#ADBD5F"/>
<path opacity="0.9" d="M517.488 418.05C517.488 416.816 518.49 415.814 519.725 415.814H520.695V398.958H519.725C518.49 398.958 517.488 397.956 517.488 396.722C517.488 395.488 518.49 394.486 519.725 394.486H520.685V369.709H519.714C518.48 369.709 517.478 368.707 517.478 367.473C517.478 366.239 518.48 365.237 519.714 365.237H520.685V348.381H519.714C518.48 348.381 517.478 347.379 517.478 346.145C517.478 344.911 518.48 343.909 519.714 343.909H520.685H543.766V420.255H520.685H519.714C518.48 420.286 517.488 419.284 517.488 418.05Z" fill="#ADBD5F"/>
<path opacity="0.5" d="M564.358 343.94H573.114H574.085C575.319 343.94 576.321 344.942 576.321 346.177C576.321 347.411 575.319 348.413 574.085 348.413H573.114V365.268H574.085C575.319 365.268 576.321 366.27 576.321 367.504C576.321 368.739 575.319 369.741 574.085 369.741H573.114V394.518H574.085C575.319 394.518 576.321 395.52 576.321 396.754C576.321 397.988 575.319 398.99 574.085 398.99H573.114V415.846H574.085C575.319 415.846 576.321 416.848 576.321 418.082C576.321 419.316 575.319 420.318 574.085 420.318H573.114H564.358V343.94Z" fill="#ADBD5F"/>
<path opacity="0.5" d="M553.399 420.285H557.587V343.939H553.399V420.285Z" fill="#ADBD5F"/>
<path d="M477.46 420.286H534.806V336.789H477.46V420.286Z" fill="#CBD860"/>
<path d="M476.409 341.672H535.864C537.215 341.672 538.312 340.575 538.312 339.225C538.312 337.875 537.215 336.778 535.864 336.778H476.409C475.059 336.778 473.962 337.875 473.962 339.225C473.972 340.575 475.059 341.672 476.409 341.672Z" fill="#ADBD5F"/>
<path d="M476.409 364.994H535.864C537.215 364.994 538.312 363.897 538.312 362.547C538.312 361.197 537.215 360.1 535.864 360.1H476.409C475.059 360.1 473.962 361.197 473.962 362.547C473.972 363.897 475.059 364.994 476.409 364.994Z" fill="#ADBD5F"/>
<path d="M476.409 396.964H535.864C537.215 396.964 538.312 395.867 538.312 394.517C538.312 393.167 537.215 392.07 535.864 392.07H476.409C475.059 392.07 473.962 393.167 473.962 394.517C473.972 395.878 475.059 396.964 476.409 396.964Z" fill="#ADBD5F"/>
<path d="M476.409 420.286H535.864C537.215 420.286 538.312 419.189 538.312 417.839C538.312 416.489 537.215 415.392 535.864 415.392H476.409C475.059 415.392 473.962 416.489 473.962 417.839C473.972 419.189 475.059 420.286 476.409 420.286Z" fill="#ADBD5F"/>
<path opacity="0.9" d="M473.973 417.839C473.973 416.489 475.07 415.392 476.42 415.392H477.475V396.965H476.42C475.07 396.965 473.973 395.868 473.973 394.518C473.973 393.167 475.07 392.07 476.42 392.07H477.475V364.983H476.42C475.07 364.983 473.973 363.886 473.973 362.536C473.973 361.186 475.07 360.089 476.42 360.089H477.475V341.662H476.42C475.07 341.662 473.973 340.565 473.973 339.215C473.973 337.865 475.07 336.768 476.42 336.768H477.475H502.719V420.265H477.475H476.42C475.059 420.286 473.973 419.189 473.973 417.839Z" fill="#ADBD5F"/>
<path opacity="0.5" d="M525.241 336.789H534.809H535.864C537.215 336.789 538.312 337.886 538.312 339.236C538.312 340.586 537.215 341.683 535.864 341.683H534.809V360.11H535.864C537.215 360.11 538.312 361.207 538.312 362.557C538.312 363.907 537.215 365.004 535.864 365.004H534.809V392.091H535.864C537.215 392.091 538.312 393.188 538.312 394.539C538.312 395.889 537.215 396.986 535.864 396.986H534.809V415.413H535.864C537.215 415.413 538.312 416.51 538.312 417.86C538.312 419.21 537.215 420.307 535.864 420.307H534.809H525.241V336.789Z" fill="#ADBD5F"/>
<path opacity="0.5" d="M513.249 420.286H517.827V336.789H513.249V420.286Z" fill="#ADBD5F"/>
<path opacity="0.8" d="M397.401 431.517H504.011V424.555H397.401V431.517Z" fill="#6E562C"/>
<path d="M504.053 431.517H513.441V420.284H504.053V431.517Z" fill="#C29750"/>
<path d="M475.038 431.517H484.427V420.284H475.038V431.517Z" fill="#C29750"/>
<path d="M508.747 431.517H518.136V420.284H508.747V431.517Z" fill="#F7CE83"/>
<path d="M479.731 431.517H489.12V420.284H479.731V431.517Z" fill="#F7CE83"/>
<path d="M450.705 431.517H460.094V420.284H450.705V431.517Z" fill="#F7CE83"/>
<path d="M441.411 431.517H450.8V420.284H441.411V431.517Z" fill="#E6B664"/>
<path d="M417.089 431.517H426.478V420.284H417.089V431.517Z" fill="#B38840"/>
<path d="M388.063 431.517H397.452V420.284H388.063V431.517Z" fill="#B38840"/>
<path d="M450.799 424.557H518.135V420.285H450.799V424.557Z" fill="#F7CE83"/>
<path d="M383.417 424.557H450.752V420.285H383.417V424.557Z" fill="#E6B35C"/>
<path d="M412.395 431.517H421.784V420.284H412.395V431.517Z" fill="#E6B35C"/>
<path d="M383.369 431.517H392.758V420.284H383.369V431.517Z" fill="#E6B35C"/>
<path d="M438.92 420.285H491.35V343.939H438.92V420.285Z" fill="#CBD860"/>
<path d="M437.947 348.402H492.307C493.542 348.402 494.544 347.4 494.544 346.166C494.544 344.932 493.542 343.93 492.307 343.93H437.947C436.713 343.93 435.711 344.932 435.711 346.166C435.721 347.411 436.713 348.402 437.947 348.402Z" fill="#ADBD5F"/>
<path d="M437.947 369.73H492.307C493.542 369.73 494.544 368.728 494.544 367.494C494.544 366.26 493.542 365.258 492.307 365.258H437.947C436.713 365.258 435.711 366.26 435.711 367.494C435.721 368.728 436.713 369.73 437.947 369.73Z" fill="#ADBD5F"/>
<path d="M437.947 398.969H492.307C493.542 398.969 494.544 397.967 494.544 396.733C494.544 395.499 493.542 394.497 492.307 394.497H437.947C436.713 394.497 435.711 395.499 435.711 396.733C435.721 397.967 436.713 398.969 437.947 398.969Z" fill="#ADBD5F"/>
<path d="M437.947 420.286H492.307C493.542 420.286 494.544 419.284 494.544 418.05C494.544 416.816 493.542 415.814 492.307 415.814H437.947C436.713 415.814 435.711 416.816 435.711 418.05C435.721 419.284 436.713 420.286 437.947 420.286Z" fill="#ADBD5F"/>
<path opacity="0.9" d="M435.721 418.05C435.721 416.816 436.724 415.814 437.958 415.814H438.928V398.959H437.958C436.724 398.959 435.721 397.956 435.721 396.722C435.721 395.488 436.724 394.486 437.958 394.486H438.918V369.709H437.947C436.713 369.709 435.711 368.707 435.711 367.473C435.711 366.239 436.713 365.237 437.947 365.237H438.918V348.381H437.947C436.713 348.381 435.711 347.379 435.711 346.145C435.711 344.911 436.713 343.909 437.947 343.909H438.918H462V420.255H438.918H437.947C436.724 420.286 435.721 419.284 435.721 418.05Z" fill="#ADBD5F"/>
<path opacity="0.5" d="M482.592 343.941H491.348H492.318C493.552 343.941 494.555 344.943 494.555 346.177C494.555 347.411 493.552 348.413 492.318 348.413H491.358V365.268H492.329C493.563 365.268 494.565 366.27 494.565 367.505C494.565 368.739 493.563 369.741 492.329 369.741H491.358V394.518H492.329C493.563 394.518 494.565 395.52 494.565 396.754C494.565 397.988 493.563 398.99 492.329 398.99H491.358V415.846H492.329C493.563 415.846 494.565 416.848 494.565 418.082C494.565 419.316 493.563 420.318 492.329 420.318H491.358H482.602V343.941H482.592Z" fill="#ADBD5F"/>
<path opacity="0.5" d="M471.633 420.285H475.821V343.939H471.633V420.285Z" fill="#ADBD5F"/>
<path d="M395.696 420.286H453.041V336.789H395.696V420.286Z" fill="#CBD860"/>
<path d="M394.644 341.673H454.099C455.449 341.673 456.546 340.576 456.546 339.226C456.546 337.875 455.449 336.778 454.099 336.778H394.644C393.293 336.778 392.196 337.875 392.196 339.226C392.207 340.576 393.293 341.673 394.644 341.673Z" fill="#ADBD5F"/>
<path d="M394.644 364.994H454.099C455.449 364.994 456.546 363.897 456.546 362.547C456.546 361.197 455.449 360.1 454.099 360.1H394.644C393.293 360.1 392.196 361.197 392.196 362.547C392.207 363.897 393.293 364.994 394.644 364.994Z" fill="#ADBD5F"/>
<path d="M394.644 396.965H454.099C455.449 396.965 456.546 395.868 456.546 394.518C456.546 393.168 455.449 392.071 454.099 392.071H394.644C393.293 392.071 392.196 393.168 392.196 394.518C392.207 395.878 393.293 396.965 394.644 396.965Z" fill="#ADBD5F"/>
<path d="M394.644 420.286H454.099C455.449 420.286 456.546 419.189 456.546 417.839C456.546 416.489 455.449 415.392 454.099 415.392H394.644C393.293 415.392 392.196 416.489 392.196 417.839C392.207 419.189 393.293 420.286 394.644 420.286Z" fill="#ADBD5F"/>
<path opacity="0.9" d="M392.207 417.839C392.207 416.489 393.304 415.392 394.654 415.392H395.709V396.965H394.654C393.304 396.965 392.207 395.868 392.207 394.518C392.207 393.167 393.304 392.071 394.654 392.071H395.709V364.983H394.654C393.304 364.983 392.207 363.887 392.207 362.536C392.207 361.186 393.304 360.089 394.654 360.089H395.709V341.662H394.654C393.304 341.662 392.207 340.565 392.207 339.215C392.207 337.865 393.304 336.768 394.654 336.768H395.709H420.954V420.265H395.709H394.654C393.294 420.286 392.207 419.189 392.207 417.839Z" fill="#ADBD5F"/>
<path opacity="0.5" d="M443.476 336.789H453.044H454.099C455.449 336.789 456.546 337.886 456.546 339.236C456.546 340.586 455.449 341.683 454.099 341.683H453.044V360.11H454.099C455.449 360.11 456.546 361.207 456.546 362.558C456.546 363.908 455.449 365.005 454.099 365.005H453.044V392.092H454.099C455.449 392.092 456.546 393.189 456.546 394.539C456.546 395.889 455.449 396.986 454.099 396.986H453.044V415.413H454.099C455.449 415.413 456.546 416.51 456.546 417.86C456.546 419.21 455.449 420.307 454.099 420.307H453.044H443.476V336.789Z" fill="#ADBD5F"/>
<path opacity="0.5" d="M431.484 420.286H436.062V336.789H431.484V420.286Z" fill="#ADBD5F"/>
<path d="M253.221 439.262H283.255C288.213 439.262 292.222 443.281 292.222 448.228V448.291H244.244V448.228C244.255 443.27 248.274 439.262 253.221 439.262Z" fill="#113040"/>
<path opacity="0.8" d="M189.422 431.517H296.032V424.555H189.422V431.517Z" fill="#6E562C"/>
<path d="M296.027 431.517H305.416V420.284H296.027V431.517Z" fill="#C29750"/>
<path d="M267.001 431.517H276.39V420.284H267.001V431.517Z" fill="#C29750"/>
<path d="M300.721 431.517H310.109V420.284H300.721V431.517Z" fill="#F7CE83"/>
<path d="M271.694 431.517H281.083V420.284H271.694V431.517Z" fill="#F7CE83"/>
<path d="M242.68 431.517H252.068V420.284H242.68V431.517Z" fill="#F7CE83"/>
<path d="M233.386 431.517H242.774V420.284H233.386V431.517Z" fill="#E6B664"/>
<path d="M209.053 431.517H218.441V420.284H209.053V431.517Z" fill="#B38840"/>
<path d="M180.038 431.517H189.427V420.284H180.038V431.517Z" fill="#B38840"/>
<path d="M242.773 424.557H310.108V420.285H242.773V424.557Z" fill="#F7CE83"/>
<path d="M175.391 424.557H242.727V420.285H175.391V424.557Z" fill="#E6B35C"/>
<path d="M204.359 431.517H213.748V420.284H204.359V431.517Z" fill="#E6B35C"/>
<path d="M175.344 431.517H184.732V420.284H175.344V431.517Z" fill="#E6B35C"/>
<path d="M268.932 365.274H305.422V347.553H268.932V365.274Z" fill="#F7CE83"/>
<path d="M232.433 365.274H268.923V347.553H232.433V365.274Z" fill="#E6B35C"/>
<path d="M282.079 360.844H305.414V351.984H282.079V360.844Z" fill="#F7F1E5"/>
<path d="M288.668 360.844H293.753V351.984H288.668V360.844Z" fill="#C29750"/>
<path d="M282.083 360.844H287.379V351.984H282.083V360.844Z" fill="#C29750"/>
<path d="M305.408 364.804H268.918V365.754H305.408V364.804Z" fill="#C29750"/>
<path d="M268.918 364.804H232.429V365.753H268.918V364.804Z" fill="#B38840"/>
<path d="M268.931 383.474H305.421V365.754H268.931V383.474Z" fill="#F7CE83"/>
<path d="M232.433 383.474H268.923V365.754H232.433V383.474Z" fill="#E6B35C"/>
<path d="M282.079 379.044H305.414V370.184H282.079V379.044Z" fill="#F7F1E5"/>
<path d="M288.668 379.044H293.753V370.184H288.668V379.044Z" fill="#C29750"/>
<path d="M282.083 379.044H287.379V370.184H282.083V379.044Z" fill="#C29750"/>
<path d="M305.409 383H268.919V383.949H305.409V383Z" fill="#C29750"/>
<path d="M268.918 383H232.429V383.949H268.918V383Z" fill="#B38840"/>
<path d="M268.932 401.674H305.422V383.954H268.932V401.674Z" fill="#F7CE83"/>
<path d="M232.433 401.674H268.923V383.954H232.433V401.674Z" fill="#E6B35C"/>
<path d="M282.079 397.244H305.414V388.384H282.079V397.244Z" fill="#F7F1E5"/>
<path d="M288.668 397.244H293.753V388.384H288.668V397.244Z" fill="#C29750"/>
<path d="M282.083 397.244H287.379V388.384H282.083V397.244Z" fill="#C29750"/>
<path d="M305.408 401.195H268.918V402.144H305.408V401.195Z" fill="#C29750"/>
<path d="M268.918 401.195H232.429V402.144H268.918V401.195Z" fill="#B38840"/>
<path d="M268.932 419.874H305.422V402.154H268.932V419.874Z" fill="#F7CE83"/>
<path d="M232.433 419.874H268.923V402.154H232.433V419.874Z" fill="#E6B35C"/>
<path d="M282.079 415.444H305.414V406.584H282.079V415.444Z" fill="#F7F1E5"/>
<path d="M288.668 415.444H293.753V406.584H288.668V415.444Z" fill="#C29750"/>
<path d="M282.083 415.444H287.379V406.584H282.083V415.444Z" fill="#C29750"/>
<path d="M305.408 419.4H268.918V420.35H305.408V419.4Z" fill="#C29750"/>
<path d="M268.918 419.4H232.429V420.35H268.918V419.4Z" fill="#B38840"/>
<path d="M219.875 365.274H256.364V347.553H219.875V365.274Z" fill="#F7CE83"/>
<path d="M183.376 365.274H219.865V347.553H183.376V365.274Z" fill="#E6B35C"/>
<path d="M233.023 360.844H256.357V351.984H233.023V360.844Z" fill="#F7F1E5"/>
<path d="M239.612 360.844H244.696V351.984H239.612V360.844Z" fill="#C29750"/>
<path d="M233.025 360.844H238.32V351.984H233.025V360.844Z" fill="#C29750"/>
<path d="M256.354 364.804H219.864V365.753H256.354V364.804Z" fill="#C29750"/>
<path d="M219.865 364.804H183.375V365.753H219.865V364.804Z" fill="#B38840"/>
<path d="M268.931 347.084H305.421V329.364H268.931V347.084Z" fill="#F7CE83"/>
<path d="M232.433 347.084H268.923V329.364H232.433V347.084Z" fill="#E6B35C"/>
<path d="M282.079 342.654H305.414V333.794H282.079V342.654Z" fill="#F7F1E5"/>
<path d="M288.668 342.654H293.753V333.794H288.668V342.654Z" fill="#C29750"/>
<path d="M282.083 342.654H287.379V333.794H282.083V342.654Z" fill="#C29750"/>
<path d="M305.409 346.609H268.919V347.558H305.409V346.609Z" fill="#C29750"/>
<path d="M268.918 346.609H232.429V347.558H268.918V346.609Z" fill="#B38840"/>
<path d="M219.875 347.084H256.364V329.364H219.875V347.084Z" fill="#F7CE83"/>
<path d="M183.376 347.084H219.865V329.364H183.376V347.084Z" fill="#E6B35C"/>
<path d="M233.023 342.654H256.357V333.794H233.023V342.654Z" fill="#F7F1E5"/>
<path d="M239.612 342.654H244.696V333.794H239.612V342.654Z" fill="#C29750"/>
<path d="M233.025 342.654H238.32V333.794H233.025V342.654Z" fill="#C29750"/>
<path d="M256.354 346.609H219.864V347.558H256.354V346.609Z" fill="#C29750"/>
<path d="M219.865 346.609H183.375V347.558H219.865V346.609Z" fill="#B38840"/>
<path d="M268.931 328.884H305.421V311.164H268.931V328.884Z" fill="#F7CE83"/>
<path d="M232.433 328.884H268.923V311.164H232.433V328.884Z" fill="#E6B35C"/>
<path d="M282.079 324.454H305.414V315.594H282.079V324.454Z" fill="#F7F1E5"/>
<path d="M288.668 324.454H293.753V315.594H288.668V324.454Z" fill="#C29750"/>
<path d="M282.083 324.454H287.379V315.594H282.083V324.454Z" fill="#C29750"/>
<path d="M305.409 328.403H268.919V329.353H305.409V328.403Z" fill="#C29750"/>
<path d="M268.918 328.403H232.429V329.353H268.918V328.403Z" fill="#B38840"/>
<path d="M219.875 328.884H256.364V311.164H219.875V328.884Z" fill="#F7CE83"/>
<path d="M183.376 328.884H219.865V311.164H183.376V328.884Z" fill="#E6B35C"/>
<path d="M233.023 324.454H256.357V315.594H233.023V324.454Z" fill="#F7F1E5"/>
<path d="M239.612 324.454H244.696V315.594H239.612V324.454Z" fill="#C29750"/>
<path d="M233.025 324.454H238.32V315.594H233.025V324.454Z" fill="#C29750"/>
<path d="M256.354 328.403H219.864V329.353H256.354V328.403Z" fill="#C29750"/>
<path d="M219.865 328.403H183.375V329.353H219.865V328.403Z" fill="#B38840"/>
<path d="M219.875 383.474H256.364V365.754H219.875V383.474Z" fill="#F7CE83"/>
<path d="M183.376 383.474H219.865V365.754H183.376V383.474Z" fill="#E6B35C"/>
<path d="M233.023 379.044H256.357V370.184H233.023V379.044Z" fill="#F7F1E5"/>
<path d="M239.612 379.044H244.696V370.184H239.612V379.044Z" fill="#C29750"/>
<path d="M233.025 379.044H238.32V370.184H233.025V379.044Z" fill="#C29750"/>
<path d="M256.354 382.999H219.864V383.949H256.354V382.999Z" fill="#C29750"/>
<path d="M219.865 383H183.375V383.949H219.865V383Z" fill="#B38840"/>
<path d="M219.875 401.674H256.364V383.954H219.875V401.674Z" fill="#F7CE83"/>
<path d="M183.376 401.674H219.865V383.954H183.376V401.674Z" fill="#E6B35C"/>
<path d="M233.023 397.244H256.357V388.384H233.023V397.244Z" fill="#F7F1E5"/>
<path d="M239.612 397.244H244.696V388.384H239.612V397.244Z" fill="#C29750"/>
<path d="M233.025 397.244H238.32V388.384H233.025V397.244Z" fill="#C29750"/>
<path d="M256.354 401.195H219.864V402.144H256.354V401.195Z" fill="#C29750"/>
<path d="M219.865 401.195H183.375V402.144H219.865V401.195Z" fill="#B38840"/>
<path d="M219.875 419.874H256.364V402.154H219.875V419.874Z" fill="#F7CE83"/>
<path d="M183.376 419.874H219.865V402.154H183.376V419.874Z" fill="#E6B35C"/>
<path d="M233.023 415.444H256.357V406.584H233.023V415.444Z" fill="#F7F1E5"/>
<path d="M239.612 415.444H244.696V406.584H239.612V415.444Z" fill="#C29750"/>
<path d="M233.025 415.444H238.32V406.584H233.025V415.444Z" fill="#C29750"/>
<path d="M256.354 419.401H219.864V420.35H256.354V419.401Z" fill="#C29750"/>
<path d="M219.865 419.4H183.375V420.35H219.865V419.4Z" fill="#B38840"/>
<path d="M202.669 292.857H152.697V439.188H202.669V292.857Z" fill="#3F4254"/>
<path opacity="0.3" d="M192.963 331.536V439.568H152.697V322.75H184.165C189.029 322.75 192.963 326.684 192.963 331.536Z" fill="#181C32"/>
<path d="M128.002 435.601C133.319 435.601 141.874 435.485 147.107 433.355L158.31 424.695L153.489 386.796V341.546C153.489 339.109 151.516 337.137 149.079 337.137H65.9729C47.8073 338.983 42.596 374.044 37.775 404.506C35.6335 406.215 34.2832 408.831 34.2832 411.732V483.415H78.2206L87.9785 461.781C90.7319 455.685 94.6245 450.094 99.7725 445.812C107.421 439.441 117.253 435.601 128.002 435.601Z" fill="#FFC700"/>
<path d="M146.256 481.681C146.296 464.094 132.06 449.805 114.459 449.765C96.8586 449.725 82.5581 463.95 82.5183 481.537C82.4785 499.124 96.7145 513.413 114.315 513.453C131.916 513.493 146.217 499.268 146.256 481.681Z" fill="#0D2633"/>
<path d="M152.701 481.679C152.741 464.092 138.505 449.803 120.904 449.763C103.303 449.723 89.0024 463.948 88.9627 481.535C88.9229 499.122 103.159 513.412 120.76 513.451C138.36 513.491 152.661 499.266 152.701 481.679Z" fill="#113040"/>
<path d="M315.957 482.761C315.984 465.174 301.737 450.895 284.136 450.869C266.535 450.842 252.245 465.078 252.219 482.665C252.192 500.252 266.439 514.531 284.04 514.557C301.641 514.584 315.931 500.348 315.957 482.761Z" fill="#0D2633"/>
<path d="M322.402 482.765C322.431 465.178 308.187 450.897 290.586 450.867C272.986 450.837 258.693 465.07 258.663 482.657C258.634 500.244 272.878 514.525 290.478 514.555C308.079 514.585 322.372 500.352 322.402 482.765Z" fill="#113040"/>
<path d="M171.191 435.601L182.995 448.291H192.859H212.575H392.808C400.773 448.291 407.239 454.746 407.239 462.71C407.239 470.673 400.783 477.129 392.808 477.129H200.233H188.354H182.995H181.339H109.51L129.522 435.601H171.191Z" fill="#113040"/>
<path d="M330.894 452.299C348.501 452.299 362.764 466.56 362.764 484.143C362.764 501.727 348.49 515.987 330.894 515.987C313.288 515.987 299.025 501.727 299.025 484.143C299.025 466.56 313.288 452.299 330.894 452.299Z" fill="#181C32"/>
<path d="M369.21 484.207C369.25 466.62 355.014 452.331 337.413 452.291C319.812 452.251 305.511 466.476 305.472 484.063C305.432 501.65 319.668 515.939 337.269 515.979C354.869 516.019 369.17 501.794 369.21 484.207Z" fill="#3F4254"/>
<path d="M337.34 505.197C348.975 505.197 358.407 495.771 358.407 484.143C358.407 472.516 348.975 463.09 337.34 463.09C325.705 463.09 316.273 472.516 316.273 484.143C316.273 495.771 325.705 505.197 337.34 505.197Z" fill="#CFE8F6"/>
<path d="M337.34 498.721C345.397 498.721 351.929 492.194 351.929 484.143C351.929 476.093 345.397 469.566 337.34 469.566C329.282 469.566 322.75 476.093 322.75 484.143C322.75 492.194 329.282 498.721 337.34 498.721Z" fill="#ACD5EC"/>
<path d="M336.423 477.182C341.012 476.602 344.883 480.473 344.303 485.051C343.902 488.173 341.381 490.694 338.258 491.095C333.669 491.675 329.787 487.804 330.378 483.226C330.768 480.104 333.29 477.583 336.423 477.182Z" fill="#CFE8F6"/>
<path d="M155.314 435.602C160.63 435.602 169.186 435.486 174.418 433.355L180.537 428.63C183.691 426.193 185.316 422.28 184.809 418.324L180.8 386.807V341.556C180.8 339.12 178.828 337.147 176.391 337.147H93.2845C75.1188 338.993 69.9075 374.055 65.0865 404.517C62.945 406.226 61.5947 408.842 61.5947 411.742V483.426H105.532L115.29 461.792C117.896 456.001 121.514 450.664 126.303 446.487C134.046 439.715 144.195 435.602 155.314 435.602Z" fill="#FFDC5E"/>
<path d="M71.6797 407.818V443.797C71.6797 447.795 74.9183 451.033 78.927 451.033C87.9993 451.033 96.4703 451.033 103.633 451.033C105.965 451.033 108.022 449.609 108.939 447.468C115.912 433.903 127.211 429.61 143.414 429.948C144.131 429.948 144.849 429.969 145.587 430.001C145.64 430.001 145.682 430.001 145.735 430.001C147.539 430.001 149.016 428.535 149.016 426.71V341.282C149.016 339.595 147.644 338.223 145.956 338.223H99.3607C80.8364 341.578 76.6589 372.915 72.1017 402.407C71.8168 404.201 71.6797 406.004 71.6797 407.818ZM73.3043 407.818C73.3043 406.099 73.4414 404.369 73.7051 402.65L74.1799 399.591C78.4523 371.776 82.8829 343.012 99.519 339.837H145.967C146.758 339.837 147.412 340.481 147.412 341.272V426.699C147.412 427.617 146.663 428.366 145.745 428.366C144.912 428.334 144.163 428.313 143.435 428.313C126.704 427.617 113.94 432.69 107.473 446.814C106.798 448.386 105.3 449.409 103.654 449.409H78.9481C75.8466 449.409 73.3254 446.888 73.3254 443.787V407.818H73.3043Z" fill="#FFC700"/>
<path d="M56.8901 482.793L58.5463 482.751C59.3269 482.73 59.9388 482.097 59.9388 481.327V477.487C59.9388 476.802 59.3902 476.243 58.7045 476.232L57.2593 476.211C57.0589 476.211 56.869 476.169 56.7002 476.095V482.856C56.7635 482.835 56.8268 482.803 56.8901 482.793Z" fill="#DC701D"/>
<path d="M143.795 383.432V345.965C143.795 344.278 142.423 342.906 140.736 342.906H103.37C87.8314 342.917 80.7845 366.217 78.2633 401.985C78.0945 404.38 80.0144 406.416 82.4091 406.416H94.3613C96.007 406.416 97.4944 405.445 98.159 403.937C102.748 393.526 113.065 386.807 124.448 386.807H140.419C142.276 386.807 143.795 385.288 143.795 383.432Z" fill="#4FD8FF"/>
<path d="M343.395 448.164C345.98 448.597 348.543 449.314 351.033 450.327C353.122 451.097 355.274 452.289 357.046 453.407C357.046 453.407 357.046 453.407 357.056 453.407C363.122 457.12 368.038 462.531 371.087 468.996C372.205 471.37 373.07 473.88 373.661 476.496C374.22 478.648 374.463 481.095 374.547 483.183C374.568 483.669 374.674 484.122 374.821 484.565C374.853 484.66 374.874 484.744 374.916 484.829C375.085 485.261 375.296 485.673 375.57 486.031C375.581 486.042 375.581 486.042 375.591 486.052C375.676 486.168 376.393 487.508 379.684 488.12C379.674 488.32 375.264 488.12 374.61 488.12C373.471 488.12 372.437 487.74 371.583 487.107C371.562 487.097 371.54 487.076 371.519 487.055C371.14 486.77 370.802 486.432 370.507 486.052C370.496 486.042 370.496 486.042 370.486 486.031C370.211 485.662 370 485.261 369.832 484.829C369.8 484.744 369.768 484.65 369.737 484.565C369.589 484.122 369.483 483.669 369.462 483.183C369.367 481.095 369.125 478.648 368.576 476.496C367.985 473.88 367.12 471.37 366.002 468.996C362.953 462.531 358.038 457.12 351.972 453.407C351.972 453.407 351.972 453.407 351.961 453.407C350.189 452.289 348.047 451.097 345.948 450.327C343.459 449.314 340.906 448.597 338.311 448.164C337.108 447.964 335.895 447.848 334.682 447.764C337.583 447.553 340.505 447.679 343.395 448.164Z" fill="#181C32"/>
<path d="M315.186 444.61C315.302 444.557 315.418 444.557 315.545 444.557C321.6 442.036 328.172 440.971 334.723 441.35C329.881 441.646 325.113 442.69 320.619 444.557C320.503 444.567 320.377 444.557 320.261 444.61C304.985 451.255 294.257 466.454 294.257 484.143C294.257 484.776 294.014 487.234 295.597 487.761C295.597 487.761 292.052 487.761 290.522 487.761C289.868 487.761 289.32 487.255 289.278 486.611C289.225 485.799 289.183 484.977 289.183 484.154C289.172 466.454 299.901 451.255 315.186 444.61Z" fill="#181C32"/>
<path d="M320.25 444.61C320.366 444.557 320.482 444.557 320.608 444.557C331.4 440.063 343.817 440.021 354.862 444.958C354.904 444.968 354.957 444.958 354.999 444.979C355.389 445.147 355.758 445.348 356.138 445.527C356.159 445.538 356.191 445.548 356.212 445.559C370.833 452.468 381.003 467.298 381.003 484.512C381.003 485.346 380.96 486.158 380.908 486.97C380.865 487.624 380.317 488.12 379.663 488.12C378.523 488.12 377.49 487.74 376.635 487.107C376.614 487.097 376.593 487.075 376.572 487.054C376.192 486.77 375.855 486.432 375.559 486.052C375.549 486.042 375.549 486.042 375.538 486.031C375.264 485.662 375.053 485.261 374.884 484.829C374.852 484.744 374.821 484.649 374.789 484.565C374.641 484.122 374.536 483.668 374.515 483.183C374.42 481.095 374.177 478.648 373.629 476.496C373.038 473.88 372.173 471.37 371.055 468.996C368.006 462.53 363.09 457.119 357.024 453.406C355.252 452.288 353.1 451.097 351.011 450.327C348.522 449.314 345.969 448.597 343.374 448.164C335.62 446.867 327.624 448.122 320.63 451.687C320.482 451.761 320.07 451.93 320.007 451.961C313.097 455.664 307.506 461.518 304.162 468.627C303.044 471 302.179 473.511 301.588 476.127C301.029 478.278 300.787 480.726 300.702 482.814C300.681 483.352 300.555 483.848 300.386 484.322C300.365 484.396 300.344 484.47 300.312 484.544C300.122 485.008 299.869 485.43 299.573 485.81C299.542 485.852 299.5 485.894 299.468 485.936C298.529 487.044 297.147 487.761 295.586 487.761C294.932 487.761 294.383 487.255 294.341 486.611C294.288 485.799 294.246 484.976 294.246 484.154C294.246 466.454 304.975 451.255 320.25 444.61Z" fill="#3F4254"/>
<path d="M177.665 484.218C177.707 466.631 163.472 452.34 145.871 452.299C128.27 452.258 113.968 466.481 113.927 484.068C113.886 501.655 128.121 515.946 145.722 515.987C163.322 516.028 177.624 501.805 177.665 484.218Z" fill="#181C32"/>
<path d="M184.109 484.214C184.149 466.627 169.913 452.337 152.312 452.297C134.712 452.257 120.411 466.482 120.371 484.069C120.331 501.656 134.567 515.946 152.168 515.986C169.769 516.026 184.069 501.801 184.109 484.214Z" fill="#3F4254"/>
<path d="M152.234 505.197C163.869 505.197 173.3 495.771 173.3 484.143C173.3 472.516 163.869 463.089 152.234 463.089C140.599 463.089 131.167 472.516 131.167 484.143C131.167 495.771 140.599 505.197 152.234 505.197Z" fill="#CFE8F6"/>
<path d="M152.252 498.721C160.309 498.711 166.833 492.176 166.823 484.125C166.813 476.075 160.273 469.556 152.216 469.566C144.158 469.576 137.634 476.111 137.644 484.162C137.654 492.213 144.194 498.731 152.252 498.721Z" fill="#ACD5EC"/>
<path d="M152.234 477.129C156.105 477.129 159.26 480.272 159.26 484.143C159.26 488.014 156.105 491.157 152.234 491.157C148.362 491.157 145.208 488.014 145.208 484.143C145.208 480.272 148.362 477.129 152.234 477.129Z" fill="#CFE8F6"/>
<path d="M276.471 448.291C278.592 448.291 280.311 457.13 280.311 468.026C280.311 478.922 278.592 487.761 276.471 487.761H202.68V448.291H276.471Z" fill="#CFE8F6"/>
<path d="M198.84 468.026C198.84 478.922 200.559 487.761 202.68 487.761C204.8 487.761 206.52 478.922 206.52 468.026C206.52 457.13 204.8 448.291 202.68 448.291C200.559 448.291 198.84 457.119 198.84 468.026Z" fill="#9D7F6A"/>
<path d="M54.4746 344.362C54.4746 344.362 55.2131 343.434 54.4746 344.362C57.9242 335.344 62.703 328.92 70.3089 327.559H97.6208H140.83C142.181 327.559 143.394 328.35 143.953 329.574L147.371 337.147H88.5907L81.7864 344.373H54.4746V344.362Z" fill="#FFC700"/>
<path d="M93.2847 337.147H174.682L171.264 329.574C170.716 328.35 169.492 327.559 168.142 327.559H97.6205C90.0145 328.92 85.2357 335.344 81.7861 344.362C82.4613 345.459 88.5693 337.991 93.2847 337.147Z" fill="#FFDC5E"/>
<path d="M84.677 362.547C84.0018 364.603 83.39 366.797 82.8203 369.139L109.077 342.906H104.341L84.677 362.547Z" fill="white"/>
<path d="M87.9474 406.416L143.784 350.364V345.965C143.784 344.278 142.413 342.906 140.725 342.906H119.743L80.3204 382.303C79.4342 388.326 78.7591 394.908 78.2633 401.985C78.0945 404.38 80.0144 406.416 82.4091 406.416H87.9474Z" fill="white"/>
<path d="M124.447 386.807H130.429L143.795 373.453V361.682L117.886 387.577C120.006 387.071 122.2 386.807 124.447 386.807Z" fill="white"/>
<path d="M78.2623 401.985C78.0935 404.38 80.0135 406.416 82.4081 406.416H94.3603C96.006 406.416 97.4935 405.445 98.158 403.937C102.747 393.526 113.064 386.807 124.447 386.807H140.418C142.285 386.807 143.794 385.299 143.794 383.432V345.965C143.794 344.278 142.422 342.906 140.735 342.906H103.369C87.8304 342.906 80.773 366.207 78.2623 401.985ZM79.9502 402.101C82.6719 363.412 90.3411 344.594 103.369 344.594H140.735C141.494 344.594 142.106 345.206 142.106 345.965V383.432C142.106 384.36 141.346 385.119 140.418 385.119H124.447C112.389 385.119 101.47 392.239 96.6073 403.262C96.217 404.158 95.3309 404.728 94.3603 404.728H82.4081C81.7224 404.728 81.0789 404.443 80.6042 403.937C80.1295 403.431 79.8974 402.777 79.9502 402.101Z" fill="#ACD5EC"/>
<path d="M127.57 399.981H141.832C142.908 399.981 143.784 399.106 143.784 398.03C143.784 396.954 142.908 396.079 141.832 396.079H127.57C126.494 396.079 125.618 396.954 125.618 398.03C125.618 399.106 126.494 399.981 127.57 399.981Z" fill="#FFC700"/>
<path d="M28.5234 474.745V464.851C28.5234 461.402 31.013 458.554 34.2833 457.963V457.837H35.5386H44.0624H63.8421V477.878H73.9904C76.596 477.878 82.7568 482.54 81.4276 484.924C81.2271 485.282 80.995 485.599 80.7419 485.915C80.6786 485.989 80.6258 486.063 80.552 486.126C80.5203 486.168 80.4781 486.189 80.4465 486.232C80.3305 486.358 80.2039 486.464 80.0773 486.58C79.9612 486.696 79.8557 486.812 79.7291 486.917C79.7186 486.928 79.7186 486.928 79.708 486.938C79.5392 487.075 79.3494 487.17 79.17 487.286C79.0223 487.381 78.8852 487.487 78.7375 487.571C78.7059 487.582 78.6848 487.613 78.6531 487.624C78.6215 487.645 78.5898 487.656 78.5582 487.666C78.3577 487.772 78.1362 487.824 77.9252 487.909C77.651 488.014 77.3872 488.151 77.0918 488.225C76.5433 488.373 75.9736 488.457 75.3829 488.457H73.2203H63.8421H54.8542H51.4784H34.3255H34.2833V488.447C33.5976 488.447 32.933 488.331 32.3211 488.12C32.0996 488.046 31.9308 487.898 31.7304 487.803C31.3401 487.613 30.9392 487.455 30.6122 487.191C30.4117 487.033 30.2746 486.812 30.0953 486.632C29.821 486.358 29.5362 486.105 29.3252 485.778C29.1775 485.546 29.1247 485.282 29.0087 485.029C28.861 484.702 28.6711 484.407 28.5973 484.048C28.5973 484.027 28.5973 484.006 28.5973 483.985C28.5867 483.953 28.5762 483.932 28.5656 483.911C28.5762 483.89 28.5867 483.89 28.5973 483.869C28.5656 483.31 28.5234 475.536 28.5234 474.745Z" fill="#3F4254"/>
<path d="M107.2 473.859C106.229 476.274 103.898 477.867 101.292 477.867H95.7959C98.4015 477.867 100.733 476.274 101.703 473.859C110.902 450.991 114.426 433.576 139.775 433.618H145.272C119.932 433.576 116.398 450.991 107.2 473.859Z" fill="#181C32"/>
<path d="M144.048 446.74L162.794 446.845C167.288 446.74 169.935 447.911 170.284 448.027C171.085 448.29 171.855 448.638 172.583 449.05C174.345 450.062 176.043 451.339 177.668 452.91C182.552 457.604 186.814 464.893 190.306 475.388C190.517 476.032 190.823 476.622 191.182 477.16C191.35 477.413 191.572 477.614 191.762 477.835C191.983 478.088 192.184 478.373 192.437 478.595C192.595 478.732 196.72 480.251 196.889 480.356C196.889 480.356 191.614 480.588 190.496 480.367C190.38 480.346 190.274 480.282 190.158 480.251C190.158 480.261 190.169 480.272 190.169 480.282C189.979 480.24 189.81 480.135 189.631 480.082C189.24 479.955 188.861 479.839 188.491 479.649C188.27 479.533 188.091 479.386 187.88 479.249C187.553 479.038 187.226 478.848 186.941 478.595C186.688 478.373 186.487 478.099 186.266 477.835C186.076 477.614 185.854 477.413 185.685 477.16C185.327 476.622 185.031 476.032 184.81 475.388C181.318 464.893 177.056 457.615 172.172 452.91C170.547 451.349 168.849 450.073 167.087 449.05C166.37 448.638 165.6 448.29 164.787 448.027C164.439 447.911 161.791 446.74 157.298 446.845L143.404 446.772C143.626 446.761 143.816 446.74 144.048 446.74Z" fill="#181C32"/>
<path d="M55.8252 474.745V464.851C55.8252 460.98 58.9689 457.837 62.851 457.837H71.3747C73.8854 457.837 76.0585 459.598 76.5754 462.045L79.3393 475.114C79.6769 476.728 81.101 477.878 82.7572 477.878H101.303C103.908 477.878 106.24 476.285 107.21 473.87C116.409 451.002 119.933 433.587 145.282 433.629H168.933C173.649 433.787 176.803 436.351 176.803 436.351C186.16 443.059 191.952 454.103 198.524 477.635C198.956 479.196 197.585 480.683 195.992 480.367C195.876 480.346 195.771 480.283 195.655 480.251C195.655 480.262 195.665 480.272 195.665 480.283C195.475 480.24 195.306 480.135 195.127 480.082C194.737 479.956 194.357 479.84 193.988 479.65C193.766 479.534 193.587 479.386 193.376 479.249C193.049 479.038 192.722 478.848 192.437 478.595C192.184 478.373 191.983 478.099 191.762 477.836C191.572 477.614 191.35 477.414 191.182 477.16C190.823 476.623 190.528 476.032 190.306 475.388C186.814 464.893 182.552 457.615 177.668 452.911C176.044 451.35 174.345 450.073 172.584 449.05C171.866 448.639 171.096 448.291 170.284 448.027C169.936 447.911 167.288 446.74 162.794 446.846L144.048 446.74C137.339 446.751 133.805 448.945 129.933 450.928C120.26 455.906 117.548 466.254 112.274 477.846C111.219 480.167 110.059 482.529 108.729 484.913C108.529 485.272 108.297 485.588 108.044 485.905C107.98 485.979 107.917 486.052 107.864 486.116C107.833 486.158 107.79 486.179 107.759 486.221C107.643 486.348 107.516 486.453 107.39 486.569C107.274 486.685 107.168 486.801 107.041 486.907C107.031 486.917 107.031 486.917 107.02 486.928C106.852 487.065 106.662 487.16 106.482 487.276C106.335 487.371 106.198 487.476 106.05 487.561C106.018 487.571 105.997 487.603 105.965 487.613C105.934 487.635 105.902 487.645 105.871 487.656C105.67 487.761 105.449 487.814 105.238 487.898C104.963 488.004 104.7 488.141 104.404 488.215C103.856 488.362 103.286 488.447 102.695 488.447H100.533H82.1665H78.7908H61.6378C60.931 488.447 60.2559 488.331 59.6334 488.109C59.4225 488.035 59.2431 487.888 59.0427 487.793C58.6524 487.603 58.2515 487.445 57.9245 487.181C57.7241 487.023 57.5869 486.801 57.4076 486.622C57.1333 486.348 56.8485 486.095 56.6375 485.768C56.4898 485.536 56.437 485.272 56.321 485.019C56.1733 484.692 55.9834 484.396 55.9096 484.038C55.9096 484.017 55.9096 483.995 55.9096 483.974C55.899 483.943 55.8885 483.922 55.8779 483.901C55.8885 483.88 55.899 483.879 55.9096 483.858C55.8674 483.31 55.8252 475.536 55.8252 474.745Z" fill="#3F4254"/>
<path d="M49.9486 462.467C49.9592 462.425 50.5288 462.351 50.5288 462.351H60.6244C63.8419 462.351 66.4475 464.957 66.4475 468.174C66.4475 471.391 63.8419 473.996 60.6244 473.996H50.5288L49.5056 473.722C48.7777 473.342 48.2607 472.604 48.2607 471.728V464.619C48.2607 463.575 48.9886 462.731 49.9486 462.467Z" fill="#4FD8FF"/>
<path d="M51.6572 473.986H54.5899L64.6222 463.933C64.0947 463.438 63.4934 463.047 62.8077 462.773L51.6572 473.986Z" fill="white"/>
<path d="M59.2106 473.986L66.3102 466.887C66.2364 466.57 66.1414 466.264 66.0254 465.98L58.0186 473.986H59.2106Z" fill="white"/>
<path d="M65.9522 470.515L62.9668 473.49C64.3065 472.91 65.372 471.844 65.9522 470.515Z" fill="white"/>
<path d="M52.4277 462.351L48.2607 466.539V471.718C48.2607 472.498 48.6722 473.173 49.2735 473.574L60.4661 462.341H52.4277V462.351Z" fill="white"/>
<path d="M28.5234 464.84C28.5234 463.965 28.6817 463.131 28.977 462.361C29.4307 462.361 33.6081 462.182 34.6736 462.467C35.6336 462.731 36.3615 463.575 36.3615 464.619V471.728C36.3615 472.604 35.8446 473.342 35.1167 473.722L34.0934 473.996H28.5234V464.84Z" fill="#4FD8FF"/>
<path d="M34.4837 462.425C33.7453 462.298 32.1945 462.288 30.9181 462.309L28.534 464.608C28.534 464.682 28.5234 464.756 28.5234 464.83V468.479L34.4837 462.425Z" fill="white"/>
<path d="M36.3507 464.619C36.3507 464.239 36.2558 463.891 36.087 463.585L28.5127 471.138V473.986H28.6604L36.3507 466.254V464.619Z" fill="white"/>
<path d="M33.2917 473.986L36.3509 470.937V469.735L32.0996 473.986H33.2917Z" fill="white"/>
<path opacity="0.5" d="M35.1167 473.711C35.8446 473.331 36.3615 472.593 36.3615 471.718V464.608C36.3615 463.564 35.6336 462.72 34.6736 462.457C33.6081 462.172 29.4307 462.351 28.977 462.351C28.6817 463.121 28.5234 463.954 28.5234 464.83V473.975H34.0934L35.1167 473.711Z" fill="#4C82A4"/>
<path d="M82.1556 349.963C76.0055 362.051 73.3365 380.352 70.5621 398.22C70.3617 399.517 69.2329 400.477 67.9143 400.477H65.7095H38.4082C41.7628 379.276 45.5817 356.714 53.9261 345.058H81.1957C81.1957 345.058 83.8224 346.683 82.1556 349.963Z" fill="#4FD8FF"/>
<path d="M82.1556 349.963C83.8224 346.683 81.1957 345.058 81.1957 345.058H73.6319L42.8072 375.668C41.1088 383.653 39.7163 392.165 38.4082 400.477H50.6347L74.1066 376.818C76.0582 366.597 78.4951 357.167 82.1556 349.963Z" fill="white"/>
<path d="M61.1738 400.477H65.71H67.9147C69.2334 400.477 70.3516 399.517 70.5626 398.22C70.9951 395.435 71.4276 392.64 71.8707 389.855L61.1738 400.477Z" fill="white"/>
<path d="M48.8412 354.699C47.8707 357.115 46.974 359.709 46.1406 362.452L63.167 345.069H58.441L48.8412 354.699Z" fill="white"/>
<path opacity="0.3" d="M81.1957 345.058H53.9261C47.4172 354.14 43.6617 369.867 40.7396 386.406C40.729 386.448 40.729 386.491 40.7185 386.533C40.613 387.123 40.5075 387.714 40.4125 388.294C40.3914 388.4 40.3809 388.505 40.3598 388.611C40.2649 389.159 40.1699 389.718 40.075 390.277C40.0539 390.414 40.0328 390.551 40.0011 390.689C39.9062 391.226 39.8218 391.775 39.7269 392.313C39.7058 392.45 39.6846 392.587 39.653 392.735C39.5581 393.283 39.4737 393.832 39.3787 394.38C39.3576 394.496 39.3365 394.612 39.326 394.728C39.0095 396.648 38.7036 398.568 38.4082 400.477H65.7095H65.72C69.0747 379.286 72.8829 356.735 81.2273 345.079C81.2062 345.069 81.1957 345.058 81.1957 345.058Z" fill="#8FC1DD"/>
<path d="M61.5843 411.816H62.3016C65.0866 411.816 67.3441 414.073 67.3441 416.858V449.061C67.3441 450.748 65.9728 452.12 64.2849 452.12H61.5843H34.2725V411.816H61.5843Z" fill="#3F4254"/>
<path d="M34.2832 414.738H61.595C62.8398 414.738 63.842 415.74 63.842 416.985V420.539C63.842 420.761 63.6626 420.94 63.4411 420.94H61.595H59.7489H36.1293H34.2832H32.4371C32.2155 420.94 32.0362 420.761 32.0362 420.539V416.985C32.0257 415.74 33.0384 414.738 34.2832 414.738Z" fill="#181C32"/>
<path d="M34.2832 424.051H61.595C62.8398 424.051 63.842 425.053 63.842 426.298V429.853C63.842 430.074 63.6626 430.254 63.4411 430.254H61.595H59.7489H36.1293H34.2832H32.4371C32.2155 430.254 32.0362 430.074 32.0362 429.853V426.298C32.0257 425.053 33.0384 424.051 34.2832 424.051Z" fill="#181C32"/>
<path d="M34.2832 433.355H61.595C62.8398 433.355 63.842 434.357 63.842 435.602V439.156C63.842 439.378 63.6626 439.557 63.4411 439.557H61.595H59.7489H36.1293H34.2832H32.4371C32.2155 439.557 32.0362 439.378 32.0362 439.156V435.602C32.0257 434.367 33.0384 433.355 34.2832 433.355Z" fill="#181C32"/>
<path d="M34.2832 442.669H61.595C62.8398 442.669 63.842 443.671 63.842 444.916V448.47C63.842 448.692 63.6626 448.871 63.4411 448.871H61.595H59.7489H36.1293H34.2832H32.4371C32.2155 448.871 32.0362 448.692 32.0362 448.47V444.916C32.0257 443.671 33.0384 442.669 34.2832 442.669Z" fill="#181C32"/>
<path d="M62.3131 411.816C65.098 411.816 67.3556 414.073 67.3556 416.858V449.061C67.3556 450.748 65.9842 452.12 64.2963 452.12H61.5957V411.816H62.3131Z" fill="#5E6278"/>
<path d="M59.4434 420.539V416.984C59.4434 415.761 60.4244 414.78 61.6376 414.748C62.8507 414.78 63.8318 415.761 63.8318 416.984V420.539C63.8318 420.761 63.6525 420.94 63.4309 420.94H61.6903H61.5848H59.8442C59.6227 420.94 59.4434 420.761 59.4434 420.539Z" fill="#3F4254"/>
<path d="M59.4434 429.853V426.298C59.4434 425.075 60.4244 424.094 61.6376 424.062C62.8507 424.094 63.8318 425.075 63.8318 426.298V429.853C63.8318 430.074 63.6525 430.254 63.4309 430.254H61.6903H61.5848H59.8442C59.6227 430.254 59.4434 430.074 59.4434 429.853Z" fill="#3F4254"/>
<path d="M59.4434 439.156V435.601C59.4434 434.378 60.4244 433.397 61.6376 433.365C62.8507 433.397 63.8318 434.378 63.8318 435.601V439.156C63.8318 439.378 63.6525 439.557 63.4309 439.557H61.6903H61.5848H59.8442C59.6227 439.567 59.4434 439.388 59.4434 439.156Z" fill="#3F4254"/>
<path d="M59.4434 448.47V444.915C59.4434 443.692 60.4244 442.711 61.6376 442.679C62.8507 442.711 63.8318 443.692 63.8318 444.915V448.47C63.8318 448.691 63.6525 448.871 63.4309 448.871H61.6903H61.5848H59.8442C59.6227 448.871 59.4434 448.691 59.4434 448.47Z" fill="#3F4254"/>
<path d="M198.84 468.026C198.84 478.922 200.559 487.761 202.68 487.761C204.8 487.761 206.52 478.922 206.52 468.026C206.52 457.13 204.8 448.291 202.68 448.291C200.559 448.291 198.84 457.119 198.84 468.026Z" fill="#3D7EA0"/>
<g opacity="0.5">
<path opacity="0.5" d="M202.68 479.217H205.834H279.625C278.929 484.375 277.779 487.761 276.471 487.761H202.68C201.371 487.761 200.211 484.375 199.525 479.217H202.68Z" fill="#8FC1DD"/>
</g>
<g opacity="0.5">
<path opacity="0.5" d="M202.68 448.291H276.471C277.811 448.291 278.982 451.803 279.668 457.119H205.876H202.68H199.483C200.169 451.803 201.34 448.291 202.68 448.291Z" fill="#8FC1DD"/>
</g>
<path opacity="0.5" d="M55.8245 464.84C55.8245 463.965 55.9933 463.121 56.2887 462.351H50.5288C50.5288 462.351 49.9592 462.436 49.9486 462.467C48.9886 462.731 48.2607 463.575 48.2607 464.619V471.728C48.2607 472.604 48.7777 473.342 49.5056 473.722L50.5288 473.996H55.8245V464.84Z" fill="#4C82A4"/>
<path d="M684.113 340.726H709.252V328.523H684.113V340.726Z" fill="#F7CE83"/>
<path d="M658.976 340.726H684.115V328.523H658.976V340.726Z" fill="#E6B35C"/>
<path d="M709.263 340.396H684.124V341.05H709.263V340.396Z" fill="#C29750"/>
<path d="M684.124 340.396H658.985V341.05H684.124V340.396Z" fill="#B38840"/>
<path d="M655.559 340.726H680.697V328.523H655.559V340.726Z" fill="#F7CE83"/>
<path d="M630.422 340.726H655.561V328.523H630.422V340.726Z" fill="#E6B35C"/>
<path d="M664.622 337.678H680.699V331.571H664.622V337.678Z" fill="#F7F1E5"/>
<path d="M669.167 337.678H672.669V331.571H669.167V337.678Z" fill="#C29750"/>
<path d="M664.625 337.678H668.275V331.571H664.625V337.678Z" fill="#C29750"/>
<path d="M680.706 340.396H655.567V341.05H680.706V340.396Z" fill="#C29750"/>
<path d="M655.567 340.396H630.429V341.05H655.567V340.396Z" fill="#B38840"/>
<path d="M707.751 484.199C707.781 466.612 693.537 452.33 675.936 452.3C658.335 452.271 644.043 466.503 644.013 484.09C643.983 501.677 658.227 515.959 675.828 515.989C693.429 516.019 707.721 501.786 707.751 484.199Z" fill="#0D2633"/>
<path d="M714.196 484.197C714.225 466.61 699.981 452.329 682.381 452.299C664.78 452.269 650.487 466.502 650.457 484.089C650.428 501.676 664.672 515.957 682.272 515.987C699.873 516.017 714.166 501.784 714.196 484.197Z" fill="#113040"/>
<path d="M607.747 452.299C625.354 452.299 639.616 466.56 639.616 484.143C639.616 501.726 625.343 515.987 607.747 515.987C590.151 515.987 575.878 501.726 575.878 484.143C575.878 466.56 590.14 452.299 607.747 452.299Z" fill="#0D2633"/>
<path d="M614.192 452.299C631.799 452.299 646.061 466.56 646.061 484.143C646.061 501.726 631.788 515.987 614.192 515.987C596.586 515.987 582.323 501.726 582.323 484.143C582.323 466.56 596.586 452.299 614.192 452.299Z" fill="#113040"/>
<path d="M581.28 448.502H590.152C581.47 456.392 572.186 467.72 572.186 480.346C572.186 480.979 571.944 483.437 573.526 483.964C573.526 483.964 569.982 483.964 568.452 483.964C567.798 483.964 567.249 483.458 567.207 482.814C567.155 482.002 567.112 481.179 567.112 480.357C567.112 467.72 572.598 456.381 581.28 448.502Z" fill="#0D2633"/>
<path d="M584.613 450.168C585.699 449.061 587.218 448.502 588.769 448.502H597.451C590.784 452.215 585.383 457.911 582.123 464.841C581.005 467.214 580.14 469.724 579.549 472.34C578.99 474.492 578.747 476.939 578.652 479.027C578.631 479.565 578.505 480.061 578.336 480.536C578.304 480.61 578.294 480.683 578.262 480.757C578.072 481.221 577.819 481.643 577.524 482.023C577.492 482.065 577.45 482.107 577.418 482.15C576.479 483.257 575.097 483.974 573.536 483.974C572.882 483.974 572.333 483.468 572.291 482.825C572.239 482.012 572.196 481.19 572.196 480.367C572.186 468.585 576.943 457.942 584.613 450.168Z" fill="#113040"/>
<path d="M684.113 328.187H709.252V315.983H684.113V328.187Z" fill="#F7CE83"/>
<path d="M658.976 328.187H684.115V315.983H658.976V328.187Z" fill="#E6B35C"/>
<path d="M709.263 327.865H684.124V328.519H709.263V327.865Z" fill="#C29750"/>
<path d="M684.124 327.865H658.985V328.519H684.124V327.865Z" fill="#B38840"/>
<path d="M655.559 328.187H680.697V315.983H655.559V328.187Z" fill="#F7CE83"/>
<path d="M630.422 328.187H655.561V315.983H630.422V328.187Z" fill="#E6B35C"/>
<path d="M664.622 325.139H680.699V319.031H664.622V325.139Z" fill="#F7F1E5"/>
<path d="M669.167 325.139H672.669V319.031H669.167V325.139Z" fill="#C29750"/>
<path d="M664.625 325.139H668.275V319.031H664.625V325.139Z" fill="#C29750"/>
<path d="M680.706 327.865H655.567V328.519H680.706V327.865Z" fill="#C29750"/>
<path d="M655.567 327.865H630.429V328.519H655.567V327.865Z" fill="#B38840"/>
<path d="M610.673 340.726H635.812V328.523H610.673V340.726Z" fill="#F7CE83"/>
<path d="M585.536 340.726H610.675V328.523H585.536V340.726Z" fill="#E6B35C"/>
<path d="M619.737 337.678H635.813V331.571H619.737V337.678Z" fill="#F7F1E5"/>
<path d="M624.27 337.678H627.772V331.571H624.27V337.678Z" fill="#C29750"/>
<path d="M619.74 337.678H623.39V331.571H619.74V337.678Z" fill="#C29750"/>
<path d="M635.818 340.396H610.68V341.05H635.818V340.396Z" fill="#C29750"/>
<path d="M610.679 340.396H585.54V341.05H610.679V340.396Z" fill="#B38840"/>
<path d="M582.118 340.726H607.257V328.523H582.118V340.726Z" fill="#F7CE83"/>
<path d="M556.981 340.726H582.12V328.523H556.981V340.726Z" fill="#E6B35C"/>
<path d="M591.183 337.678H607.26V331.571H591.183V337.678Z" fill="#F7F1E5"/>
<path d="M595.715 337.678H599.218V331.571H595.715V337.678Z" fill="#C29750"/>
<path d="M591.185 337.678H594.835V331.571H591.185V337.678Z" fill="#C29750"/>
<path d="M607.262 340.396H582.123V341.05H607.262V340.396Z" fill="#C29750"/>
<path d="M582.123 340.396H556.984V341.05H582.123V340.396Z" fill="#B38840"/>
<path d="M610.673 328.187H635.812V315.983H610.673V328.187Z" fill="#F7CE83"/>
<path d="M585.536 328.187H610.675V315.983H585.536V328.187Z" fill="#E6B35C"/>
<path d="M619.737 325.139H635.813V319.032H619.737V325.139Z" fill="#F7F1E5"/>
<path d="M624.27 325.139H627.772V319.032H624.27V325.139Z" fill="#C29750"/>
<path d="M619.74 325.139H623.39V319.032H619.74V325.139Z" fill="#C29750"/>
<path d="M635.818 327.865H610.68V328.519H635.818V327.865Z" fill="#C29750"/>
<path d="M610.679 327.865H585.54V328.519H610.679V327.865Z" fill="#B38840"/>
<path d="M582.118 328.187H607.257V315.983H582.118V328.187Z" fill="#F7CE83"/>
<path d="M556.981 328.187H582.12V315.983H556.981V328.187Z" fill="#E6B35C"/>
<path d="M591.183 325.139H607.26V319.031H591.183V325.139Z" fill="#F7F1E5"/>
<path d="M595.715 325.139H599.218V319.031H595.715V325.139Z" fill="#C29750"/>
<path d="M591.185 325.139H594.835V319.031H591.185V325.139Z" fill="#C29750"/>
<path d="M607.262 327.865H582.123V328.519H607.262V327.865Z" fill="#C29750"/>
<path d="M582.123 327.865H556.984V328.519H582.123V327.865Z" fill="#B38840"/>
<path d="M653.615 476.717H788.16C810.471 476.717 829.692 461.012 834.112 439.156H607.663C612.083 461.012 631.304 476.717 653.615 476.717Z" fill="#113040"/>
<path d="M487.792 464.292H679.914V439.188H431.069C445.585 455.179 466.188 464.292 487.792 464.292Z" fill="#0D2633"/>
<path d="M528.354 464.672H720.475V439.568H471.631C486.147 455.558 506.749 464.672 528.354 464.672Z" fill="#113040"/>
<path d="M585.82 458.895H610.674V451.743H585.82V458.895Z" fill="#C8A997"/>
<path d="M698.055 484.215C698.095 466.628 683.859 452.338 666.259 452.298C648.658 452.259 634.357 466.483 634.317 484.07C634.277 501.657 648.513 515.947 666.114 515.987C683.715 516.027 698.016 501.802 698.055 484.215Z" fill="#181C32"/>
<path d="M704.5 484.213C704.54 466.626 690.304 452.337 672.703 452.297C655.102 452.257 640.802 466.482 640.762 484.069C640.722 501.656 654.958 515.945 672.559 515.985C690.159 516.025 704.46 501.8 704.5 484.213Z" fill="#3F4254"/>
<path d="M672.623 505.197C684.258 505.197 693.69 495.771 693.69 484.143C693.69 472.516 684.258 463.09 672.623 463.09C660.988 463.09 651.557 472.516 651.557 484.143C651.557 495.771 660.988 505.197 672.623 505.197Z" fill="#CFE8F6"/>
<path d="M672.624 498.721C680.681 498.721 687.213 492.194 687.213 484.143C687.213 476.093 680.681 469.566 672.624 469.566C664.566 469.566 658.034 476.093 658.034 484.143C658.034 492.194 664.566 498.721 672.624 498.721Z" fill="#ACD5EC"/>
<path d="M672.623 477.129C676.495 477.129 679.649 480.272 679.649 484.144C679.649 488.015 676.495 491.158 672.623 491.158C668.752 491.158 665.598 488.015 665.598 484.144C665.598 480.272 668.752 477.129 672.623 477.129Z" fill="#CFE8F6"/>
<path d="M639.721 448.502H648.593C639.911 456.392 630.628 467.72 630.628 480.346C630.628 480.979 630.385 483.437 631.968 483.964C631.968 483.964 628.423 483.964 626.893 483.964C626.239 483.964 625.691 483.458 625.649 482.814C625.596 482.002 625.554 481.179 625.554 480.357C625.554 467.72 631.039 456.381 639.721 448.502Z" fill="#181C32"/>
<path d="M643.044 450.168C644.131 449.061 645.65 448.502 647.201 448.502H655.883C649.216 452.215 643.814 457.911 640.555 464.841C639.436 467.214 638.571 469.724 637.981 472.34C637.422 474.492 637.179 476.939 637.084 479.027C637.063 479.565 636.936 480.061 636.768 480.536C636.736 480.61 636.725 480.683 636.694 480.757C636.504 481.221 636.251 481.643 635.955 482.023C635.924 482.065 635.881 482.107 635.85 482.15C634.911 483.257 633.529 483.974 631.968 483.974C631.314 483.974 630.765 483.468 630.723 482.825C630.67 482.012 630.628 481.19 630.628 480.367C630.628 468.585 635.375 457.942 643.044 450.168Z" fill="#3F4254"/>
<path d="M578.615 439.162V477.504H585.325V439.162H578.615Z" fill="#3D7EA0"/>
<path d="M413.829 464.755H417.236V452.118H413.829V464.755Z" fill="#183442"/>
<path d="M413.829 483.822H417.236V471.185H413.829V483.822Z" fill="#183442"/>
<path d="M580.633 437.92V477.506H587.342V437.92H580.633Z" fill="#8FC1DD"/>
<path d="M438.328 438.985V477.506H445.037V438.985H438.328Z" fill="#3D7EA0"/>
<path d="M440.344 437.924V477.51H447.053V437.924H440.344Z" fill="#8FC1DD"/>
<path d="M417.232 464.759H610.673V452.007H417.232V464.759Z" fill="#ACD5EC"/>
<path d="M417.232 483.885H610.673V471.133H417.232V483.885Z" fill="#ACD5EC"/>
<path d="M202.68 292.857V439.188H904V292.857H202.68ZM210.275 300.451H896.394V431.593H210.275V300.451Z" fill="#FFC700"/>
<path d="M469.426 436.351C469.426 436.351 477.275 440.148 473.604 449.072C469.943 457.995 465.502 446.53 465.502 446.53L469.426 436.351Z" fill="#F4F4F4"/>
<path d="M442.421 480.937C441.873 481.58 441.071 481.95 440.227 481.95H401.406C400.414 481.95 399.475 481.507 398.853 480.747L394.032 474.925H392.102L393.969 470.99H439.478C441.113 470.99 442.643 471.824 443.539 473.195L445.892 476.823L442.421 480.937Z" fill="#524533"/>
<path d="M441.535 479.07L456.114 422.396C457.675 416.331 463.14 412.091 469.406 412.091H482.002C486.823 412.091 490.863 415.73 491.359 420.529L497.435 479.555C497.635 481.517 496.095 483.226 494.123 483.226H444.763C442.59 483.226 440.997 481.18 441.535 479.07ZM494.281 476.728L488.521 420.708C488.183 417.428 485.419 414.939 482.118 414.939H469.596C464.511 414.939 460.08 418.377 458.814 423.293L445.195 476.243C444.657 478.353 446.24 480.399 448.424 480.399H490.968C492.941 480.389 494.481 478.69 494.281 476.728Z" fill="#4F4533"/>
<path opacity="0.8" d="M328.014 429.542H434.16V422.612H328.014V429.542Z" fill="#6E562C"/>
<path d="M434.151 429.54H443.498V418.359H434.151V429.54Z" fill="#C29750"/>
<path d="M405.26 429.54H414.606V418.359H405.26V429.54Z" fill="#C29750"/>
<path d="M438.825 429.54H448.172V418.359H438.825V429.54Z" fill="#F7CE83"/>
<path d="M409.934 429.54H419.28V418.359H409.934V429.54Z" fill="#F7CE83"/>
<path d="M381.032 429.54H390.379V418.359H381.032V429.54Z" fill="#F7CE83"/>
<path d="M371.786 429.54H381.133V418.359H371.786V429.54Z" fill="#E6B664"/>
<path d="M347.558 429.54H356.904V418.359H347.558V429.54Z" fill="#B38840"/>
<path d="M318.666 429.54H328.013V418.359H318.666V429.54Z" fill="#B38840"/>
<path d="M381.139 422.61H448.179V418.359H381.139V422.61Z" fill="#F7CE83"/>
<path d="M314.042 422.61H381.082V418.359H314.042V422.61Z" fill="#E6B35C"/>
<path d="M342.884 429.54H352.23V418.359H342.884V429.54Z" fill="#E6B35C"/>
<path d="M313.992 429.54H323.339V418.359H313.992V429.54Z" fill="#E6B35C"/>
<path d="M407.161 363.591H443.503V345.944H407.161V363.591Z" fill="#F7CE83"/>
<path d="M370.83 363.591H407.161V345.944H370.83V363.591Z" fill="#E6B35C"/>
<path d="M420.263 359.171H443.503V350.343H420.263V359.171Z" fill="#F7F1E5"/>
<path d="M426.821 359.171H431.885V350.343H426.821V359.171Z" fill="#C29750"/>
<path d="M420.269 359.171H425.544V350.343H420.269V359.171Z" fill="#C29750"/>
<path d="M443.506 363.117H407.164V364.066H443.506V363.117Z" fill="#C29750"/>
<path d="M407.164 363.117H370.833V364.066H407.164V363.117Z" fill="#B38840"/>
<path d="M358.317 363.591H394.659V345.944H358.317V363.591Z" fill="#F7CE83"/>
<path d="M321.996 363.591H358.327V345.944H321.996V363.591Z" fill="#E6B35C"/>
<path d="M371.418 359.171H394.658V350.343H371.418V359.171Z" fill="#F7F1E5"/>
<path d="M377.977 359.171H383.041V350.343H377.977V359.171Z" fill="#C29750"/>
<path d="M371.426 359.171H376.7V350.343H371.426V359.171Z" fill="#C29750"/>
<path d="M394.664 363.117H358.322V364.066H394.664V363.117Z" fill="#C29750"/>
<path d="M358.312 363.117H321.98V364.066H358.312V363.117Z" fill="#B38840"/>
<path d="M407.161 381.708H443.503V364.061H407.161V381.708Z" fill="#F7CE83"/>
<path d="M370.83 381.708H407.161V364.061H370.83V381.708Z" fill="#E6B35C"/>
<path d="M420.263 377.299H443.503V368.47H420.263V377.299Z" fill="#F7F1E5"/>
<path d="M426.821 377.299H431.885V368.47H426.821V377.299Z" fill="#C29750"/>
<path d="M420.269 377.299H425.544V368.47H420.269V377.299Z" fill="#C29750"/>
<path d="M443.506 381.228H407.164V382.177H443.506V381.228Z" fill="#C29750"/>
<path d="M407.164 381.228H370.833V382.177H407.164V381.228Z" fill="#B38840"/>
<path d="M407.162 399.824H443.504V382.178H407.162V399.824Z" fill="#F7CE83"/>
<path d="M370.83 399.824H407.161V382.178H370.83V399.824Z" fill="#E6B35C"/>
<path d="M420.263 395.415H443.503V386.587H420.263V395.415Z" fill="#F7F1E5"/>
<path d="M426.821 395.415H431.885V386.587H426.821V395.415Z" fill="#C29750"/>
<path d="M420.269 395.415H425.544V386.587H420.269V395.415Z" fill="#C29750"/>
<path d="M443.506 399.349H407.164V400.298H443.506V399.349Z" fill="#C29750"/>
<path d="M407.164 399.349H370.833V400.298H407.164V399.349Z" fill="#B38840"/>
<path d="M407.161 417.942H443.503V400.295H407.161V417.942Z" fill="#F7CE83"/>
<path d="M370.83 417.942H407.161V400.295H370.83V417.942Z" fill="#E6B35C"/>
<path d="M420.263 413.532H443.503V404.704H420.263V413.532Z" fill="#F7F1E5"/>
<path d="M426.821 413.532H431.885V404.704H426.821V413.532Z" fill="#C29750"/>
<path d="M420.269 413.532H425.544V404.704H420.269V413.532Z" fill="#C29750"/>
<path d="M443.506 417.47H407.164V418.42H443.506V417.47Z" fill="#C29750"/>
<path d="M407.164 417.47H370.833V418.42H407.164V417.47Z" fill="#B38840"/>
<path d="M358.317 381.708H394.659V364.061H358.317V381.708Z" fill="#F7CE83"/>
<path d="M321.996 381.708H358.327V364.061H321.996V381.708Z" fill="#E6B35C"/>
<path d="M371.418 377.299H394.658V368.47H371.418V377.299Z" fill="#F7F1E5"/>
<path d="M377.977 377.299H383.041V368.47H377.977V377.299Z" fill="#C29750"/>
<path d="M371.426 377.299H376.7V368.47H371.426V377.299Z" fill="#C29750"/>
<path d="M394.664 381.228H358.322V382.177H394.664V381.228Z" fill="#C29750"/>
<path d="M358.312 381.228H321.98V382.177H358.312V381.228Z" fill="#B38840"/>
<path d="M358.317 399.824H394.659V382.178H358.317V399.824Z" fill="#F7CE83"/>
<path d="M321.996 399.824H358.327V382.178H321.996V399.824Z" fill="#E6B35C"/>
<path d="M371.418 395.415H394.658V386.587H371.418V395.415Z" fill="#F7F1E5"/>
<path d="M377.977 395.415H383.041V386.587H377.977V395.415Z" fill="#C29750"/>
<path d="M371.426 395.415H376.7V386.587H371.426V395.415Z" fill="#C29750"/>
<path d="M394.664 399.349H358.322V400.298H394.664V399.349Z" fill="#C29750"/>
<path d="M358.312 399.349H321.98V400.298H358.312V399.349Z" fill="#B38840"/>
<path d="M358.317 417.942H394.659V400.295H358.317V417.942Z" fill="#F7CE83"/>
<path d="M321.996 417.942H358.327V400.295H321.996V417.942Z" fill="#E6B35C"/>
<path d="M371.418 413.532H394.658V404.704H371.418V413.532Z" fill="#F7F1E5"/>
<path d="M377.977 413.532H383.041V404.704H377.977V413.532Z" fill="#C29750"/>
<path d="M371.426 413.532H376.7V404.704H371.426V413.532Z" fill="#C29750"/>
<path d="M394.664 417.47H358.322V418.42H394.664V417.47Z" fill="#C29750"/>
<path d="M358.312 417.47H321.98V418.42H358.312V417.47Z" fill="#B38840"/>
<path d="M384.795 434.419H442.826V427.563H384.795V434.419Z" fill="#DA7300"/>
<path d="M384.795 391.674H442.826V389.649H384.795V391.674Z" fill="#C3B126"/>
<path d="M384.795 410.64H442.826V408.615H384.795V410.64Z" fill="#C3B126"/>
<path d="M437.546 389.646V427.566H442.821V389.646H437.546Z" fill="#DA7300"/>
<path d="M424.358 389.655V427.575H429.633V389.655H424.358Z" fill="#DA7300"/>
<path d="M411.17 389.654V427.573H416.445V389.654H411.17Z" fill="#DA7300"/>
<path d="M397.982 389.652V427.572H403.257V389.652H397.982Z" fill="#DA7300"/>
<path d="M384.794 389.651V427.57H390.069V389.651H384.794Z" fill="#DA7300"/>
<path d="M386.275 434.419H444.306V427.563H386.275V434.419Z" fill="#FF8F00"/>
<path d="M386.275 391.674H444.306V389.649H386.275V391.674Z" fill="#FF8F00"/>
<path d="M386.275 410.64H444.306V408.615H386.275V410.64Z" fill="#FF8F00"/>
<path d="M439.023 389.647V427.567H444.298V389.647H439.023Z" fill="#FF8F00"/>
<path d="M425.836 389.656V427.576H431.111V389.656H425.836Z" fill="#FF8F00"/>
<path d="M412.647 389.655V427.574H417.922V389.655H412.647Z" fill="#FF8F00"/>
<path d="M399.46 389.653V427.573H404.735V389.653H399.46Z" fill="#FF8F00"/>
<path d="M386.271 389.651V427.571H391.546V389.651H386.271Z" fill="#FF8F00"/>
<path d="M431.083 405.885V473.18H436.358V405.885H431.083Z" fill="#4F4533"/>
<path d="M394.184 405.886V473.182H399.458V405.886H394.184Z" fill="#4F4533"/>
<path d="M341.18 430.993L384.79 434.421V429.537H341.18V430.993Z" fill="#DA7300"/>
<path d="M390.953 405.856H435.491V399H390.953V405.856Z" fill="#DA7300"/>
<path d="M392.994 405.856H437.532V399H392.994V405.856Z" fill="#FF8F00"/>
<path d="M463.561 428.05C463.181 432.364 465.608 437.142 465.608 437.142L461.05 442.152L455.86 441.646L454.404 438.999L454.657 435.275L456.345 435.317C456.345 435.317 458.909 433.609 458.635 430.191C458.508 428.472 463.561 428.05 463.561 428.05Z" fill="#F9BB91"/>
<path d="M455.766 434.452C452.443 434.79 447.179 435.929 446.641 441.414C446.103 446.899 448.719 452.753 447.527 457.837C446.335 462.921 442.526 470.632 442.526 470.632C442.526 470.632 449.753 478.005 463.614 473.954C463.614 473.954 467.95 454.177 470.165 448.618C472.381 443.059 469.427 436.351 469.427 436.351C469.427 436.351 466.515 435.855 466.188 435.781C466.188 435.781 465.228 438.186 463.583 438.619C461.61 439.135 459.88 438.798 458.318 438.049C456.504 437.184 455.766 434.452 455.766 434.452Z" fill="white"/>
<path d="M463.16 440.475C461.282 442.543 461.81 443.661 454.942 451.245C454.942 451.245 447.484 456.571 443.496 455.981C442.051 455.77 440.828 456.455 443.212 457.7C445.596 458.945 454.236 458.913 459.194 454.82C462.696 451.93 472.211 448.65 472.95 443.629C473.91 436.994 468.055 435.075 463.16 440.475Z" fill="#F4F4F4"/>
<path d="M441.861 455.516C441.376 455.685 440.848 455.749 440.363 455.569C439.139 455.137 438.686 453.744 438.359 452.816C437.958 451.666 436.924 453.08 438.106 454.715C438.106 454.715 436.439 453.565 434.899 454.451C433.422 455.305 433.601 458.459 438.675 457.605H438.686C439.382 457.489 440.099 457.563 440.764 457.795L443.749 458.839C445.057 458.491 445.258 454.251 444.773 454.472L441.861 455.516Z" fill="#F8B403"/>
<path d="M434.107 455.959C434.234 456.16 434.35 456.318 434.434 456.381C434.941 456.782 436.112 457.299 438.591 456.888C439.393 456.751 440.215 456.835 440.996 457.099L443.718 458.048C444.034 458.048 444.308 458.016 444.551 457.953C444.351 458.407 444.097 458.744 443.76 458.828L440.775 457.784C440.11 457.552 439.393 457.478 438.696 457.594H438.686C435.415 458.153 434.192 457.046 434.107 455.959Z" fill="#E5A006"/>
<g opacity="0.2">
<path opacity="0.2" d="M453.096 453.27L453.982 451.878C454.34 451.635 454.615 451.456 454.773 451.35C454.34 451.772 453.613 452.5 453.096 453.27Z" fill="#0A5E77"/>
<path opacity="0.2" d="M455.143 451.01L455.151 451.002L455.143 451.01Z" fill="#0A5E77"/>
</g>
<path d="M418.991 471.001C426.966 470.589 436.618 472.889 441.218 474.155C441.461 473.058 441.872 471.887 442.515 470.632C442.515 470.632 443.38 471.497 446.788 472.678C449.32 472.087 456.388 465.885 457.991 460.706C460.597 452.331 455.438 436.193 451.546 435.359C452.368 435.054 453.223 434.843 454.035 434.695C466.293 445.011 460.744 465.759 460.744 465.759C470.861 444.758 467.063 435.94 467.063 435.94C468.034 436.108 469.416 436.351 469.416 436.351C469.416 436.351 472.359 443.059 470.154 448.618C467.939 454.177 463.603 473.954 463.603 473.954C463.55 474.123 462.875 474.492 461.831 474.967H463.287C462.126 487.994 421.269 484.776 421.269 484.776C421.269 484.776 408.104 471.549 418.991 471.001Z" fill="#0A5E77"/>
<path d="M463.92 472.593C461.367 473.595 458.466 474.408 454.278 473.712C452.453 473.406 448.666 472.309 447.263 471.707C445.3 470.864 443.834 469.925 443.106 469.418C442.769 469.186 441.798 471.243 442.083 471.507C443.286 472.604 448.972 476 454.468 476.348C459.985 476.697 461.578 476.116 463.287 474.988C463.73 474.798 464.321 472.688 463.92 472.593Z" fill="#1C2C27"/>
<path d="M447.748 485.483L479.005 486.665L484.871 458.481C485.915 453.481 481.263 448.555 475.292 448.333L469.131 448.101C462.274 447.838 456.472 451.624 455.006 457.299L447.748 485.483Z" fill="#4F4537"/>
<path d="M452.537 486.738H479.279L485.366 458.618C486.442 453.629 482.644 448.924 477.539 448.924H472.264C466.399 448.924 461.282 452.89 459.816 458.565L452.537 486.738Z" fill="#72503D"/>
<path d="M424.94 471.127L433.633 458.512L432.071 457.447L422.735 470.99L424.94 471.127Z" fill="#70513E"/>
<path d="M427.166 460.674C424.571 455.211 425.035 449.747 428.221 448.228C431.417 446.72 435.943 449.81 438.538 455.274C441.133 460.738 440.669 466.202 437.483 467.721C436.935 467.974 436.354 468.1 435.742 468.1C432.799 468.111 429.318 465.21 427.166 460.674ZM428.622 449.093C425.953 450.359 425.679 455.379 428.01 460.274C430.341 465.178 434.403 468.153 437.072 466.877C439.741 465.611 440.015 460.59 437.684 455.696C435.721 451.561 432.514 448.808 429.962 448.808C429.487 448.797 429.044 448.892 428.622 449.093Z" fill="#70513E"/>
<path d="M431.175 458.776C431.955 460.411 433.337 461.381 434.255 460.949C435.183 460.506 435.299 458.829 434.519 457.194C433.738 455.559 432.356 454.588 431.438 455.021C430.521 455.453 430.394 457.141 431.175 458.776Z" fill="#70513E"/>
<path d="M433.781 467.446L434.709 467.309L433.401 458.449H438.865V457.51H432.304L433.781 467.446Z" fill="#70513E"/>
<path d="M432.472 458.27L433.221 457.689L427.229 449.852L426.48 450.432L432.472 458.27Z" fill="#70513E"/>
<path d="M409.169 415.603H499.66C500.81 415.603 501.738 414.675 501.738 413.525V413.515C501.738 412.365 500.81 411.437 499.66 411.437H409.169C408.019 411.437 407.091 412.365 407.091 413.515V413.525C407.091 414.675 408.019 415.603 409.169 415.603Z" fill="#FF8F00"/>
<path d="M447.304 439.958C444.678 444.758 447.969 446.245 443.043 454.81C443.043 454.81 435.859 457.921 432.314 457.974C431.027 457.995 430.057 458.86 432.304 459.715C434.551 460.569 443.496 462.489 447.231 457.668C449.879 454.261 455.174 445.021 454.583 442.943C453.782 440.138 449.667 435.644 447.304 439.958Z" fill="#F4F4F4"/>
<path d="M430.711 457.985C430.31 458.227 429.857 458.365 429.414 458.28C428.285 458.048 427.705 456.751 427.293 455.875C426.787 454.799 426.08 456.36 427.335 457.784C427.335 457.784 425.721 456.909 424.508 458.027C423.337 459.103 423.928 462.193 428.232 460.548H428.243C428.833 460.326 429.466 460.284 430.078 460.411L432.821 460.97C433.918 460.421 433.496 456.192 433.106 456.498L430.711 457.985Z" fill="#F8B403"/>
<path d="M424.034 459.641C424.171 459.82 424.298 459.957 424.372 460.01C424.868 460.326 425.965 460.653 428.053 459.852C428.729 459.599 429.456 459.535 430.174 459.683L432.674 460.189C432.948 460.137 433.18 460.063 433.391 459.968C433.286 460.443 433.107 460.822 432.832 460.959L430.089 460.4C429.478 460.274 428.845 460.316 428.254 460.537H428.243C425.479 461.603 424.256 460.706 424.034 459.641Z" fill="#E5A006"/>
<path opacity="0.2" d="M454.299 444.853C453.888 448.576 452.347 457.837 447.21 459.061C447.21 459.061 447.484 458.196 447.685 457.046C449.889 454.019 453.297 448.123 454.299 444.853Z" fill="#0A5E77"/>
<path d="M394.527 472.878L407.524 422.343C409.075 416.32 414.508 412.112 420.732 412.112H434.393C438.644 412.112 442.21 415.329 442.642 419.548L448.254 474.102C448.761 478.985 444.921 483.236 440.005 483.236H402.555C397.144 483.226 393.177 478.121 394.527 472.878ZM445.322 473.321L439.931 420.93C439.583 417.523 436.703 414.928 433.275 414.928H421.322C416.048 414.928 411.438 418.504 410.119 423.609L397.692 471.929C396.352 477.161 400.277 482.255 405.678 482.276L437.02 482.445C441.967 482.487 445.828 478.226 445.322 473.321Z" fill="#70513E"/>
<path d="M407.091 413.515C407.091 412.365 408.03 411.426 409.18 411.426H457.927C459.077 411.426 460.016 412.354 460.016 413.515C460.016 414.664 459.077 415.603 457.927 415.603H409.18C408.019 415.603 407.091 414.664 407.091 413.515Z" fill="#DA7300"/>
<path d="M442.305 511.568C442.305 508.098 443.761 505.092 445.891 503.457V502.139H449.52C453.508 502.139 456.736 506.358 456.736 511.568C456.736 516.779 453.508 520.998 449.52 520.998H445.891V519.68C443.75 518.045 442.305 515.039 442.305 511.568Z" fill="#72503D"/>
<path d="M445.891 520.998C449.877 520.998 453.107 516.776 453.107 511.568C453.107 506.36 449.877 502.139 445.891 502.139C441.906 502.139 438.676 506.36 438.676 511.568C438.676 516.776 441.906 520.998 445.891 520.998Z" fill="#524533"/>
<path d="M487.413 511.568C487.413 508.098 488.869 505.092 491 503.457V502.138H494.629C498.616 502.138 501.844 506.357 501.844 511.568C501.844 516.779 498.616 520.998 494.629 520.998H491V519.68C488.869 518.045 487.413 515.038 487.413 511.568Z" fill="#72503D"/>
<path d="M491 520.998C494.985 520.998 498.215 516.776 498.215 511.568C498.215 506.36 494.985 502.138 491 502.138C487.015 502.138 483.784 506.36 483.784 511.568C483.784 516.776 487.015 520.998 491 520.998Z" fill="#524533"/>
<path d="M482.012 511.568C482.012 508.098 483.468 505.092 485.598 503.457V502.139H489.227C493.215 502.139 496.443 506.358 496.443 511.568C496.443 516.779 493.215 520.998 489.227 520.998H485.598V519.68C483.468 518.045 482.012 515.039 482.012 511.568Z" fill="#72503D"/>
<path d="M485.609 520.998C489.594 520.998 492.825 516.776 492.825 511.568C492.825 506.36 489.594 502.139 485.609 502.139C481.624 502.139 478.394 506.36 478.394 511.568C478.394 516.776 481.624 520.998 485.609 520.998Z" fill="#524533"/>
<path d="M453.846 512.222H504.397C506.18 512.222 507.625 510.777 507.625 508.995V478.163C507.625 476.38 506.18 474.935 504.397 474.935H453.846V512.222Z" fill="#FF8F00"/>
<path d="M503.7 493.584H503.711C504.798 493.584 505.673 492.709 505.673 491.622V485.009C505.673 483.922 504.798 483.047 503.711 483.047H503.7C502.614 483.047 501.738 483.922 501.738 485.009V491.622C501.738 492.709 502.614 493.584 503.7 493.584Z" fill="#C82C08"/>
<path d="M504.155 493.584H504.165C505.252 493.584 506.127 492.709 506.127 491.622V485.009C506.127 483.922 505.252 483.047 504.165 483.047H504.155C503.068 483.047 502.192 483.922 502.192 485.009V491.622C502.192 492.709 503.068 493.584 504.155 493.584Z" fill="#F83709"/>
<path d="M457.548 493.584H457.559C458.645 493.584 459.521 492.709 459.521 491.622V485.009C459.521 483.922 458.645 483.047 457.559 483.047H457.548C456.462 483.047 455.586 483.922 455.586 485.009V491.622C455.596 492.709 456.472 493.584 457.548 493.584Z" fill="#C82C08"/>
<path d="M458.001 493.584H458.012C459.098 493.584 459.974 492.709 459.974 491.622V485.009C459.974 483.922 459.098 483.047 458.012 483.047H458.001C456.915 483.047 456.039 483.922 456.039 485.009V491.622C456.039 492.709 456.915 493.584 458.001 493.584Z" fill="#F83709"/>
<path d="M476.632 509.765H484.86C485.451 509.765 485.936 509.279 485.936 508.689V503.647C485.936 503.056 485.451 502.571 484.86 502.571H476.632C476.041 502.571 475.556 503.056 475.556 503.647V508.689C475.556 509.279 476.041 509.765 476.632 509.765Z" fill="#DA7300"/>
<path d="M485.482 508.689V503.647C485.482 503.056 484.997 502.571 484.406 502.571H484.849C485.44 502.571 485.925 503.056 485.925 503.647V508.689C485.925 509.279 485.44 509.765 484.849 509.765H484.406C485.008 509.765 485.482 509.279 485.482 508.689Z" fill="#BB6300"/>
<path d="M391.943 512.222H453.856V474.935H449.341C448.17 474.935 447.052 475.452 446.292 476.349L442.42 480.937C441.872 481.581 441.07 481.95 440.226 481.95H401.405C400.414 481.95 399.475 481.507 398.852 480.747L394.031 474.925H391.943C389.622 481.38 388.43 488.194 388.43 495.061C388.43 498.151 388.852 501.221 389.685 504.195L391.943 512.222Z" fill="#DA7300"/>
<path d="M393.694 507.296C393.694 502.254 395.804 497.888 398.906 495.504V493.584H404.17C409.961 493.584 414.656 499.723 414.656 507.296C414.656 514.87 409.961 521.009 404.17 521.009H398.906V519.089C395.804 516.705 393.694 512.338 393.694 507.296Z" fill="#72503D"/>
<path d="M398.905 521.009C404.696 521.009 409.391 514.869 409.391 507.296C409.391 499.723 404.696 493.584 398.905 493.584C393.114 493.584 388.419 499.723 388.419 507.296C388.419 514.869 393.114 521.009 398.905 521.009Z" fill="#524533"/>
<path d="M398.906 515.735C401.374 515.735 404.117 512.264 404.117 507.286C404.117 502.307 401.374 498.837 398.906 498.837C396.437 498.837 393.694 502.307 393.694 507.286C393.694 512.264 396.448 515.735 398.906 515.735Z" fill="#DA7300"/>
<path d="M436.903 511.568C436.903 508.098 438.359 505.092 440.49 503.457V502.138H444.119C448.107 502.138 451.335 506.358 451.335 511.568C451.335 516.779 448.107 520.998 444.119 520.998H440.49V519.68C438.349 518.045 436.903 515.039 436.903 511.568Z" fill="#72503D"/>
<path d="M440.49 520.998C444.475 520.998 447.706 516.776 447.706 511.568C447.706 506.36 444.475 502.138 440.49 502.138C436.505 502.138 433.274 506.36 433.274 511.568C433.274 516.776 436.505 520.998 440.49 520.998Z" fill="#524533"/>
<path d="M440.49 517.38C442.188 517.38 444.077 514.996 444.077 511.568C444.077 508.14 442.188 505.756 440.49 505.756C438.792 505.756 436.903 508.14 436.903 511.568C436.903 514.996 438.792 517.38 440.49 517.38Z" fill="#DA7300"/>
<path d="M458.898 432.533C458.898 432.533 456.714 432.047 455.786 431.604C454.858 431.161 455.364 429.832 455.438 429.041C455.512 428.25 454.562 426.879 454.794 424.274C455.027 421.668 460.66 421.384 460.66 421.384C460.66 421.384 466.377 423.82 466.156 426.236C465.934 428.651 464.13 431.974 464.236 433.556C464.341 435.138 458.898 432.533 458.898 432.533Z" fill="#F9BB91"/>
<path d="M456.419 425.265C456.419 425.265 457.2 427.628 457.105 428.609C457.02 429.59 457.727 426.594 458.529 426.889C459.331 427.185 460.396 429.421 459.373 430.771C458.349 432.121 460.037 433.081 460.934 433.398C461.831 433.714 463.466 434.115 463.898 434.009C464.331 433.904 463.846 433.767 464.637 431.457C465.428 429.147 467.031 425.845 465.776 423.567C464.542 421.288 456.419 425.265 456.419 425.265Z" fill="#131133"/>
<path d="M466.768 425.972C463.277 427.828 455.333 426.056 452.675 422.512C450.016 418.968 455.818 420.16 458.034 420.075C460.249 419.991 470.756 423.852 466.768 425.972Z" fill="#E5A006"/>
<path d="M463.044 416.531C467.338 417.871 468.255 423.187 466.842 425.223C465.428 427.259 454.246 426.035 453.898 422.565C453.592 419.548 456.493 414.496 463.044 416.531Z" fill="#F8B403"/>
</g>
<defs>
<clipPath id="clip0_82_6617">
<rect width="734" height="521" fill="white"/>
</clipPath>
</defs>
</svg>
