<svg width="18" height="57" viewBox="0 0 18 57" fill="none" xmlns="http://www.w3.org/2000/svg">
    <path d="M14.8334 8.1665H16.5001C16.9603 8.1665 17.3334 8.5396 17.3334 8.99984C17.3334 9.46008 16.9603 9.83317 16.5001 9.83317H14.8334C14.3732 9.83317 14.0001 9.46008 14.0001 8.99984C14.0001 8.5396 14.3732 8.1665 14.8334 8.1665ZM1.50008 8.1665H3.16675C3.62699 8.1665 4.00008 8.5396 4.00008 8.99984C4.00008 9.46008 3.62699 9.83317 3.16675 9.83317H1.50008C1.03984 9.83317 0.666748 9.46008 0.666748 8.99984C0.666748 8.5396 1.03984 8.1665 1.50008 8.1665ZM9.00008 0.666504C9.46032 0.666504 9.83342 1.0396 9.83342 1.49984V3.1665C9.83342 3.62674 9.46032 3.99984 9.00008 3.99984C8.53984 3.99984 8.16675 3.62674 8.16675 3.1665V1.49984C8.16675 1.0396 8.53984 0.666504 9.00008 0.666504ZM9.00008 13.9998C9.46032 13.9998 9.83342 14.3729 9.83342 14.8332V16.4998C9.83342 16.9601 9.46032 17.3332 9.00008 17.3332C8.53984 17.3332 8.16675 16.9601 8.16675 16.4998V14.8332C8.16675 14.3729 8.53984 13.9998 9.00008 13.9998Z" fill="#009EF7"/>
    <path d="M9.00008 13.1665C11.3013 13.1665 13.1667 11.301 13.1667 8.99984C13.1667 6.69865 11.3013 4.83317 9.00008 4.83317C6.6989 4.83317 4.83341 6.69865 4.83341 8.99984C4.83341 11.301 6.6989 13.1665 9.00008 13.1665ZM9.00008 14.8332C5.77842 14.8332 3.16675 12.2215 3.16675 8.99984C3.16675 5.77818 5.77842 3.1665 9.00008 3.1665C12.2217 3.1665 14.8334 5.77818 14.8334 8.99984C14.8334 12.2215 12.2217 14.8332 9.00008 14.8332Z" fill="#009EF7"/>
    <path d="M8.5 20C8.5 20.2761 8.72386 20.5 9 20.5C9.27614 20.5 9.5 20.2761 9.5 20L8.5 20ZM9.5 22C9.5 21.7239 9.27614 21.5 9 21.5C8.72386 21.5 8.5 21.7239 8.5 22L9.5 22ZM8.5 24C8.5 24.2761 8.72386 24.5 9 24.5C9.27614 24.5 9.5 24.2761 9.5 24L8.5 24ZM9.5 26C9.5 25.7239 9.27614 25.5 9 25.5C8.72386 25.5 8.5 25.7239 8.5 26L9.5 26ZM8.5 28C8.5 28.2761 8.72386 28.5 9 28.5C9.27614 28.5 9.5 28.2761 9.5 28L8.5 28ZM9.5 30C9.5 29.7239 9.27614 29.5 9 29.5C8.72386 29.5 8.5 29.7239 8.5 30L9.5 30ZM8.5 32C8.5 32.2761 8.72386 32.5 9 32.5C9.27614 32.5 9.5 32.2761 9.5 32L8.5 32ZM9.5 34C9.5 33.7239 9.27614 33.5 9 33.5C8.72386 33.5 8.5 33.7239 8.5 34L9.5 34ZM8.5 36C8.5 36.2761 8.72386 36.5 9 36.5C9.27614 36.5 9.5 36.2761 9.5 36L8.5 36ZM9.5 38C9.5 37.7239 9.27614 37.5 9 37.5C8.72386 37.5 8.5 37.7239 8.5 38L9.5 38ZM8.5 19L8.5 20L9.5 20L9.5 19L8.5 19ZM8.5 22L8.5 24L9.5 24L9.5 22L8.5 22ZM8.5 26L8.5 28L9.5 28L9.5 26L8.5 26ZM8.5 30L8.5 32L9.5 32L9.5 30L8.5 30ZM8.5 34L8.5 36L9.5 36L9.5 34L8.5 34ZM8.5 38L8.5 39L9.5 39L9.5 38L8.5 38Z" fill="#E4E6EF"/>
    <path fill-rule="evenodd" clip-rule="evenodd" d="M7.19033 52.8805C4.85459 52.119 3.16675 49.9233 3.16675 47.3333C3.16675 44.1117 5.77842 41.5 9.00008 41.5C12.2217 41.5 14.8334 44.1117 14.8334 47.3333C14.8334 49.9233 13.1456 52.119 10.8098 52.8805L9.00008 56.5L7.19033 52.8805ZM9.00008 49C9.92056 49 10.6667 48.2538 10.6667 47.3333C10.6667 46.4129 9.92056 45.6667 9.00008 45.6667C8.07961 45.6667 7.33342 46.4129 7.33342 47.3333C7.33342 48.2538 8.07961 49 9.00008 49Z" fill="#50CD89"/>
    </svg>
    